<?xml version="1.0" encoding="UTF-8" standalone="no"?>
<!DOCTYPE svg PUBLIC "-//W3C//DTD SVG 1.1//EN" "http://www.w3.org/Graphics/SVG/1.1/DTD/svg11.dtd"
[
<!ATTLIST g
  xmlns:vectornator CDATA #FIXED "http://vectornator.io"
  vectornator:layerName CDATA #IMPLIED >
<!ATTLIST g
  xmlns:vectornator CDATA #FIXED "http://vectornator.io"
  vectornator:mask CDATA #IMPLIED >
<!ATTLIST text
  xmlns:vectornator CDATA #FIXED "http://vectornator.io"
  vectornator:width CDATA #IMPLIED >
<!ATTLIST text
  xmlns:vectornator CDATA #FIXED "http://vectornator.io"
  vectornator:text CDATA #IMPLIED >

<!ATTLIST path
  xmlns:vectornator CDATA #FIXED "http://vectornator.io"
  vectornator:blendMode CDATA #IMPLIED >
<!ATTLIST path
  xmlns:vectornator CDATA #FIXED "http://vectornator.io"
  vectornator:shadowColor CDATA #IMPLIED >
<!ATTLIST path
  xmlns:vectornator CDATA #FIXED "http://vectornator.io"
  vectornator:shadowOpacity CDATA #IMPLIED >
<!ATTLIST path
  xmlns:vectornator CDATA #FIXED "http://vectornator.io"
  vectornator:shadowRadius CDATA #IMPLIED >
<!ATTLIST path
  xmlns:vectornator CDATA #FIXED "http://vectornator.io"
  vectornator:shadowOffset CDATA #IMPLIED >
<!ATTLIST path
  xmlns:vectornator CDATA #FIXED "http://vectornator.io"
  vectornator:shadowAngle CDATA #IMPLIED >

<!ATTLIST image
  xmlns:vectornator CDATA #FIXED "http://vectornator.io"
  vectornator:blendMode CDATA #IMPLIED >
<!ATTLIST image
  xmlns:vectornator CDATA #FIXED "http://vectornator.io"
  vectornator:shadowColor CDATA #IMPLIED >
<!ATTLIST image
  xmlns:vectornator CDATA #FIXED "http://vectornator.io"
  vectornator:shadowOpacity CDATA #IMPLIED >
<!ATTLIST image
  xmlns:vectornator CDATA #FIXED "http://vectornator.io"
  vectornator:shadowRadius CDATA #IMPLIED >
<!ATTLIST image
  xmlns:vectornator CDATA #FIXED "http://vectornator.io"
  vectornator:shadowOffset CDATA #IMPLIED >
<!ATTLIST image
  xmlns:vectornator CDATA #FIXED "http://vectornator.io"
  vectornator:shadowAngle CDATA #IMPLIED >

<!ATTLIST g
  xmlns:vectornator CDATA #FIXED "http://vectornator.io"
  vectornator:blendMode CDATA #IMPLIED >
<!ATTLIST g
  xmlns:vectornator CDATA #FIXED "http://vectornator.io"
  vectornator:shadowColor CDATA #IMPLIED >
<!ATTLIST g
  xmlns:vectornator CDATA #FIXED "http://vectornator.io"
  vectornator:shadowOpacity CDATA #IMPLIED >
<!ATTLIST g
  xmlns:vectornator CDATA #FIXED "http://vectornator.io"
  vectornator:shadowRadius CDATA #IMPLIED >
<!ATTLIST g
  xmlns:vectornator CDATA #FIXED "http://vectornator.io"
  vectornator:shadowOffset CDATA #IMPLIED >
<!ATTLIST g
  xmlns:vectornator CDATA #FIXED "http://vectornator.io"
  vectornator:shadowAngle CDATA #IMPLIED >

<!ENTITY % SVG.filter.extra.content  "| feDropShadow" >
<!ELEMENT feDropShadow EMPTY>
<!ATTLIST feDropShadow
  xmlns:svg CDATA #FIXED "http://www.w3.org/Graphics/SVG/1.1/DTD/svg11.dtd"
  dx CDATA #IMPLIED>
<!ATTLIST feDropShadow
  xmlns:svg CDATA #FIXED "http://www.w3.org/Graphics/SVG/1.1/DTD/svg11.dtd"
  dy CDATA #IMPLIED>
<!ATTLIST feDropShadow
  xmlns:svg CDATA #FIXED "http://www.w3.org/Graphics/SVG/1.1/DTD/svg11.dtd"
  stdDeviation CDATA #IMPLIED>
<!ATTLIST feDropShadow
  xmlns:svg CDATA #FIXED "http://www.w3.org/Graphics/SVG/1.1/DTD/svg11.dtd"
  flood-opacity CDATA #IMPLIED>
<!ATTLIST feDropShadow
  xmlns:svg CDATA #FIXED "http://www.w3.org/Graphics/SVG/1.1/DTD/svg11.dtd"
  in CDATA #IMPLIED>
<!ATTLIST feDropShadow
  xmlns:svg CDATA #FIXED "http://www.w3.org/Graphics/SVG/1.1/DTD/svg11.dtd"
  result CDATA #IMPLIED>
<!ATTLIST feDropShadow
  xmlns:svg CDATA #FIXED "http://www.w3.org/Graphics/SVG/1.1/DTD/svg11.dtd"
  flood-color CDATA #IMPLIED>
]
>
<!-- Created with Vectornator (http://vectornator.io/) -->
<svg height="100%" stroke-miterlimit="10" style="fill-rule:nonzero;clip-rule:evenodd;stroke-linecap:round;stroke-linejoin:round;" version="1.1" viewBox="0 0 841.995 595.35" width="100%" xml:space="preserve" xmlns="http://www.w3.org/2000/svg" xmlns:vectornator="http://vectornator.io" xmlns:xlink="http://www.w3.org/1999/xlink">
<defs/>
<g id="Ebene-1" vectornator:layerName="Ebene 1">
<path d="M305.141 548.878C305.656 550.713 306.916 552.541 308.921 554.363C310.926 556.184 312.926 557.546 314.922 558.449C316.917 559.351 320.031 560.358 324.263 561.471C328.495 562.583 333.469 563.345 339.184 563.755C344.899 564.164 352.095 563.757 360.772 562.532C369.45 561.306 377.741 558.705 385.646 554.728C393.551 550.75 398.247 548.64 399.734 548.397C401.221 548.155 402.588 548.258 403.834 548.707C405.08 549.155 405.835 550.183 406.1 551.79C406.365 553.397 409.847 554.057 416.548 553.768C419.899 553.624 423.249 553.48 426.6 553.336C426.457 551.498 426.314 549.66 426.171 547.822C425.885 544.146 425.227 540.473 424.197 536.804C423.166 533.134 422.276 531.073 421.527 530.62C420.777 530.166 420.336 523.388 420.202 510.285C420.069 497.182 420.323 485.569 420.965 475.448C421.607 465.327 422.043 459.345 422.272 457.504C422.502 455.663 423.852 454.157 426.323 452.986C428.794 451.815 430.514 450.075 431.484 447.768C432.454 445.46 433.072 433.04 433.339 410.508C433.607 387.975 434.232 376.244 435.216 375.316C436.199 374.388 437.558 373.686 439.291 373.211C441.024 372.737 443.137 372.948 445.629 373.846C448.121 374.744 451.401 379.888 455.469 389.278C459.537 398.669 462.491 408.299 464.329 418.169C466.168 428.039 467.112 435.387 467.161 440.215C467.21 445.042 467.862 448.14 469.117 449.509C470.373 450.877 472.244 451.78 474.732 452.218C477.219 452.657 479.315 463.444 481.02 484.58C482.725 505.716 483.466 517.55 483.243 520.08C483.021 522.611 482.538 523.995 481.796 524.231C481.053 524.468 480.701 526.425 480.738 530.103C480.776 533.781 480.433 536.658 479.709 538.733C478.985 540.809 478.403 544.607 477.963 550.129C477.743 552.889 477.522 555.65 477.302 558.411C480.281 558.385 483.261 558.359 486.24 558.333C492.198 558.281 495.278 555.955 495.48 551.355C495.681 546.755 496.775 544.447 498.761 544.43C500.747 544.412 502.369 545.203 503.627 546.801C504.884 548.399 506.886 549.876 509.631 551.232C512.376 552.587 514.125 553.721 514.88 554.635C515.634 555.548 517.877 556.448 521.611 557.335C525.344 558.222 536.27 558.356 554.389 557.738C572.508 557.12 574.936 556.521 577.161 555.582C579.386 554.643 580.543 554.607 582.758 552.749C584.974 550.89 587.281 549.12 590.703 543.802C594.125 538.485 596.577 536.932 596.553 534.634C596.53 532.335 596.838 529.266 594.1 528.6C591.362 527.934 594.192 528.038 586.749 528.563C579.306 529.088 566.734 530.713 557.506 526.655C548.278 522.597 546.061 519.627 542.086 519.431C538.112 519.236 534.648 518.562 531.931 519.965C529.214 521.368 525.546 520.673 524.81 521.599C524.075 522.525 522.465 519.278 518.242 519.085C514.019 518.892 511.029 517.884 509.273 516.06C507.516 514.236 505.985 510.111 504.678 503.685C503.371 497.259 502.144 486.465 500.996 471.301C499.849 456.138 501.379 447.963 505.588 446.776C509.797 445.59 513.258 444.066 515.97 442.203C518.682 440.34 519.899 437.915 519.62 434.929C519.341 431.943 517.817 428.507 515.046 424.623C512.275 420.739 512.1 415.683 514.519 409.454C516.939 403.226 518.77 400.221 520.014 400.44C521.258 400.659 521.999 400.308 522.238 399.386C522.477 398.464 522.223 397.892 521.475 397.669C520.728 397.445 516.899 387.133 509.987 366.732C503.076 346.331 497.03 325.578 491.849 304.472C486.669 283.366 486.67 271.296 491.853 268.262C497.036 265.228 501.227 262.203 504.424 259.186C507.621 256.17 509.197 252.477 509.153 248.11C509.108 243.742 508.059 238.233 506.005 231.584C503.951 224.935 502.17 220.697 500.661 218.871C499.153 217.045 498.385 214.753 498.357 211.994C498.329 209.236 497.429 206.255 495.659 203.052C493.888 199.848 491.872 196.877 489.609 194.138C487.347 191.399 484.714 188.893 481.711 186.62C478.709 184.347 475.711 182.534 472.718 181.181C469.724 179.828 467.608 179.272 466.369 179.512C465.75 179.633 465.13 179.753 464.511 179.873C464.743 178.262 464.975 176.651 465.206 175.039C465.67 171.817 466.396 169.971 467.385 169.503C467.879 169.268 468.373 169.034 468.867 168.8C468.614 168.342 468.361 167.885 468.108 167.427C467.603 166.512 468.195 163.748 469.886 159.135C470.732 156.829 471.577 154.522 472.423 152.216C471.057 152.228 469.692 152.24 468.326 152.252C465.595 152.276 464.099 151.599 463.837 150.222C463.574 148.845 465.532 146.069 469.711 141.894C473.889 137.719 476.833 134.245 478.543 131.471C480.253 128.698 481.851 127.189 483.339 126.946C484.826 126.704 486.429 125.655 488.148 123.801C489.867 121.947 491.705 119.517 493.661 116.511C495.616 113.505 496.955 110.849 497.676 108.544C498.398 106.239 498.471 101.295 497.898 93.7134C497.324 86.1316 498.02 81.2976 499.985 79.2113C501.95 77.1251 502.923 75.1624 502.904 73.3233C502.886 71.4843 502.245 69.5357 500.983 67.4776C499.72 65.4195 498.466 64.166 497.22 63.717C496.597 63.4926 495.974 63.2681 495.351 63.0436C495.837 62.0048 496.323 60.966 496.809 59.9272C497.781 57.8496 497.637 55.8967 496.377 54.0685C495.117 52.2403 494.732 50.9792 495.221 50.2852C495.711 49.5912 495.194 47.6416 493.672 44.4362C492.149 41.2309 489.385 37.9214 485.377 34.5078C481.37 31.0943 477.119 28.1426 472.624 25.6529C468.13 23.1632 463.271 21.4814 458.048 20.6073C452.825 19.7333 449.345 19.3039 447.607 19.319C445.869 19.3342 444.509 19.9208 443.528 21.0789C443.037 21.6579 442.547 22.237 442.056 22.816C441.68 22.4744 441.304 22.1329 440.928 21.7913C440.176 21.1081 438.932 20.7742 437.194 20.7893C435.456 20.8045 433.101 21.1699 430.129 21.8855C427.156 22.6012 425.054 23.4242 423.822 24.3546C422.59 25.2849 421.107 25.8726 419.371 26.1177C417.636 26.3627 414.544 27.5392 410.096 29.6471C405.648 31.7551 400.965 35.1295 396.047 39.7705C391.128 44.4115 388.553 47.5376 388.321 49.149C388.089 50.7603 386.616 52.3825 383.901 54.0155C381.187 55.6485 379.714 57.2707 379.482 58.882C379.25 60.4934 379.765 62.3281 381.028 64.3862C381.659 65.4152 382.29 66.4443 382.921 67.4733C381.93 67.7119 380.94 67.9504 379.949 68.189C377.967 68.6661 376.486 69.4837 375.505 70.6417C374.523 71.7998 374.043 73.4133 374.064 75.4823C374.085 77.5512 374.974 79.4976 376.731 81.3215C378.487 83.1454 379.027 87.3939 378.35 94.067C377.673 100.74 377.971 105.565 379.242 108.543C380.514 111.521 382.534 114.837 385.303 118.491C388.071 122.145 391.964 126.479 396.98 131.493C401.997 136.507 405.891 140.957 408.662 144.841C410.047 146.783 411.432 148.725 412.818 150.667C412.075 150.903 411.333 151.14 410.59 151.376C409.105 151.849 406.994 151.752 404.256 151.087C402.887 150.754 401.518 150.421 400.149 150.088C401.305 153.871 402.461 157.654 403.616 161.438C404.772 165.221 405.928 169.004 407.084 172.788C404.234 173.272 401.383 173.757 398.533 174.242C392.832 175.211 388.129 176.632 384.424 178.503C380.718 180.375 377.268 182.934 374.074 186.18C370.879 189.427 368.561 193.47 367.121 198.311C365.68 203.151 365.277 212.351 365.912 225.91C366.547 239.468 367.487 246.472 368.733 246.921C369.979 247.37 371.217 247.014 372.446 245.854C373.676 244.694 374.787 244.109 375.781 244.101C376.774 244.092 378.424 247.641 380.731 254.748C383.037 261.855 384.196 265.868 384.205 266.788C384.214 267.707 383.475 268.288 381.988 268.531C380.501 268.774 379.389 269.358 378.654 270.285C377.919 271.211 377.816 273.281 378.345 276.495C378.874 279.709 378.652 282.239 377.677 284.087C376.703 285.935 376.104 288.124 375.882 290.655C375.659 293.186 376.053 295.252 377.062 296.852C378.072 298.453 380.561 299.121 384.531 298.856C386.516 298.724 388.501 298.592 390.486 298.459C389.337 307.55 388.188 316.642 387.04 325.733C384.742 343.915 383.227 353.699 382.497 355.085C381.766 356.471 381.059 360.155 380.375 366.139C379.691 372.122 378.983 375.807 378.252 377.193C377.522 378.578 376.463 384.335 375.076 394.463C373.69 404.591 374.123 410.565 376.376 412.384C378.629 414.204 381.265 417.054 384.284 420.936C387.303 424.818 387.992 431.48 386.35 440.92C384.708 450.36 384.515 455.765 385.77 457.133C387.025 458.502 389.144 459.288 392.125 459.492C395.107 459.695 396.726 460.256 396.984 461.173C397.242 462.091 397.553 468.295 397.918 479.787C398.284 491.279 398.234 498.637 397.771 501.859C397.307 505.082 395.979 508.772 393.787 512.929C391.594 517.087 388.895 520.214 385.689 522.311C382.482 524.408 380.132 525.233 378.637 524.787C377.143 524.34 375.156 524.242 372.676 524.494C370.195 524.745 367.47 525.344 364.5 526.289C361.53 527.235 357.701 529.108 353.012 531.907C348.323 534.707 344.988 536.346 343.006 536.823C341.025 537.3 334.819 537.469 324.39 537.33C313.96 537.191 308.13 537.587 306.898 538.517C305.666 539.448 304.936 540.948 304.709 543.019C304.482 545.09 304.626 547.043 305.141 548.878Z" fill="#000000" fill-rule="evenodd" opacity="1" stroke="#000000" stroke-linecap="round" stroke-linejoin="round" stroke-width="1"/>
<path d="M309.248 549.877C310.51 551.935 312.14 553.53 314.138 554.662C316.136 555.794 319.376 557.03 323.859 558.371C328.342 559.711 333.193 560.588 338.411 561.002C343.629 561.417 348.596 561.488 353.31 561.217C358.025 560.946 362.612 560.331 367.072 559.373C371.531 558.414 377.589 555.948 385.246 551.972C392.902 547.997 397.845 545.77 400.075 545.291C402.305 544.812 404.04 544.566 405.281 544.556C406.523 544.545 407.403 545.687 407.923 547.981C408.443 550.276 411.185 551.286 416.148 551.013C418.629 550.876 421.111 550.74 423.592 550.603C423.453 549.11 423.314 547.617 423.174 546.124C422.896 543.137 422.247 540.384 421.228 537.864C420.209 535.344 414.985 534.355 405.556 534.897C396.126 535.439 390.914 535.6 389.918 535.379C388.923 535.157 387.671 534.134 386.163 532.308C384.654 530.482 383.031 529.576 381.293 529.591C379.556 529.607 378.559 529.27 378.304 528.583C378.048 527.895 377.175 527.443 375.683 527.226C374.191 527.01 371.712 527.376 368.245 528.326C364.779 529.276 361.813 530.566 359.346 532.197C356.88 533.828 355.15 534.648 354.157 534.656C353.164 534.665 350.444 535.723 345.996 537.831C341.548 539.939 334.605 540.804 325.166 540.427C315.727 540.049 310.514 540.095 309.525 540.563C308.537 541.032 307.928 542.187 307.699 544.028C307.469 545.869 307.985 547.819 309.248 549.877Z" fill="#573304" fill-rule="evenodd" opacity="1" stroke="#824c04" stroke-linecap="round" stroke-linejoin="round" stroke-width="1"/>
<path d="M369.025 238.987C369.552 241.971 370.187 243.46 370.932 243.453C371.677 243.447 373.034 242.63 375.004 241.004C376.974 239.377 381.546 237.268 388.72 234.677C395.894 232.085 399.35 230.101 399.087 228.724C398.825 227.347 399.399 222.744 400.809 214.915C402.219 207.086 402.792 202.368 402.527 200.761C402.395 199.957 402.262 199.154 402.13 198.35C402.627 198.346 403.123 198.341 403.62 198.337C404.116 198.333 404.613 198.328 405.109 198.324C405.127 200.048 405.144 201.772 405.162 203.496C405.197 206.945 404.969 208.901 404.477 209.365C403.985 209.829 403.275 213.284 402.348 219.729C401.42 226.174 401.212 230.085 401.722 231.46C401.977 232.147 402.233 232.835 402.488 233.522C402.24 233.524 401.992 233.526 401.743 233.529C401.495 233.531 401.247 233.533 400.998 233.535C401.003 233.995 401.008 234.455 401.012 234.914C401.022 235.834 400.656 236.527 399.916 236.993C399.176 237.459 399.061 238.38 399.572 239.755C399.827 240.442 400.083 241.13 400.338 241.817C401.181 239.281 402.024 236.745 402.867 234.208C404.554 229.136 407.712 222.326 412.343 213.779C416.973 205.233 419.157 200.271 418.895 198.893C418.633 197.516 416.752 195.694 413.253 193.425C409.754 191.157 408.112 188.412 408.327 185.192C408.543 181.971 408.27 179.559 407.509 177.957C406.748 176.354 403.024 176.387 396.337 178.054C389.65 179.722 385.197 181.255 382.976 182.654C380.756 184.053 378.417 186.027 375.96 188.578C373.503 191.128 371.551 194.479 370.104 198.63C368.656 202.78 367.983 209.798 368.083 219.683C368.184 229.568 368.498 236.003 369.025 238.987Z" fill="#7c9ab6" fill-rule="evenodd" opacity="1" stroke="#8bb2d6" stroke-linecap="round" stroke-linejoin="round" stroke-width="1"/>
<path d="M383.859 415.767C388.632 421.243 392.284 426.269 394.813 430.845C397.343 435.421 398.981 437.821 399.728 438.044C400.102 438.156 400.475 438.268 400.849 438.379C401.869 428.83 402.889 419.28 403.909 409.73C405.949 390.63 407.918 376.704 409.815 367.951C411.712 359.198 413.421 344.125 414.941 322.73C415.702 312.033 416.462 301.336 417.222 290.639C415.982 290.765 414.742 290.891 413.501 291.016C411.021 291.268 407.059 292.337 401.616 294.224C396.173 296.111 393.116 300.735 392.447 308.098C391.777 315.461 390.959 320.526 389.994 323.293C389.029 326.06 388.201 330.091 387.51 335.385C386.819 340.678 386.489 344.819 386.519 347.808C386.55 350.796 385.257 357.935 382.641 369.223C380.024 380.511 378.38 389.721 377.708 396.854C377.035 403.987 379.086 410.291 383.859 415.767Z" fill="#7c9ab6" fill-rule="evenodd" opacity="1" stroke="#8bb2d6" stroke-linecap="round" stroke-linejoin="round" stroke-width="1"/>
<path d="M379.279 295.109C379.78 295.564 381.148 295.782 383.383 295.762C385.617 295.743 390.075 294.669 396.757 292.542C403.44 290.415 408.516 289.106 411.987 288.616C415.458 288.126 417.563 287.533 418.3 286.836C419.038 286.14 420.774 285.895 423.507 286.101C426.24 286.307 433.182 285.327 444.333 283.161C455.484 280.994 463.162 279.088 467.366 277.442C471.57 275.796 477.622 272.754 485.522 268.317C493.423 263.88 498.847 260.154 501.796 257.14C504.745 254.126 506.068 249.976 505.766 244.691C505.464 239.406 504.548 234.815 503.019 230.92C501.489 227.025 500.225 224.737 499.224 224.056C498.224 223.376 497.716 222.23 497.7 220.621C497.683 219.012 497.426 218.095 496.927 217.869C496.677 217.756 496.428 217.644 496.179 217.531C495.329 219.492 494.48 221.454 493.631 223.416C491.933 227.339 489.851 230.116 487.385 231.747C484.919 233.377 483.698 235.457 483.724 237.986C483.75 240.515 484.136 241.891 484.883 242.114C485.63 242.337 486.135 243.138 486.397 244.515C486.529 245.203 486.66 245.892 486.791 246.58C485.922 246.588 485.053 246.596 484.184 246.603C482.446 246.618 477.623 248.385 469.713 251.902C461.804 255.42 455.14 259.386 449.723 263.802C444.305 268.217 440.237 271.012 437.518 272.185C434.799 273.358 429.717 274.207 422.274 274.732C414.831 275.257 409.144 277.605 405.214 281.778C401.284 285.95 398.698 288.042 397.457 288.053C396.215 288.064 394.845 287.616 393.346 286.709C391.847 285.803 390.205 283.058 388.421 278.476C386.636 273.893 385.122 271.493 383.878 271.273C382.635 271.054 381.767 271.177 381.275 271.641C380.783 272.105 380.801 273.829 381.328 276.813C381.854 279.798 381.631 282.213 380.656 284.061C379.682 285.909 379.084 288.098 378.861 290.629C378.639 293.16 378.778 294.653 379.279 295.109Z" fill="#f3d5c4" fill-rule="evenodd" opacity="1" stroke="#f3d5c4" stroke-linecap="round" stroke-linejoin="round" stroke-width="1"/>
<path d="M378.572 79.2363C380.085 81.5221 381.712 82.8874 383.455 83.3319C385.197 83.7765 387.309 83.8731 389.789 83.6215C392.27 83.37 394.246 82.4331 395.72 80.8109C397.193 79.1888 397.921 77.5731 397.905 75.9639C397.888 74.3547 397.504 73.2086 396.753 72.5254C396.001 71.8423 395.005 71.6211 393.766 71.8618C392.527 72.1025 391.281 71.6536 390.028 70.515C388.775 69.3764 386.539 69.166 383.318 69.8839C380.098 70.6017 378.123 71.7684 377.395 73.3841C376.666 74.9998 377.059 76.9505 378.572 79.2363Z" fill="#ffffff" fill-rule="evenodd" opacity="1" stroke="#ffffff" stroke-linecap="round" stroke-linejoin="round" stroke-width="1"/>
<path d="M384.894 261.264C388.482 272.268 391.156 278.912 392.918 281.195C394.679 283.479 396.056 284.617 397.049 284.608C398.042 284.599 399.278 284.014 400.756 282.851C402.233 281.689 406.162 277.401 412.542 269.989C418.923 262.576 424.903 252.523 430.485 239.83C436.066 227.137 439.568 217.45 440.99 210.771C442.411 204.091 445.697 197.625 450.848 191.373C455.998 185.12 459.059 180.955 460.031 178.878C461.003 176.8 461.468 173.692 461.426 169.555C461.384 165.417 460.616 163.124 459.122 162.678C457.627 162.231 456.995 161.087 457.225 159.246C457.339 158.325 457.454 157.404 457.569 156.484C457.197 156.487 456.824 156.49 456.452 156.494C455.707 156.5 454.476 157.545 452.759 159.63C451.043 161.714 449.688 162.76 448.695 162.769C448.198 162.773 447.701 162.777 447.205 162.782C447.554 160.48 447.903 158.178 448.252 155.875C448.95 151.271 450.036 148.158 451.509 146.536C452.982 144.914 454.08 143.065 454.804 140.99C455.528 138.914 456.751 137.064 458.472 135.44C460.194 133.816 461.047 132.314 461.033 130.934C461.019 129.555 460.266 128.757 458.774 128.54C457.282 128.323 455.674 128.912 453.951 130.307C452.227 131.701 450.39 134.246 448.442 137.941C446.493 141.637 444.29 144.76 441.833 147.31C439.376 149.86 437.294 152.637 435.587 155.641C433.879 158.645 432.527 159.921 431.529 159.47C430.531 159.019 430.371 155.457 431.048 148.784C431.725 142.111 431.441 138.665 430.198 138.445C428.954 138.226 428.086 138.349 427.594 138.813C427.103 139.277 426.409 144.341 425.514 154.005C424.62 163.668 424.438 170.222 424.97 173.666C425.501 177.11 425.542 181.133 425.093 185.735C424.643 190.337 423.697 194.943 422.254 199.554C420.811 204.165 418.745 208.551 416.056 212.712C413.367 216.874 410.446 222.532 407.291 229.687C404.136 236.841 402.076 241.802 401.111 244.569C400.146 247.337 399.559 250.675 399.351 254.585C399.246 256.541 399.142 258.496 399.038 260.451C398.54 260.34 398.042 260.23 397.545 260.119C396.549 259.898 396.258 255.647 396.67 247.367C396.876 243.227 397.082 239.087 397.288 234.947C394.443 235.891 391.597 236.836 388.751 237.78C383.06 239.669 380.097 241.304 379.863 242.686C379.629 244.067 381.306 250.26 384.894 261.264Z" fill="#f3d5c4" fill-rule="evenodd" opacity="1" stroke="#f3d5c4" stroke-linecap="round" stroke-linejoin="round" stroke-width="1"/>
<path d="M386.507 529.546C387.762 530.914 389.013 531.823 390.259 532.272C391.505 532.721 396.346 532.679 404.783 532.145C413.219 531.612 417.371 524.793 417.237 511.69C417.104 498.587 417.472 485.939 418.341 473.747C418.775 467.65 419.21 461.554 419.644 455.458C416.301 456.292 412.958 457.126 409.614 457.96C402.927 459.627 399.843 461.493 400.36 463.558C400.878 465.623 401.193 472.172 401.305 483.206C401.417 494.241 401.238 501.024 400.767 503.557C400.297 506.09 398.843 509.667 396.407 514.286C393.972 518.905 391.769 522.028 389.799 523.655C387.829 525.281 386.472 526.098 385.727 526.104C385.355 526.107 384.982 526.111 384.61 526.114C384.612 526.344 384.615 526.574 384.617 526.804C384.622 527.263 385.252 528.177 386.507 529.546Z" fill="#ffffff" fill-rule="evenodd" opacity="1" stroke="#ffffff" stroke-linecap="round" stroke-linejoin="round" stroke-width="1"/>
<path d="M384.115 111.604C385.122 112.975 386.129 114.345 387.136 115.716C386.877 114.569 386.617 113.422 386.357 112.274C385.837 109.98 385.078 108.607 384.08 108.156C383.082 107.705 382.455 107.021 382.197 106.103C382.068 105.645 381.939 105.186 381.811 104.727C381.691 105.188 381.572 105.649 381.452 106.11C381.213 107.031 382.101 108.863 384.115 111.604Z" fill="#ffffff" fill-rule="evenodd" opacity="1" stroke="#ffffff" stroke-linecap="round" stroke-linejoin="round" stroke-width="1"/>
<path d="M382.503 99.5484C383.531 102.988 384.666 104.702 385.907 104.691C387.148 104.681 388.013 104.213 388.5 103.289C388.987 102.366 389.604 102.015 390.351 102.239C390.725 102.35 391.098 102.462 391.472 102.574C390.858 103.269 390.245 103.964 389.631 104.659C388.404 106.049 388.181 108.58 388.963 112.252C389.746 115.923 392.024 120.271 395.8 125.296C399.575 130.321 403.345 134.771 407.109 138.647C410.873 142.522 413.136 145.376 413.9 147.209C414.663 149.042 414.926 150.419 414.687 151.34C414.448 152.262 415.721 155.355 418.505 160.618C419.898 163.25 421.29 165.882 422.683 168.513C422.76 163.915 422.837 159.316 422.915 154.717C423.069 145.52 423.634 139.997 424.608 138.149C425.583 136.302 427.062 135.254 429.045 135.007C431.029 134.76 432.522 135.092 433.525 136.002C434.527 136.913 434.675 139.211 433.967 142.896C433.26 146.58 432.916 149.342 432.934 151.181C432.944 152.101 432.953 153.02 432.962 153.94C433.211 153.938 433.459 153.935 433.707 153.933C434.204 153.929 437.141 149.765 442.518 141.442C447.896 133.118 451.324 128.375 452.802 127.213C454.28 126.05 456.26 125.458 458.743 125.437C461.225 125.415 462.717 125.632 463.218 126.087C463.72 126.543 463.859 128.036 463.637 130.567C463.414 133.098 462.197 135.522 459.986 137.841C457.775 140.159 456.674 141.778 456.684 142.697C456.693 143.617 455.598 145.811 453.399 149.278C451.2 152.746 450.231 155.168 450.493 156.546C450.624 157.234 450.756 157.923 450.887 158.611C451.377 158.032 451.868 157.453 452.359 156.874C453.34 155.716 455.069 154.781 457.544 154.07C460.02 153.359 461.244 151.624 461.216 148.865C461.188 146.107 463.511 142.638 468.186 138.459C472.861 134.28 476.543 130.109 479.232 125.948C481.921 121.786 483.617 117.748 484.322 113.833C485.027 109.919 484.88 107.621 483.88 106.94C482.88 106.259 482.375 105.459 482.366 104.539C482.356 103.62 482.847 103.041 483.838 102.802C484.828 102.564 485.701 102.901 486.455 103.814C486.832 104.271 487.209 104.727 487.586 105.184C488.077 104.605 488.568 104.025 489.058 103.446C490.04 102.288 491.138 100.44 492.354 97.9C493.569 95.3605 494.284 92.3655 494.497 88.9151C494.71 85.4647 493.324 83.4077 490.337 82.7441C487.351 82.0804 484.997 82.5608 483.276 84.1851C482.415 84.9973 481.554 85.8094 480.694 86.6216C480.566 86.2779 480.438 85.9341 480.311 85.5904C480.055 84.9029 480.543 83.979 481.772 82.8188C483.002 81.6586 483.613 80.7336 483.606 80.044C483.599 79.3543 482.844 78.3264 481.34 76.9601C479.836 75.5938 479.074 73.8762 479.053 71.8072C479.032 69.7383 479.755 67.5479 481.221 65.2361C482.687 62.9243 479.92 59.3849 472.919 54.6181C465.919 49.8512 460.429 47.1403 456.449 46.4853C452.47 45.8303 449.233 44.939 446.739 43.8112C444.244 42.6835 442.37 41.4354 441.114 40.0669C439.859 38.6985 438.61 38.0196 437.369 38.0305C436.128 38.0413 434.144 38.2885 431.418 38.7721C428.691 39.2557 426.093 40.0831 423.622 41.2541C421.151 42.4252 417.08 44.9897 411.41 48.9475C405.74 52.9053 402.538 55.4622 401.805 56.6181C401.072 57.774 400.593 59.5024 400.368 61.8034C400.143 64.1044 398.919 65.8394 396.696 67.0083C395.585 67.5927 394.474 68.1772 393.362 68.7616C394.485 69.3266 395.608 69.8915 396.732 70.4565C398.978 71.5864 400.114 73.4157 400.139 75.9444C400.165 78.4731 398.947 80.7828 396.485 82.8734C394.024 84.964 390.931 86.0255 387.207 86.058C383.483 86.0905 381.511 87.4872 381.291 90.2479C381.071 93.0087 381.475 96.1088 382.503 99.5484Z" fill="#f3d5c4" fill-rule="evenodd" opacity="1" stroke="#f3d5c4" stroke-linecap="round" stroke-linejoin="round" stroke-width="1"/>
<path d="M385.124 64.3504C387.126 65.9423 389.245 66.7284 391.479 66.7089C393.714 66.6894 395.447 66.2145 396.679 65.2842C397.911 64.3538 398.516 62.8541 398.495 60.7852C398.474 58.7163 397.466 57.2307 395.47 56.3285C393.475 55.4263 391.732 54.9817 390.243 54.9947C388.753 55.0077 387.641 55.4772 386.905 56.4033C386.537 56.8663 386.17 57.3293 385.802 57.7923C385.551 57.5646 385.301 57.3369 385.05 57.1092C384.549 56.6537 383.927 56.5442 383.185 56.7806C382.442 57.017 382.079 57.9397 382.096 59.5489C382.112 61.1581 383.121 62.7586 385.124 64.3504Z" fill="#ffffff" fill-rule="evenodd" opacity="1" stroke="#ffffff" stroke-linecap="round" stroke-linejoin="round" stroke-width="1"/>
<path d="M388.735 455.728C389.986 456.636 392.349 457.076 395.825 457.045C399.301 457.015 404.877 456.047 412.555 454.141C420.232 452.234 424.81 450.7 426.288 449.538C427.766 448.375 428.856 445.722 429.559 441.577C430.261 437.433 430.637 425.59 430.687 406.048C430.736 386.505 431.249 375.925 432.226 374.308C433.203 372.69 435.052 371.409 437.773 370.466C440.495 369.522 442.601 369.044 444.09 369.031C445.58 369.018 447.075 369.58 448.577 370.716C450.078 371.853 452.093 374.709 454.623 379.285C457.152 383.861 459.697 389.931 462.257 397.496C464.817 405.06 467.032 415.386 468.903 428.474C470.775 441.563 472.459 448.445 473.955 449.122C475.452 449.798 477.689 450.009 480.665 449.753C483.642 449.497 489.34 448.183 497.757 445.81C506.175 443.438 511.371 441.668 513.345 440.501C515.32 439.335 516.294 437.487 516.268 434.958C516.243 432.429 515.347 429.793 513.581 427.05C511.815 424.307 510.685 423.052 510.191 423.286C509.696 423.52 508.853 426.057 507.661 430.895C506.469 435.733 505.376 438.157 504.383 438.166C503.887 438.17 503.39 438.174 502.894 438.179C503.011 437.488 503.128 436.797 503.245 436.106C503.479 434.725 502.582 431.974 500.554 427.853C498.526 423.733 497.376 420.524 497.104 418.228C496.832 415.931 496.065 413.754 494.803 411.695C493.541 409.637 492.774 407.46 492.502 405.163C492.23 402.867 490.309 397.021 486.737 387.626C483.165 378.231 480.337 368.715 478.253 359.077C476.168 349.44 474.23 341.985 472.439 336.713C471.543 334.076 470.647 331.44 469.751 328.804C469.388 329.727 469.025 330.65 468.662 331.573C467.936 333.418 466.958 334.921 465.728 336.081C464.499 337.242 463.036 339.898 461.34 344.051C459.645 348.204 458.424 350.284 457.679 350.291C456.935 350.297 455.184 349.048 452.427 346.543C449.671 344.038 448.038 342.213 447.53 341.068C447.022 339.923 446.269 339.125 445.271 338.674C444.273 338.223 442.796 339.5 440.841 342.506C438.885 345.512 437.79 347.705 437.556 349.087C437.322 350.468 436.59 351.739 435.36 352.899C434.745 353.479 434.13 354.06 433.516 354.64C430.759 352.135 428.002 349.63 425.245 347.125C422.489 344.62 419.732 342.115 416.975 339.611C416.755 342.371 416.535 345.132 416.315 347.893C415.875 353.414 414.705 360.437 412.805 368.959C410.905 377.482 408.82 392.099 406.548 412.81C404.275 433.522 402.52 443.997 401.281 444.238C400.661 444.358 400.042 444.479 399.422 444.599C399.418 444.139 399.413 443.68 399.408 443.22C399.399 442.3 398.012 440.243 395.249 437.049C393.867 435.452 392.485 433.854 391.103 432.257C390.396 435.942 389.689 439.626 388.981 443.311C387.566 450.68 387.484 454.819 388.735 455.728Z" fill="#6a6865" fill-rule="evenodd" opacity="1" stroke="#c2bbbb" stroke-linecap="round" stroke-linejoin="round" stroke-width="1"/>
<path d="M395.073 53.918C398.313 55.0392 400.545 54.7899 401.77 53.1699C402.995 51.5498 405.579 49.3432 409.523 46.55C413.468 43.7567 417.416 41.4232 421.37 39.5495C425.324 37.6758 429.037 36.6088 432.51 36.3486C435.984 36.0884 437.71 34.9238 437.689 32.8549C437.668 30.7859 438.02 28.8287 438.746 26.9831C439.109 26.0604 439.473 25.1376 439.836 24.2148C438.346 24.2278 436.856 24.2408 435.367 24.2538C432.388 24.2798 426.694 25.9388 418.285 29.2308C409.877 32.5228 403.336 36.2584 398.661 40.4374C393.986 44.6164 391.409 47.6277 390.931 49.471C390.454 51.3144 391.834 52.7968 395.073 53.918Z" fill="#ffffff" fill-rule="evenodd" opacity="1" stroke="#ffffff" stroke-linecap="round" stroke-linejoin="round" stroke-width="1"/>
<path d="M401.532 103.323C403.017 102.85 404.05 106.487 408.325 111.738C412.599 116.988 417.48 120.854 422.968 123.335C428.455 125.816 433.433 127.037 437.902 126.998C442.371 126.959 446.833 126.23 451.288 124.812C455.742 123.394 459.08 121.985 461.3 120.587C463.521 119.188 466.227 116.75 469.419 113.274C472.612 109.797 474.742 106.143 475.986 106.362C476.607 106.471 476.597 108.609 477.219 108.718C477.088 108.03 476.845 107.529 476.713 106.84C476.451 105.463 476.107 105.009 474.854 103.87C473.6 102.732 472.383 101.966 470.149 101.986C469.031 101.996 467.814 102.119 466.696 102.129C466.701 102.589 466.699 102.147 466.704 102.607C466.708 103.067 466.866 102.236 466.485 103.512C467.354 103.504 468.889 102.793 469.758 102.786C471.496 102.77 472.563 103.172 473.067 103.858C473.319 104.2 474.284 105.067 474.536 105.41C474.164 105.413 475.655 105.528 475.282 105.531C474.537 105.537 470.853 109.643 467.909 113.117C464.965 116.592 460.35 119.412 455.902 121.52C451.454 123.628 446.701 124.768 441.989 125.269C437.276 125.77 432.176 124.727 427.443 123.159C422.709 121.591 418.363 119.585 415.608 117.31C412.854 115.035 409.717 111.64 407.201 108.443C404.686 105.246 403.739 103.255 403.981 102.564C404.222 101.872 406.849 100.945 409.33 100.694C410.57 100.568 411.81 100.442 413.05 100.316C412.922 99.9726 412.795 99.6289 412.667 99.2851C412.412 98.5977 411.635 99.4692 409.894 99.2545C408.154 99.0398 405.714 99.9939 402.916 101.253C400.286 102.437 399.593 102.516 399.108 103.669C398.866 104.246 397.701 104.704 397.458 105.28C398.201 105.044 400.79 103.559 401.532 103.323Z" fill="#000000" fill-rule="evenodd" opacity="1" stroke="#000000" stroke-linecap="round" stroke-linejoin="round" stroke-width="1"/>
<path d="M406.606 162.446C408.386 166.569 409.683 171.96 410.495 178.62C411.308 185.281 413.09 189.633 415.842 191.678C417.218 192.701 418.594 193.723 419.97 194.746C420.454 193.477 420.937 192.208 421.421 190.94C422.388 188.402 422.723 184.721 422.426 179.896C422.129 175.07 421.355 172.203 420.104 171.295C418.853 170.386 418.347 169.471 418.586 168.549C418.825 167.627 418.056 165.22 416.278 161.327C414.5 157.434 411.994 155.157 408.76 154.496C407.143 154.165 405.525 153.834 403.908 153.504C403.913 153.963 403.918 154.423 403.922 154.883C403.932 155.802 404.826 158.324 406.606 162.446Z" fill="#7c9ab6" fill-rule="evenodd" opacity="1" stroke="#8bb2d6" stroke-linecap="round" stroke-linejoin="round" stroke-width="1"/>
<path d="M417.036 272.364C419.02 272.116 420.001 270.958 419.98 268.889C419.969 267.855 419.959 266.82 419.948 265.786C418.967 266.944 417.986 268.102 417.004 269.26C416.023 270.418 415.042 271.576 414.06 272.734C415.052 272.611 416.044 272.487 417.036 272.364Z" fill="#ffffff" fill-rule="evenodd" opacity="1" stroke="#ffffff" stroke-linecap="round" stroke-linejoin="round" stroke-width="1"/>
<path d="M413.435 59.7427C413.968 59.7381 415.199 58.7213 417.13 56.6923C419.06 54.6633 421.353 53.3276 424.008 52.6854C426.662 52.0431 428.072 51.1795 428.239 50.0946C428.405 49.0096 428.042 48.2389 427.151 47.7824C426.705 47.5541 426.259 47.3258 425.813 47.0975C425.727 47.3304 425.641 47.5634 425.554 47.7963C425.382 48.2621 424.676 48.6552 423.438 48.9756C422.199 49.296 420.61 50.0837 418.672 51.3389C416.733 52.5941 415.239 53.9227 414.189 55.3249C413.139 56.7271 412.617 57.8151 412.625 58.5889C412.629 58.9759 412.633 59.3628 412.637 59.7497C412.903 59.7474 413.169 59.745 413.435 59.7427Z" fill="#000000" fill-rule="evenodd" opacity="1" stroke="#000000" stroke-linecap="round" stroke-linejoin="round" stroke-width="1"/>
<path d="M425.203 342.987C430.216 347.542 433.093 349.701 433.835 349.464C434.578 349.228 436.288 346.454 438.965 341.143C441.642 335.832 443.477 333.172 444.47 333.163C445.463 333.155 446.215 333.838 446.725 335.213C447.236 336.588 448.996 338.756 452.006 341.719C455.015 344.681 456.891 346.044 457.634 345.808C458.376 345.572 460.203 342.107 463.115 335.414C466.026 328.722 466.307 319.753 463.958 308.509C461.609 297.264 460.42 290.262 460.392 287.504C460.378 286.124 460.364 284.745 460.35 283.366C453.782 284.458 447.213 285.549 440.645 286.641C427.507 288.825 420.476 293.255 419.551 299.93C418.626 306.605 418.084 314.312 417.924 323.049C417.765 331.787 420.191 338.433 425.203 342.987Z" fill="#4f6b86" fill-rule="evenodd" opacity="1" stroke="#7c9ab6" stroke-linecap="round" stroke-linejoin="round" stroke-width="1"/>
<path d="M423.643 79.8776C429.35 79.5978 432.201 79.1132 432.194 78.4235C432.187 77.7339 431.809 77.1624 431.059 76.7092C430.31 76.2559 429.786 73.6166 429.489 68.7912C429.34 66.3785 429.191 63.9659 429.043 61.5532C428.299 61.6746 427.555 61.7961 426.812 61.9175C425.324 62.1604 423.72 63.094 421.999 64.7183C420.277 66.3427 418.694 69.3452 417.249 73.726C416.526 75.9164 415.803 78.1067 415.081 80.2971C417.935 80.1573 420.789 80.0174 423.643 79.8776Z" fill="#000000" fill-rule="evenodd" opacity="1" stroke="#000000" stroke-linecap="round" stroke-linejoin="round" stroke-width="1"/>
<path d="M419.894 77.4963C421.135 77.4855 421.994 76.4434 422.469 74.3701C422.707 73.3335 422.945 72.2969 423.182 71.2602C423.556 71.3719 423.93 71.4836 424.303 71.5953C425.05 71.8187 425.557 72.8488 425.824 74.6857C426.091 76.5226 426.473 77.4389 426.97 77.4345C427.218 77.4324 427.466 77.4302 427.714 77.428C427.569 75.3602 427.424 73.2923 427.279 71.2245C426.988 67.0888 426.471 65.0242 425.726 65.0307C424.981 65.0372 423.749 65.9675 422.03 67.8217C420.311 69.676 419.215 71.7547 418.742 74.0578C418.505 75.2094 418.269 76.361 418.032 77.5125C418.653 77.5071 419.273 77.5017 419.894 77.4963Z" fill="#ffffff" fill-rule="evenodd" opacity="1" stroke="#ffffff" stroke-linecap="round" stroke-linejoin="round" stroke-width="1"/>
<path d="M426.715 271.934C429.694 271.908 432.543 271.309 435.262 270.135C437.982 268.962 441.928 266.399 447.102 262.445C452.276 258.492 453.174 249.173 449.797 234.489C448.108 227.146 446.42 219.804 444.731 212.462C444.484 212.579 444.237 212.696 443.99 212.813C443.496 213.048 442.045 216.854 439.637 224.232C437.229 231.61 435.777 235.301 435.28 235.305C434.784 235.309 433.936 237.386 432.737 241.535C431.537 245.683 429.595 249.953 426.908 254.345C424.222 258.737 422.773 262.773 422.562 266.453C422.457 268.293 422.351 270.133 422.246 271.973C423.736 271.96 425.225 271.947 426.715 271.934Z" fill="#4f6b86" fill-rule="evenodd" opacity="1" stroke="#7c9ab6" stroke-linecap="round" stroke-linejoin="round" stroke-width="1"/>
<path d="M423.112 100.918C424.367 102.287 426.243 103.65 428.74 105.007C431.237 106.365 433.482 107.38 435.475 108.052C437.468 108.725 439.954 109.048 442.933 109.022C445.913 108.996 448.509 107.939 450.722 105.85C452.936 103.762 454.401 101.335 455.117 98.5698C455.834 95.8047 455.321 94.1999 453.579 93.7553C451.836 93.3107 449.965 92.4074 447.964 91.0455C445.964 89.6835 442.853 88.906 438.63 88.713C434.407 88.5199 430.69 89.2421 427.479 90.8794C424.268 92.5167 422.423 94.2571 421.946 96.1005C421.468 97.9439 421.857 99.5498 423.112 100.918Z" fill="#000000" fill-rule="evenodd" opacity="1" stroke="#000000" stroke-linecap="round" stroke-linejoin="round" stroke-width="1"/>
<path d="M429.047 318.124C430.79 318.569 432.029 318.328 432.764 317.402C433.5 316.476 433.605 314.636 433.08 311.882C432.556 309.127 431.669 307.411 430.421 306.732C429.173 306.053 428.179 306.062 427.442 306.758C426.704 307.454 426.351 309.411 426.384 312.63C426.417 315.848 427.305 317.68 429.047 318.124Z" fill="#000000" fill-rule="evenodd" opacity="1" stroke="#000000" stroke-linecap="round" stroke-linejoin="round" stroke-width="1"/>
<path d="M429.522 103.071C434.111 105.819 438.118 107.318 441.542 107.567C444.966 107.816 447.526 107.236 449.222 105.827C450.918 104.418 452.325 102.593 453.443 100.352C454.56 98.1117 452.968 95.7554 448.667 93.2832C444.365 90.811 440.504 89.5899 437.083 89.6197C433.662 89.6496 430.674 90.2333 428.12 91.3711C425.565 92.5088 424.013 94.056 423.463 96.0128C422.913 97.9696 424.932 100.322 429.522 103.071Z" fill="#f3c6ad" fill-rule="evenodd" opacity="1" stroke="#f3c6ad" stroke-linecap="round" stroke-linejoin="round" stroke-width="1"/>
<path d="M429.774 316.394C430.148 316.505 430.521 316.617 430.895 316.729C430.759 315.58 430.623 314.432 430.488 313.284C430.216 310.987 429.832 309.841 429.335 309.845C429.087 309.847 428.839 309.85 428.59 309.852C428.601 310.886 428.612 311.921 428.622 312.955C428.643 315.024 429.027 316.17 429.774 316.394Z" fill="#ffd165" fill-rule="evenodd" opacity="1" stroke="#ffd165" stroke-linecap="round" stroke-linejoin="round" stroke-width="1"/>
<path d="M443.703 38.3201C446.207 40.3673 450.571 42.1685 456.794 43.7235C463.017 45.2785 467.127 46.622 469.125 47.7541C471.123 48.8862 473.251 50.5919 475.508 52.8712C476.637 54.0109 477.766 55.1505 478.895 56.2902C478.763 55.4867 478.63 54.6832 478.498 53.8797C478.234 52.2727 478.591 50.7752 479.57 49.3872C480.549 47.9993 482.9 47.289 486.624 47.2565C488.486 47.2403 490.348 47.224 492.21 47.2078C491.453 45.9499 490.695 44.6921 489.937 43.4342C488.422 40.9185 486.412 38.637 483.909 36.5898C481.405 34.5425 477.157 31.9357 471.166 28.7693C465.175 25.603 459.321 23.6999 453.604 23.0601C447.887 22.4203 444.293 23.0264 442.822 24.8785C441.351 26.7305 440.504 28.922 440.282 31.4528C440.059 33.9837 441.2 36.2728 443.703 38.3201Z" fill="#ffffff" fill-rule="evenodd" opacity="1" stroke="#ffffff" stroke-linecap="round" stroke-linejoin="round" stroke-width="1"/>
<path d="M444.663 315.574C445.42 316.717 446.665 317.051 448.398 316.576C450.131 316.101 450.982 314.369 450.952 311.381C450.922 308.392 450.529 306.442 449.775 305.529C449.021 304.616 447.9 304.281 446.413 304.523C444.926 304.766 444.073 306.383 443.855 309.374C443.638 312.364 443.907 314.431 444.663 315.574Z" fill="#000000" fill-rule="evenodd" opacity="1" stroke="#000000" stroke-linecap="round" stroke-linejoin="round" stroke-width="1"/>
<path d="M446.132 313.492C446.26 313.836 446.387 314.18 446.515 314.523C447.009 314.289 447.503 314.055 447.997 313.821C448.986 313.352 449.221 312.086 448.704 310.021C448.445 308.989 448.186 307.956 447.927 306.924C447.557 307.157 447.187 307.39 446.817 307.624C446.077 308.09 445.714 309.013 445.728 310.392C445.742 311.771 445.877 312.805 446.132 313.492Z" fill="#ffd165" fill-rule="evenodd" opacity="1" stroke="#ffd165" stroke-linecap="round" stroke-linejoin="round" stroke-width="1"/>
<path d="M450.45 225.517C453.326 239.746 455.273 248.005 456.289 250.295C457.306 252.585 458.186 253.727 458.931 253.721C459.676 253.714 462.025 252.774 465.979 250.9C467.955 249.963 469.932 249.027 471.909 248.09C471.15 246.717 470.391 245.344 469.632 243.971C468.115 241.226 466.959 237.443 466.165 232.621C465.371 227.8 464.084 223.329 462.304 219.206C461.414 217.145 460.524 215.083 459.634 213.022C460.257 213.246 460.88 213.471 461.503 213.695C462.749 214.144 464.398 217.578 466.45 223.998C468.501 230.417 471.265 233.612 474.741 233.581C478.216 233.551 481.679 232.256 485.129 229.697C488.579 227.138 491.034 224.358 492.493 221.356C493.952 218.355 494.792 215.474 495.012 212.713C495.232 209.952 494.332 206.857 492.311 203.426C490.289 199.995 487.523 196.57 484.013 193.152C480.502 189.735 477.373 187.233 474.625 185.648C471.878 184.062 469.262 183.165 466.777 182.957C464.292 182.749 462.923 182.416 462.67 181.958C462.417 181.501 462.042 181.274 461.546 181.279C461.049 181.283 458.473 184.294 453.816 190.312C449.16 196.33 446.716 200.145 446.484 201.756C446.252 203.368 447.574 211.288 450.45 225.517Z" fill="#7c9ab6" fill-rule="evenodd" opacity="1" stroke="#8bb2d6" stroke-linecap="round" stroke-linejoin="round" stroke-width="1"/>
<path d="M458.5 54.5352C463.991 55.0778 467.197 55.6994 468.118 56.4C468.579 56.7502 469.039 57.1005 469.5 57.4508C470.108 57.3274 470.716 57.204 471.325 57.0806C472.541 56.8338 472.534 56.1252 471.303 54.955C470.072 53.7847 467.776 52.7418 464.415 51.8263C461.053 50.9109 457.849 50.4664 454.802 50.493C453.279 50.5063 451.755 50.5196 450.232 50.5329C450.237 51.0643 450.242 51.5957 450.248 52.1271C450.259 53.1899 453.009 53.9926 458.5 54.5352Z" fill="#000000" fill-rule="evenodd" opacity="1" stroke="#000000" stroke-linecap="round" stroke-linejoin="round" stroke-width="1"/>
<path d="M461.704 160.241C462.948 160.46 463.581 161.719 463.605 164.018C463.628 166.317 463.889 167.579 464.388 167.805C464.637 167.917 464.887 168.03 465.136 168.143C465.734 165.839 466.331 163.534 466.928 161.23C467.525 158.926 468.123 156.622 468.72 154.317C467.48 154.443 466.24 154.569 464.999 154.695C462.519 154.946 461.039 155.879 460.559 157.492C460.319 158.299 460.079 159.106 459.838 159.913C460.46 160.022 461.082 160.132 461.704 160.241Z" fill="#7c9ab6" fill-rule="evenodd" opacity="1" stroke="#8bb2d6" stroke-linecap="round" stroke-linejoin="round" stroke-width="1"/>
<path d="M466.164 305.73C467.989 314.221 470.306 322.362 473.117 330.154C475.927 337.947 478.888 348.266 481.998 361.114C485.108 373.961 487.297 381.644 488.564 384.162C489.831 386.679 491.494 391.493 493.552 398.602C495.611 405.711 497.017 409.722 497.772 410.635C498.526 411.548 499.295 413.955 500.08 417.857C500.864 421.758 501.762 424.624 502.774 426.455C503.786 428.285 504.54 429.198 505.037 429.194C505.533 429.189 507.585 423.424 511.192 411.897C514.799 400.371 513.277 384.981 506.625 365.727C499.974 346.473 494.187 326.752 489.264 306.563C484.341 286.375 481.503 275.939 480.751 275.256C480 274.573 478.266 275.048 475.552 276.681C472.837 278.314 470.242 279.486 467.767 280.197C465.291 280.909 463.949 283.219 463.74 287.13C463.532 291.04 464.34 297.24 466.164 305.73Z" fill="#7c9ab6" fill-rule="evenodd" opacity="1" stroke="#8bb2d6" stroke-linecap="round" stroke-linejoin="round" stroke-width="1"/>
<path d="M471.846 241.883C473.368 245.088 475.366 246.22 477.839 245.279C480.313 244.338 481.412 242.604 481.138 240.078C480.864 237.551 478.866 236.419 475.145 236.681C473.284 236.813 471.423 236.944 469.562 237.075C470.323 238.678 471.085 240.28 471.846 241.883Z" fill="#ffffff" fill-rule="evenodd" opacity="1" stroke="#ffffff" stroke-linecap="round" stroke-linejoin="round" stroke-width="1"/>
<path d="M486.134 555.694C489.554 555.284 491.247 553.461 491.214 550.227C491.182 546.993 491.39 545.088 491.841 544.513C492.292 543.939 494.115 543.637 497.31 543.609C500.505 543.582 502.222 544.042 502.46 544.992C502.697 545.941 503.392 546.886 504.543 547.827C505.693 548.769 507.415 549.705 509.707 550.636C511.999 551.568 513.147 552.224 513.151 552.604C513.155 552.985 514.53 553.543 517.276 554.281C520.023 555.018 529.611 555.219 546.042 554.886C562.472 554.552 571.712 554.091 573.76 553.502C575.808 552.914 577.74 552.041 579.554 550.883C581.368 549.726 583.741 547.422 586.673 543.971C589.605 540.521 591.29 537.842 591.727 535.936C592.164 534.029 591.924 532.89 591.008 532.517C590.091 532.145 588.149 531.971 585.182 531.997C582.215 532.023 580.391 532.229 579.71 532.616C579.029 533.002 576.634 533.118 572.524 532.964C568.414 532.81 564.297 531.989 560.173 530.503C556.05 529.017 553.413 527.803 552.262 526.862C551.111 525.921 547.677 524.904 541.959 523.812C536.242 522.721 531.906 522.758 528.95 523.926C525.995 525.093 523.838 526.254 522.481 527.407C521.123 528.561 517.939 529.73 512.93 530.915C507.92 532.101 504.276 532.798 501.995 533.009C499.715 533.219 496.401 532.772 492.053 531.668C487.705 530.565 485.192 530.396 484.515 531.163C483.838 531.93 483.175 534.029 482.525 537.46C481.875 540.89 481.46 544.889 481.278 549.457C481.187 551.741 481.096 554.026 481.005 556.31C482.715 556.104 484.425 555.899 486.134 555.694Z" fill="#573304" fill-rule="evenodd" opacity="1" stroke="#824c04" stroke-linecap="round" stroke-linejoin="round" stroke-width="1"/>
<path d="M484.01 485.588C485.665 501.897 486.388 511.891 486.177 515.572C485.966 519.252 487.731 521.88 491.471 523.457C495.212 525.034 498.199 525.812 500.433 525.793C502.668 525.773 506.262 525.167 511.216 523.975C513.692 523.378 516.169 522.782 518.646 522.185C517.279 522.082 515.913 521.979 514.546 521.876C511.813 521.67 509.188 519.969 506.673 516.772C504.158 513.576 502.242 508.305 500.926 500.959C499.609 493.614 498.634 483.162 497.999 469.603C497.682 462.824 497.365 456.044 497.048 449.265C494.447 449.862 491.846 450.46 489.245 451.057C484.043 452.252 481.456 454.229 481.484 456.988C481.512 459.746 482.354 469.28 484.01 485.588Z" fill="#ffffff" fill-rule="evenodd" opacity="1" stroke="#ffffff" stroke-linecap="round" stroke-linejoin="round" stroke-width="1"/>
<path d="M481.677 73.5086C481.935 74.4259 483.315 75.7933 485.816 77.6107C488.317 79.4281 490.561 80.3281 492.547 80.3108C494.533 80.2935 496.264 79.5887 497.74 78.1964C499.215 76.8041 499.817 74.9596 499.546 72.6629C499.274 70.3663 497.267 68.3147 493.524 66.5081C489.781 64.7016 487.045 64.1507 485.314 64.8555C483.583 65.5603 482.48 66.9494 482.004 69.0226C481.529 71.0959 481.42 72.5912 481.677 73.5086Z" fill="#ffffff" fill-rule="evenodd" opacity="1" stroke="#ffffff" stroke-linecap="round" stroke-linejoin="round" stroke-width="1"/>
<path d="M484.137 59.0033C486.142 60.825 488.136 61.6122 490.12 61.365C492.104 61.1178 493.587 60.5301 494.571 59.6019C495.555 58.6737 495.414 57.0656 494.15 54.7776C492.885 52.4897 491.506 51.2372 490.014 51.0203C488.523 50.8035 487.408 51.0431 486.67 51.7392C486.301 52.0873 485.932 52.4354 485.563 52.7835C485.556 52.0938 485.549 51.4042 485.542 50.7145C485.535 50.0249 485.528 49.3352 485.521 48.6456C484.779 48.882 484.036 49.1183 483.294 49.3547C481.809 49.8275 481.077 51.0983 481.098 53.1673C481.119 55.2362 482.132 57.1815 484.137 59.0033Z" fill="#ffffff" fill-rule="evenodd" opacity="1" stroke="#ffffff" stroke-linecap="round" stroke-linejoin="round" stroke-width="1"/>
<path d="M486.258 121.058C487.738 120.126 489.455 118.042 491.409 114.806C493.362 111.57 494.697 108.57 495.414 105.805C496.13 103.04 496.358 100.969 496.095 99.5916C495.964 98.9031 495.833 98.2145 495.702 97.5259C495.094 98.7957 494.486 100.065 493.879 101.335C492.663 103.875 491.438 105.495 490.204 106.195C488.969 106.896 488.121 108.972 487.66 112.425C487.199 115.877 486.48 118.413 485.503 120.03C485.014 120.839 484.526 121.648 484.038 122.457C484.778 121.991 485.518 121.525 486.258 121.058Z" fill="#ffffff" fill-rule="evenodd" opacity="1" stroke="#ffffff" stroke-linecap="round" stroke-linejoin="round" stroke-width="1"/>
<path d="M461.13 79.5333C456.227 79.3462 453.772 78.9078 453.765 78.2182C453.758 77.5286 454.071 76.9511 454.706 76.4857C455.341 76.0204 455.74 73.373 455.904 68.5436C455.986 66.1289 456.068 63.7142 456.15 61.2996C456.79 61.4089 457.431 61.5183 458.071 61.6276C459.352 61.8464 460.747 62.7538 462.255 64.35C463.763 65.9461 465.178 68.9225 466.501 73.2791C467.163 75.4574 467.824 77.6357 468.486 79.814C466.034 79.7204 463.582 79.6269 461.13 79.5333Z" fill="#000000" fill-rule="evenodd" opacity="1" stroke="#000000" stroke-linecap="round" stroke-linejoin="round" stroke-width="1"/>
<path d="M464.827 77.0256C463.5 77.0372 462.56 76.0108 462.008 73.9465C461.733 72.9144 461.457 71.8822 461.181 70.8501C460.784 70.9685 460.387 71.0869 459.99 71.2053C459.196 71.4421 458.676 72.4812 458.429 74.3226C458.182 76.164 457.794 77.087 457.263 77.0916C456.998 77.0939 456.732 77.0962 456.467 77.0986C456.578 75.0285 456.69 72.9584 456.802 70.8883C457.025 66.7481 457.535 64.6745 458.331 64.6676C459.127 64.6606 460.463 65.5686 462.34 67.3914C464.216 69.2142 465.432 71.2728 465.986 73.5669C466.263 74.714 466.54 75.8611 466.817 77.0082C466.154 77.014 465.49 77.0198 464.827 77.0256Z" fill="#ffffff" fill-rule="evenodd" opacity="1" stroke="#ffffff" stroke-linecap="round" stroke-linejoin="round" stroke-width="1"/>
<path d="M422.971 78.4396C424.111 78.8808 421.952 73.6152 424.258 73.4572C424.712 73.4262 424.073 74.2838 423.929 74.6831C423.803 75.0304 423.17 77.1487 423.616 77.5606C423.991 77.9068 425.419 75.0029 424.72 74.357C422.634 72.4299 421.624 77.9183 422.971 78.4396Z" fill="#040404" fill-rule="evenodd" opacity="1" stroke="#040404" stroke-linecap="round" stroke-linejoin="round" stroke-width="1"/>
<path d="M462.006 77.1659C461.315 77.0975 459.44 74.9947 460.561 73.9005C461.727 72.7634 463.674 76.2708 463.953 76.541C464.395 76.9684 464.135 78.8997 464.129 78.3082C464.112 76.6417 462.632 70.196 460.231 72.4611C458.163 74.4123 465.887 77.5501 462.006 77.1659Z" fill="#040404" fill-rule="evenodd" opacity="1" stroke="#040404" stroke-linecap="round" stroke-linejoin="round" stroke-width="1"/>
<path d="M421.998 77.5479C418.886 79.3822 423.69 73.8202 424.782 74.7804C425.068 75.0315 423.939 79.9267 425.783 78.9523C426.982 78.3184 425.802 74.5537 424.92 74.119C423.229 73.2849 422.915 77.0073 421.998 77.5479Z" fill="#040404" fill-rule="evenodd" opacity="1" stroke="#040404" stroke-linecap="round" stroke-linejoin="round" stroke-width="1"/>
</g>
</svg>
