<?xml version="1.0" encoding="UTF-8" standalone="no"?>
<!DOCTYPE svg PUBLIC "-//W3C//DTD SVG 1.1//EN" "http://www.w3.org/Graphics/SVG/1.1/DTD/svg11.dtd"
[
<!ATTLIST g
  xmlns:vectornator CDATA #FIXED "http://vectornator.io"
  vectornator:layerName CDATA #IMPLIED >
<!ATTLIST g
  xmlns:vectornator CDATA #FIXED "http://vectornator.io"
  vectornator:mask CDATA #IMPLIED >
<!ATTLIST text
  xmlns:vectornator CDATA #FIXED "http://vectornator.io"
  vectornator:width CDATA #IMPLIED >
<!ATTLIST text
  xmlns:vectornator CDATA #FIXED "http://vectornator.io"
  vectornator:text CDATA #IMPLIED >

<!ATTLIST path
  xmlns:vectornator CDATA #FIXED "http://vectornator.io"
  vectornator:blendMode CDATA #IMPLIED >
<!ATTLIST path
  xmlns:vectornator CDATA #FIXED "http://vectornator.io"
  vectornator:shadowColor CDATA #IMPLIED >
<!ATTLIST path
  xmlns:vectornator CDATA #FIXED "http://vectornator.io"
  vectornator:shadowOpacity CDATA #IMPLIED >
<!ATTLIST path
  xmlns:vectornator CDATA #FIXED "http://vectornator.io"
  vectornator:shadowRadius CDATA #IMPLIED >
<!ATTLIST path
  xmlns:vectornator CDATA #FIXED "http://vectornator.io"
  vectornator:shadowOffset CDATA #IMPLIED >
<!ATTLIST path
  xmlns:vectornator CDATA #FIXED "http://vectornator.io"
  vectornator:shadowAngle CDATA #IMPLIED >

<!ATTLIST image
  xmlns:vectornator CDATA #FIXED "http://vectornator.io"
  vectornator:blendMode CDATA #IMPLIED >
<!ATTLIST image
  xmlns:vectornator CDATA #FIXED "http://vectornator.io"
  vectornator:shadowColor CDATA #IMPLIED >
<!ATTLIST image
  xmlns:vectornator CDATA #FIXED "http://vectornator.io"
  vectornator:shadowOpacity CDATA #IMPLIED >
<!ATTLIST image
  xmlns:vectornator CDATA #FIXED "http://vectornator.io"
  vectornator:shadowRadius CDATA #IMPLIED >
<!ATTLIST image
  xmlns:vectornator CDATA #FIXED "http://vectornator.io"
  vectornator:shadowOffset CDATA #IMPLIED >
<!ATTLIST image
  xmlns:vectornator CDATA #FIXED "http://vectornator.io"
  vectornator:shadowAngle CDATA #IMPLIED >

<!ATTLIST g
  xmlns:vectornator CDATA #FIXED "http://vectornator.io"
  vectornator:blendMode CDATA #IMPLIED >
<!ATTLIST g
  xmlns:vectornator CDATA #FIXED "http://vectornator.io"
  vectornator:shadowColor CDATA #IMPLIED >
<!ATTLIST g
  xmlns:vectornator CDATA #FIXED "http://vectornator.io"
  vectornator:shadowOpacity CDATA #IMPLIED >
<!ATTLIST g
  xmlns:vectornator CDATA #FIXED "http://vectornator.io"
  vectornator:shadowRadius CDATA #IMPLIED >
<!ATTLIST g
  xmlns:vectornator CDATA #FIXED "http://vectornator.io"
  vectornator:shadowOffset CDATA #IMPLIED >
<!ATTLIST g
  xmlns:vectornator CDATA #FIXED "http://vectornator.io"
  vectornator:shadowAngle CDATA #IMPLIED >

<!ENTITY % SVG.filter.extra.content  "| feDropShadow" >
<!ELEMENT feDropShadow EMPTY>
<!ATTLIST feDropShadow
  xmlns:svg CDATA #FIXED "http://www.w3.org/Graphics/SVG/1.1/DTD/svg11.dtd"
  dx CDATA #IMPLIED>
<!ATTLIST feDropShadow
  xmlns:svg CDATA #FIXED "http://www.w3.org/Graphics/SVG/1.1/DTD/svg11.dtd"
  dy CDATA #IMPLIED>
<!ATTLIST feDropShadow
  xmlns:svg CDATA #FIXED "http://www.w3.org/Graphics/SVG/1.1/DTD/svg11.dtd"
  stdDeviation CDATA #IMPLIED>
<!ATTLIST feDropShadow
  xmlns:svg CDATA #FIXED "http://www.w3.org/Graphics/SVG/1.1/DTD/svg11.dtd"
  flood-opacity CDATA #IMPLIED>
<!ATTLIST feDropShadow
  xmlns:svg CDATA #FIXED "http://www.w3.org/Graphics/SVG/1.1/DTD/svg11.dtd"
  in CDATA #IMPLIED>
<!ATTLIST feDropShadow
  xmlns:svg CDATA #FIXED "http://www.w3.org/Graphics/SVG/1.1/DTD/svg11.dtd"
  result CDATA #IMPLIED>
<!ATTLIST feDropShadow
  xmlns:svg CDATA #FIXED "http://www.w3.org/Graphics/SVG/1.1/DTD/svg11.dtd"
  flood-color CDATA #IMPLIED>
]
>
<!-- Created with Vectornator (http://vectornator.io/) -->
<svg height="100%" stroke-miterlimit="10" style="fill-rule:nonzero;clip-rule:evenodd;stroke-linecap:round;stroke-linejoin:round;" version="1.1" viewBox="0 0 841.995 595.35" width="100%" xml:space="preserve" xmlns="http://www.w3.org/2000/svg" xmlns:vectornator="http://vectornator.io" xmlns:xlink="http://www.w3.org/1999/xlink">
<defs/>
<g id="Ebene-1" vectornator:layerName="Ebene 1">
<path d="M282.565 111.206C283.644 112.934 285.584 114.552 288.385 116.06C291.185 117.567 294.631 118.749 298.721 119.605C302.811 120.461 307.976 120.882 314.215 120.868C320.455 120.854 325.407 122.033 329.07 124.404C332.733 126.775 337.363 128.819 342.961 130.537C348.56 132.255 354.594 136.459 361.063 143.149C367.533 149.839 376.262 156.308 387.249 162.556C398.236 168.804 405.67 173.762 409.552 177.43C413.433 181.098 416.56 184.443 418.933 187.466C421.307 190.489 422.495 192.541 422.497 193.622C422.5 194.704 421.858 196.543 420.573 199.142C419.288 201.74 418.541 204.445 418.332 207.257C418.123 210.069 419.742 212.553 423.19 214.708C426.637 216.863 430.083 218.478 433.528 219.552C436.973 220.625 440.096 222.132 442.898 224.073C445.699 226.013 448.718 228.818 451.954 232.487C455.189 236.157 457.348 239.505 458.431 242.53C459.513 245.556 460.172 251.718 460.408 261.018C460.644 270.318 460.343 280.159 459.505 290.543C458.668 300.926 457.821 307.309 456.966 309.69C456.11 312.071 454.727 319.103 452.817 330.787C450.906 342.47 448.67 352.857 446.108 361.946C443.546 371.036 439.803 381.102 434.878 392.143C432.416 397.664 429.954 403.185 427.492 408.705C428.353 409.028 429.215 409.35 430.076 409.673C431.799 410.318 436.11 414.093 443.011 420.999C449.912 427.905 453.694 435.791 454.36 444.657C455.025 453.523 455.68 458.172 456.327 458.603C456.973 459.034 458.372 459.247 460.524 459.242C462.676 459.237 464.719 458.8 466.653 457.931C468.588 457.061 470.308 456.625 471.814 456.621C473.321 456.618 475.163 462.778 477.342 475.101C479.521 487.425 480.509 496.29 480.306 501.698C480.103 507.105 479.68 510.675 479.038 512.407C478.397 514.138 477.002 516.088 474.856 518.256C472.709 520.423 470.451 521.077 468.082 520.217C465.714 519.357 463.238 519.039 460.657 519.261C458.075 519.483 455.602 519.921 453.237 520.575C450.871 521.229 445.82 523.511 438.083 527.422C430.345 531.332 423.142 533.403 416.472 533.634C409.802 533.865 405.285 534.308 402.92 534.962C400.554 535.616 398.621 537.135 397.12 539.517C395.619 541.9 394.87 543.848 394.874 545.362C394.877 546.876 395.743 549.253 397.472 552.493C399.2 555.734 400.711 557.893 402.004 558.972C403.298 560.05 405.883 561.45 409.76 563.172C413.636 564.894 419.126 566.071 426.228 566.704C433.33 567.337 441.505 566.994 450.754 565.676C460.004 564.357 466.778 562.72 471.077 560.764C475.376 558.808 480.425 555.768 486.226 551.646C492.026 547.524 495.141 545.462 495.572 545.461C496.002 545.46 496.651 547.189 497.52 550.648C498.388 554.106 499.145 555.943 499.791 556.158C500.437 556.373 503.77 555.392 509.79 553.216C512.8 552.127 515.81 551.039 518.82 549.951C516.981 545.521 515.142 541.092 513.304 536.662C509.626 527.803 506.8 514.615 504.824 497.101C502.849 479.586 501.426 468.451 500.555 463.695C499.684 458.938 498.707 455.264 497.626 452.671C496.544 450.078 496.862 447.806 498.579 445.856C500.296 443.905 501.368 442.281 501.796 440.982C502.223 439.683 502.109 436.872 501.454 432.548C500.799 428.223 500.461 421.411 500.441 412.111C500.42 402.811 500.622 396.863 501.047 394.266C501.471 391.67 502.755 388.206 504.897 383.876C505.968 381.711 507.039 379.546 508.11 377.38C508.972 378.027 509.834 378.674 510.696 379.321C512.42 380.615 513.823 382.666 514.905 385.476C515.987 388.285 518.593 398.769 522.721 416.928C526.849 435.086 531.281 444.377 536.015 444.799C540.75 445.221 544.515 445.104 547.311 444.449C550.107 443.794 551.612 443.682 551.829 444.114C552.045 444.546 553.028 451.465 554.779 464.871C556.53 478.277 557.528 491.792 557.774 505.418C558.019 519.043 557.936 530.074 557.524 538.51C557.318 542.728 557.113 546.946 556.907 551.164C558.52 551.052 560.134 550.94 561.747 550.828C564.974 550.605 567.772 550.815 570.14 551.458C572.508 552.102 573.907 552.315 574.337 552.098C574.767 551.881 574.979 550.366 574.973 547.555C574.97 546.149 574.966 544.743 574.963 543.337C577.655 544.412 580.347 545.488 583.039 546.563C588.423 548.714 592.837 550.11 596.281 550.751C599.725 551.392 605.213 551.596 612.743 551.363C620.273 551.13 625.759 550.685 629.2 550.029C632.641 549.372 637.048 547.632 642.421 544.808C647.794 541.985 652.09 538.839 655.31 535.371C658.53 531.903 660.568 529.195 661.425 527.247C662.281 525.298 662.705 522.594 662.698 519.133C662.69 515.673 662.146 512.97 661.066 511.026C659.986 509.082 658.047 507.897 655.249 507.471C652.45 507.044 649.762 507.699 647.184 509.435C644.606 511.171 641.705 512.692 638.48 513.997C635.255 515.302 629.986 516.287 622.672 516.952C615.358 517.617 609.654 516.981 605.562 515.044C601.47 513.106 598.885 512.139 597.81 512.141C597.272 512.142 596.734 512.143 596.196 512.145C596.197 512.469 596.197 512.793 596.198 513.118C596.199 513.442 596.199 513.767 596.2 514.091C595.554 513.984 594.909 513.878 594.263 513.771C592.971 513.558 591.679 513.128 590.387 512.482C589.095 511.836 587.693 510.433 586.182 508.274C584.671 506.114 583.37 501.684 582.28 494.981C581.189 488.279 580.418 480.062 579.966 470.33C579.514 460.598 578.743 452.706 577.654 446.652C576.565 440.598 577.525 436.811 580.534 435.291C583.543 433.77 585.045 432.036 585.041 430.09C585.036 428.143 583.954 425.226 581.794 421.337C579.634 417.449 576.935 413.562 573.699 409.676C570.463 405.79 569.166 403.09 569.808 401.574C570.451 400.059 571.202 399.408 572.063 399.623C572.494 399.73 572.924 399.837 573.355 399.944C573.354 399.404 573.353 398.863 573.351 398.322C573.349 397.241 570.971 392.055 566.217 382.766C561.462 373.476 556.813 362.997 552.269 351.327C547.724 339.658 541.985 322.693 535.05 300.431C528.116 278.169 523.885 262.39 522.358 253.093C520.832 243.796 523.829 236.869 531.349 232.31C538.87 227.751 544.458 224.711 548.112 223.188C551.767 221.666 554.132 220.904 555.208 220.902C556.283 220.899 557.036 220.681 557.465 220.248C557.895 219.814 557.89 217.651 557.451 213.759C557.012 209.867 557.223 207.812 558.083 207.594C558.943 207.375 559.802 206.4 560.658 204.668C561.515 202.936 564.09 199.794 568.384 195.242C572.677 190.691 576.22 187.439 579.013 185.486C581.806 183.533 585.029 181.904 588.684 180.598C592.339 179.292 597.604 176.36 604.48 171.803C611.355 167.246 618.335 161.607 625.421 154.886C632.506 148.165 638.309 145.124 642.829 145.763C647.349 146.402 651.437 146.393 655.094 145.736C658.75 145.079 661.33 144.208 662.834 143.123C664.338 142.038 667.132 140.842 671.217 139.536C675.303 138.229 681.003 137.459 688.318 137.226C695.633 136.994 700.687 136.009 703.481 134.273C706.274 132.536 707.882 130.153 708.306 127.125C708.73 124.096 708.187 121.826 706.677 120.315C705.168 118.805 703.875 117.942 702.798 117.728C701.722 117.515 700.752 116.652 699.888 115.14C699.024 113.628 696.763 112.876 693.105 112.884C689.447 112.892 687.079 112.357 686.001 111.277C684.923 110.198 679.975 110.426 671.156 111.96C662.338 113.493 655.453 113.833 650.503 112.979C645.552 112.125 642.645 111.158 641.782 110.079C640.919 108.999 639.729 105.974 638.212 101.003C636.694 96.0316 635.074 92.7909 633.349 91.2808C631.624 89.7707 630.009 89.0173 628.503 89.0207C626.996 89.024 625.385 89.8928 623.667 91.6269C621.95 93.361 621.094 95.4176 621.099 97.7967C621.104 100.176 621.862 102.337 623.372 104.28C624.883 106.223 625.748 108.06 625.967 109.79C626.186 111.519 625.653 113.792 624.368 116.606C623.083 119.421 622.551 122.017 622.771 124.396C622.992 126.775 622.459 128.939 621.172 130.888C619.885 132.837 618.383 134.463 616.664 135.765C614.946 137.066 611.614 138.696 606.67 140.653C601.725 142.611 596.567 145.11 591.195 148.15C585.822 151.19 581.311 154.444 577.661 157.913C574.011 161.381 570.577 165.498 567.36 170.264C564.143 175.029 561.353 178.388 558.991 180.34C556.628 182.292 554.91 183.593 553.836 184.244C553.298 184.57 552.761 184.896 552.224 185.221C552.116 185.005 552.008 184.789 551.9 184.573C551.684 184.141 550.93 183.927 549.639 183.929C548.348 183.932 545.447 185.453 540.935 188.491C536.423 191.529 533.2 193.375 531.265 194.028C530.297 194.354 529.33 194.681 528.362 195.008C528.362 194.791 528.361 194.575 528.361 194.359C528.36 193.926 526.852 193.389 523.839 192.747C520.825 192.105 519.21 191.459 518.993 190.811C518.777 190.163 520.063 188.213 522.853 184.963C525.643 181.712 527.576 179.869 528.65 179.434C529.725 178.999 532.303 176.939 536.383 173.253C540.463 169.567 542.933 167.615 543.793 167.397C544.653 167.179 546.157 165.986 548.304 163.818C550.45 161.65 552.058 159.051 553.128 156.021C554.197 152.991 554.403 148.881 553.746 143.691C553.089 138.502 554.046 133.634 556.618 129.086C559.19 124.538 560.795 120.533 561.433 117.071C562.071 113.609 563.141 111.228 564.645 109.927C566.148 108.626 566.79 107.218 566.572 105.705C566.353 104.191 565.167 102.788 563.012 101.495C560.858 100.202 559.993 98.3659 560.418 95.9859C560.843 93.6058 560.732 92.2002 560.086 91.7691C559.439 91.3379 559.115 90.5817 559.113 89.5002C559.11 88.4188 558.678 87.6628 557.817 87.2322C556.955 86.8015 556.631 86.1534 556.844 85.2878C557.057 84.4222 557.379 83.9889 557.809 83.9879C558.025 83.9874 558.24 83.987 558.455 83.9865C558.348 84.3111 558.241 84.6358 558.134 84.9605C558.027 85.2851 557.921 85.6098 557.814 85.9345C558.136 85.7175 558.458 85.5005 558.781 85.2834C559.425 84.8494 559.854 84.0915 560.066 83.0096C560.279 81.9277 560.06 79.9816 559.408 77.1714C558.756 74.3612 557.46 71.8768 555.519 69.7183C553.577 67.5598 551.853 66.0497 550.345 65.1879C548.836 64.3261 547.221 63.6809 545.499 63.2522C543.777 62.8235 541.517 62.7204 538.721 62.9429C535.924 63.1654 533.665 63.4949 531.945 63.9313C530.225 64.3677 528.398 65.237 526.464 66.539C524.53 67.841 522.811 68.6019 521.305 68.8215C519.799 69.0412 518.615 68.7194 517.753 67.8562C516.89 66.993 515.275 66.1314 512.906 65.2716C510.537 64.4118 505.479 63.6661 497.732 63.0346C489.984 62.403 483.531 63.0663 478.371 65.0244C473.211 66.9825 468.699 69.6961 464.834 73.1653C460.968 76.6345 457.749 80.1023 455.174 83.5686C452.6 87.0349 450.456 90.5002 448.742 93.9646C447.029 97.429 446.066 99.9184 445.854 101.433C445.642 102.947 444.03 103.816 441.019 104.039C438.007 104.262 436.072 105.023 435.214 106.323C434.356 107.623 433.929 108.921 433.932 110.219C433.935 111.517 435.121 112.704 437.49 113.78C438.674 114.318 439.859 114.856 441.044 115.394C439.646 115.938 438.249 116.482 436.852 117.025C434.057 118.113 432.555 120.063 432.346 122.875C432.137 125.687 432.571 127.417 433.648 128.063C434.726 128.71 438.061 128.918 443.655 128.69C446.452 128.575 449.249 128.461 452.046 128.346C452.051 130.509 452.055 132.672 452.06 134.835C452.07 139.161 452.615 142.404 453.695 144.564C454.776 146.724 455.855 148.344 456.934 149.423C458.012 150.502 459.089 151.04 460.165 151.038C460.703 151.037 461.241 151.036 461.779 151.034C460.708 153.308 459.637 155.581 458.566 157.855C456.425 162.401 455.141 165.865 454.716 168.245C454.504 169.435 454.291 170.625 454.079 171.815C453.539 171.167 453 170.52 452.46 169.872C451.382 168.577 450.09 168.039 448.584 168.259C447.078 168.478 445.037 169.78 442.46 172.165C439.884 174.55 437.842 175.528 436.335 175.099C434.827 174.67 432.996 173.592 430.841 171.867C428.685 170.141 424.049 165.394 416.931 157.623C409.813 149.853 405.716 145.753 404.639 145.323C403.562 144.892 401.299 143.059 397.849 139.822C394.4 136.586 388.581 132.381 380.393 127.209C372.205 122.036 368.323 117.936 368.747 114.907C369.17 111.878 368.734 108.959 367.436 106.15C366.139 103.341 365.489 101.18 365.486 99.666C365.482 98.152 366.447 96.4196 368.379 94.4687C370.311 92.5178 371.597 90.4603 372.238 88.296C372.879 86.1317 373.089 84.0765 372.87 82.1305C372.651 80.1844 371.893 78.3477 370.599 76.6203C369.304 74.8929 368.118 74.0304 367.043 74.0328C365.967 74.0352 364.569 74.5791 362.85 75.6643C361.132 76.7496 359.631 79.4565 358.35 83.7851C357.069 88.1136 355.892 91.1442 354.82 92.8769C353.748 94.6096 353.106 96.3413 352.895 98.072C352.683 99.8028 349.458 100.567 343.217 100.365C336.977 100.162 332.673 99.6312 330.304 98.7714C327.935 97.9115 325.567 97.4843 323.201 97.4896C320.834 97.4949 319.006 97.9315 317.717 98.7995C316.428 99.6675 315.03 100.103 313.524 100.107C312.018 100.11 310.188 99.6815 308.034 98.8212C305.881 97.9609 302.867 97.535 298.995 97.5437C295.122 97.5523 292.649 98.2067 291.576 99.5068C290.503 100.807 288.676 101.784 286.095 102.439C283.515 103.094 282.011 104.286 281.585 106.018C281.158 107.749 281.485 109.478 282.565 111.206Z" fill="#000000" fill-rule="evenodd" opacity="1" stroke="#000000" stroke-linecap="round" stroke-linejoin="round" stroke-width="1"/>
<path d="M286.114 110.874C287.408 112.385 289.886 113.894 293.547 115.399C297.208 116.905 303.343 117.865 311.95 118.278C320.558 118.691 327.555 120.406 332.94 123.422C338.326 126.438 342.742 128.483 346.187 129.556C349.632 130.63 351.784 131.058 352.645 130.84C353.505 130.621 354.691 131.7 356.202 134.076C357.713 136.452 360.41 139.582 364.291 143.466C368.173 147.351 375.931 152.74 387.565 159.635C399.199 166.531 406.957 171.812 410.838 175.48C414.719 179.148 417.847 182.602 420.221 185.841C421.408 187.46 422.595 189.08 423.782 190.699C424.962 189.183 426.142 187.666 427.322 186.15C429.682 183.116 431.614 181.057 433.118 179.972C434.622 178.888 435.373 178.129 435.372 177.696C435.371 177.264 433.539 175.862 429.876 173.491C426.213 171.12 422.979 168.208 420.174 164.753C417.369 161.299 414.833 157.79 404.324 148.892C393.815 139.994 387.834 135.195 378.138 129.16C368.442 123.126 363.594 119.785 363.592 119.136C363.591 118.487 364.127 117.621 365.2 116.537C366.274 115.453 366.808 114.046 366.805 112.316C366.801 110.585 366.15 108.424 364.854 105.832C363.557 103.239 362.907 101.186 362.904 99.6718C362.9 98.1578 363.542 96.4261 364.829 94.4766C366.115 92.5272 367.188 91.3352 368.048 90.9008C368.908 90.4663 369.551 89.5997 369.979 88.301C370.406 87.0024 370.618 85.4879 370.614 83.7576C370.611 82.0274 370.284 80.5141 369.636 79.2179C368.988 77.9216 367.911 77.3833 366.405 77.603C364.899 77.8226 363.61 78.5825 362.537 79.8826C361.464 81.1827 360.929 82.3735 360.931 83.4549C360.934 84.5363 359.972 87.4583 358.046 92.2208C357.083 94.6021 356.12 96.9834 355.157 99.3647C355.91 99.363 356.663 99.3613 357.416 99.3596C358.169 99.3579 358.922 99.3562 359.675 99.3546C359.676 99.679 359.677 100.003 359.678 100.328C359.679 100.977 359.142 101.627 358.068 102.278C356.994 102.929 352.798 103.155 345.482 102.955C338.166 102.755 333.109 102.226 330.31 101.367C327.511 100.508 325.143 100.081 323.206 100.085C321.27 100.089 319.98 100.417 319.336 101.067C319.013 101.392 318.691 101.717 318.369 102.042C319.231 102.365 320.092 102.687 320.954 103.01C322.676 103.655 323.431 104.302 323.217 104.951C323.003 105.601 322.466 105.926 321.606 105.928C320.745 105.93 319.776 105.5 318.698 104.637C317.62 103.774 315.144 102.807 311.268 101.734C307.393 100.661 304.272 100.019 301.904 99.8082C299.537 99.5972 297.493 99.7099 295.773 100.146C294.052 100.583 293.193 101.017 293.194 101.45C293.195 101.882 295.025 102.419 298.684 103.06C302.343 103.7 306.434 104.989 310.957 106.925C315.48 108.862 321.507 109.93 329.038 110.129C336.569 110.329 342.057 110.857 345.502 111.714C348.946 112.572 351.207 113.216 352.284 113.646C353.361 114.076 353.792 114.724 353.579 115.589C353.472 116.022 353.366 116.455 353.259 116.888C350.676 116.137 348.092 115.385 345.508 114.634C340.341 113.132 334.637 112.388 328.398 112.402C322.158 112.415 317.639 112.101 314.84 111.459C312.041 110.816 309.457 109.848 307.088 108.556C304.718 107.264 301.488 106.189 297.398 105.333C293.308 104.477 290.188 104.268 288.037 104.706C285.886 105.143 284.704 105.903 284.492 106.984C284.279 108.066 284.82 109.363 286.114 110.874Z" fill="#f3d5c4" fill-rule="evenodd" opacity="1" stroke="#f3d5c4" stroke-linecap="round" stroke-linejoin="round" stroke-width="1"/>
<path d="M399.082 551.192C400.163 553.136 401.888 555.079 404.259 557.02C406.63 558.961 410.723 560.791 416.536 562.508C422.349 564.225 428.483 564.969 434.938 564.738C441.392 564.507 447.846 563.844 454.298 562.748C460.751 561.652 465.697 560.343 469.136 558.822C472.575 557.3 477.84 554.044 484.929 549.054C492.018 544.063 496.102 541.783 497.178 542.213C498.255 542.643 498.687 543.399 498.474 544.481C498.262 545.563 498.588 547.185 499.453 549.346C500.319 551.506 503.117 551.933 507.848 550.624C510.213 549.97 512.578 549.316 514.944 548.662C513.212 544.124 511.481 539.586 509.75 535.048C508.018 530.51 506.287 525.972 504.556 521.433C503.267 522.41 501.978 523.386 500.689 524.362C498.111 526.314 495.102 527.619 491.661 528.275C488.22 528.932 484.777 529.156 481.334 528.947C477.891 528.739 474.876 527.664 472.29 525.723C469.704 523.782 466.797 522.707 463.569 522.498C460.341 522.289 457.222 522.621 454.211 523.493C451.201 524.364 445.719 526.756 437.767 530.667C429.814 534.578 422.288 536.649 415.188 536.881C408.088 537.113 403.464 538.097 401.317 539.832C399.169 541.567 397.989 543.408 397.779 545.355C397.568 547.302 398.002 549.248 399.082 551.192Z" fill="#573304" fill-rule="evenodd" opacity="1" stroke="#824c04" stroke-linecap="round" stroke-linejoin="round" stroke-width="1"/>
<path d="M421.242 209.846C421.675 210.927 423.399 212.329 426.416 214.052C429.432 215.776 432.878 217.282 436.754 218.571C440.629 219.86 443.753 221.692 446.125 224.065C448.497 226.439 450.006 227.625 450.652 227.624C451.297 227.622 452.698 228.809 454.855 231.183C457.012 233.557 458.74 236.365 460.038 239.607C461.336 242.848 462.212 249.767 462.666 260.364C463.12 270.961 463.028 277.99 462.39 281.452C461.752 284.914 461.333 289.998 461.133 296.703C460.932 303.408 460.404 307.952 459.549 310.333C458.694 312.714 456.671 322.451 453.481 339.545C450.292 356.638 447.734 367.783 445.809 372.978C443.884 378.173 441.958 382.503 440.029 385.968C438.1 389.432 436.602 393.005 435.534 396.684C434.466 400.363 433.503 402.744 432.645 403.828C431.787 404.911 436.533 410.524 446.883 420.666C452.058 425.737 457.234 430.808 462.409 435.879C461.852 427.445 461.296 419.012 460.739 410.578C459.626 393.71 460.339 375.541 462.878 356.069C465.417 336.598 467.646 322.967 469.565 315.177C471.484 307.386 472.649 299.165 473.061 290.512C473.472 281.86 474.104 275.695 474.956 272.016C475.809 268.337 476.335 262.929 476.534 255.791C476.733 248.653 477.576 240.541 479.062 231.453C480.548 222.366 479.564 215.339 476.111 210.372C472.657 205.406 470.068 202.167 468.343 200.657C466.619 199.147 465.971 197.959 466.399 197.093C466.827 196.227 466.933 195.145 466.714 193.848C466.496 192.55 466.064 191.794 465.418 191.58C464.772 191.365 464.233 190.609 463.8 189.312C463.367 188.015 460.885 184.669 456.354 179.272C451.824 173.875 448.699 171.503 446.979 172.155C445.259 172.808 441.822 175.519 436.669 180.289C431.515 185.059 427.76 189.609 425.403 193.94C423.046 198.271 421.655 201.735 421.23 204.331C420.805 206.927 420.81 208.766 421.242 209.846Z" fill="#7c9ab6" fill-rule="evenodd" opacity="1" stroke="#8bb2d6" stroke-linecap="round" stroke-linejoin="round" stroke-width="1"/>
<path d="M435.257 125.788C435.688 126.22 437.841 126.432 441.714 126.423C445.587 126.414 450.319 125.755 455.91 124.445C461.502 123.134 466.987 122.365 472.365 122.137C475.055 122.023 477.744 121.909 480.433 121.794C480.109 121.038 479.784 120.282 479.46 119.526C478.811 118.013 478.701 116.716 479.129 115.633C479.343 115.092 479.557 114.551 479.771 114.01C473.532 114.564 467.293 115.119 461.055 115.674C448.578 116.783 441.049 117.881 438.47 118.968C435.89 120.056 434.602 121.356 434.605 122.87C434.609 124.384 434.826 125.357 435.257 125.788Z" fill="#ffffff" fill-rule="evenodd" opacity="1" stroke="#ffffff" stroke-linecap="round" stroke-linejoin="round" stroke-width="1"/>
<path d="M440.717 113.448C443.085 114.308 445.561 114.735 448.143 114.729C450.725 114.723 456.963 114.169 466.858 113.065C476.754 111.962 481.701 111.085 481.699 110.437C481.698 109.788 481.588 108.815 481.37 107.518C481.152 106.22 473.943 105.696 459.742 105.944C445.542 106.192 438.229 107.29 437.803 109.237C437.377 111.185 438.348 112.588 440.717 113.448Z" fill="#ffffff" fill-rule="evenodd" opacity="1" stroke="#ffffff" stroke-linecap="round" stroke-linejoin="round" stroke-width="1"/>
<path d="M464.9 103.012C476.088 102.987 482.111 102.001 482.967 100.052C483.823 98.1037 486.507 95.286 491.017 91.5991C495.527 87.9122 498.965 85.4172 501.329 84.1142C503.693 82.8112 506.165 81.8324 508.745 81.1778C511.326 80.5232 513.8 80.1932 516.166 80.1879C518.533 80.1826 519.932 80.5039 520.364 81.1518C520.796 81.7997 521.55 82.0143 522.625 81.7956C523.7 81.5769 524.344 80.9266 524.557 79.8447C524.77 78.7628 523.582 76.9271 520.995 74.3375C518.407 71.7478 515.605 69.8075 512.59 68.5166C509.575 67.2256 506.13 66.26 502.256 65.6198C498.381 64.9797 494.938 64.6629 491.926 64.6697C488.913 64.6764 486.117 65.0071 483.537 65.6617C480.956 66.3163 478.269 67.2956 475.474 68.5996C472.68 69.9035 469.887 71.7482 467.095 74.1335C464.303 76.5189 461.084 80.2029 457.437 85.1856C453.79 90.1683 451.325 94.3914 450.042 97.8548C449.4 99.5865 448.759 101.318 448.117 103.05C453.711 103.037 459.305 103.025 464.9 103.012Z" fill="#ffffff" fill-rule="evenodd" opacity="1" stroke="#ffffff" stroke-linecap="round" stroke-linejoin="round" stroke-width="1"/>
<path d="M455.301 140.667C456.167 143.261 457.463 145.313 459.187 146.823C460.912 148.333 462.527 148.978 464.033 148.758C465.538 148.539 466.934 147.346 468.221 145.18C469.507 143.015 470.365 141.931 470.795 141.93C471.01 141.93 471.226 141.929 471.441 141.929C471.442 142.253 471.442 142.578 471.443 142.902C471.444 143.551 472.091 144.09 473.383 144.52C474.675 144.95 476.509 147.217 478.885 151.321C481.261 155.425 482.775 158.882 483.426 161.692C484.078 164.502 484.408 167.746 484.416 171.423C484.424 175.099 483.467 180.184 481.545 186.677C479.623 193.17 480.069 200.198 482.883 207.762C485.697 215.325 487.535 219.431 488.397 220.078C489.259 220.725 489.908 222.453 490.345 225.264C490.781 228.075 491.541 231.101 492.624 234.343C493.707 237.585 494.464 239.205 494.894 239.204C495.324 239.203 496.182 237.687 497.466 234.657C498.75 231.626 499.284 229.57 499.066 228.489C498.849 227.408 499.17 226.65 500.029 226.216C500.889 225.781 502.712 223.182 505.499 218.417C508.285 213.653 509.785 210.622 509.997 209.323C510.209 208.025 509.992 206.836 509.344 205.756C508.696 204.676 509.872 201.213 512.871 195.367C515.87 189.52 519.088 184.863 522.523 181.395C525.958 177.926 530.36 174.24 535.731 170.335C541.101 166.43 544.967 163.068 547.327 160.252C549.688 157.435 550.863 153.431 550.851 148.24C550.84 143.049 550.618 140.346 550.188 140.131C549.757 139.915 548.575 140.459 546.641 141.761C544.707 143.063 542.773 143.824 540.837 144.045C538.901 144.265 536.423 142.973 533.405 140.168C530.386 137.363 528.768 135.528 528.551 134.664C528.443 134.231 528.334 133.799 528.226 133.367C528.764 133.366 529.302 133.364 529.839 133.363C530.915 133.361 532.532 134.655 534.689 137.246C536.847 139.836 538.678 141.13 540.185 141.126C541.691 141.123 542.981 140.904 544.056 140.469C545.131 140.034 546.956 138.191 549.531 134.941C552.105 131.691 554.356 127.577 556.281 122.598C557.244 120.109 558.207 117.619 559.169 115.13C556.265 115.136 553.36 115.143 550.455 115.149C544.646 115.162 541.203 114.954 540.126 114.524C539.049 114.093 537.54 112.799 535.599 110.641C533.657 108.482 533.006 105.78 533.644 102.534C534.283 99.2886 535.031 97.2322 535.89 96.3651C536.749 95.4981 538.038 94.9545 539.759 94.7343C541.48 94.5142 542.664 94.6197 543.31 95.0508C543.957 95.4819 544.283 97.1034 544.289 99.915C544.295 102.727 544.084 104.457 543.655 105.107C543.441 105.432 543.226 105.757 543.012 106.082C542.581 105.759 542.15 105.435 541.719 105.112C540.857 104.465 539.995 104.25 539.135 104.469C538.275 104.687 537.523 105.229 536.88 106.096C536.236 106.962 536.992 108.258 539.147 109.984C541.303 111.709 543.349 112.678 545.286 112.89C546.255 112.996 547.223 113.102 548.192 113.208C547.976 112.884 547.76 112.56 547.544 112.236C547.112 111.588 546.894 110.183 546.889 108.02C546.884 105.857 547.311 104.126 548.169 102.826C549.026 101.527 548.916 100.229 547.837 98.9338C546.759 97.6385 546.431 95.6927 546.856 93.0963C547.068 91.7982 547.281 90.5 547.493 89.2018C546.847 89.0951 546.201 88.9884 545.556 88.8817C544.264 88.6683 542.651 88.9963 540.717 89.8658C539.749 90.3005 538.782 90.7353 537.815 91.17C537.597 89.9809 537.379 88.7918 537.161 87.6028C536.726 85.2246 537.046 83.9262 538.121 83.7075C539.196 83.4888 539.842 83.5955 540.058 84.0276C540.274 84.4597 541.566 84.8894 543.934 85.3166C546.302 85.7439 547.917 86.3892 548.78 87.2524C549.642 88.1156 550.611 88.2216 551.685 87.5703C552.222 87.2447 552.759 86.919 553.297 86.5934C552.759 86.4865 552.22 86.3795 551.682 86.2726C550.606 86.0587 548.99 84.8728 546.833 82.7148C544.677 80.5567 542.199 79.2646 539.401 78.8383C536.603 78.4119 533.807 78.6345 531.011 79.5059C528.216 80.3773 526.713 81.8946 526.503 84.0579C526.292 86.2212 524.359 87.5233 520.702 87.964C517.045 88.4047 514.358 89.2759 512.639 90.5774C510.921 91.879 509.74 93.1793 509.097 94.4785C508.455 95.7776 507.811 96.4279 507.165 96.4294C506.52 96.4308 506.088 95.8911 505.871 94.8101C505.653 93.7292 505.866 92.6473 506.509 91.5644C507.152 90.4816 509.3 88.6384 512.952 86.0348C514.778 84.733 516.604 83.4312 518.43 82.1294C516.172 82.567 513.913 83.0046 511.655 83.4423C507.138 84.3175 503.376 85.6236 500.367 87.3606C497.359 89.0976 494.137 91.5921 490.702 94.844C487.266 98.096 485.335 100.371 484.907 101.67C484.48 102.969 484.912 103.941 486.205 104.587C487.497 105.233 488.252 106.204 488.47 107.502C488.688 108.799 488.475 109.773 487.831 110.423C487.187 111.073 486.554 116.59 486.554 116.59C486.554 116.59 485.491 122.324 483.987 123.409C482.483 124.493 481.733 125.685 481.736 126.982C481.739 128.28 481.31 129.146 480.45 129.581C479.591 130.015 478.945 129.908 478.513 129.26C478.082 128.613 477.327 128.182 476.251 127.968C475.175 127.754 474.42 127.107 473.988 126.026C473.555 124.946 470.327 124.845 464.304 125.724C458.282 126.602 455.059 128.664 454.636 131.909C454.213 135.154 454.434 138.074 455.301 140.667Z" fill="#f3d5c4" fill-rule="evenodd" opacity="1" stroke="#f3d5c4" stroke-linecap="round" stroke-linejoin="round" stroke-width="1"/>
<path d="M456.295 444.328C456.523 449.951 456.961 453.41 457.609 454.707C458.258 456.003 461.27 456.104 466.647 455.011C472.024 453.917 478.259 451.957 485.353 449.129C492.448 446.302 496.638 443.805 497.924 441.639C499.21 439.474 499.417 435.472 498.543 429.634C497.669 423.797 497.332 417.093 497.53 409.522C497.729 401.952 498.04 396.868 498.465 394.272C498.889 391.676 499.85 388.429 501.348 384.533C502.845 380.636 504.238 377.93 505.526 376.413C506.813 374.896 508.319 374.568 510.042 375.429C511.765 376.291 513.491 378.233 515.219 381.258C516.947 384.282 520.199 395.197 524.974 414.003C529.749 432.809 534.719 442.206 539.883 442.194C545.047 442.183 551.392 441.412 558.92 439.881C566.447 438.35 572.038 436.715 575.692 434.977C579.346 433.239 581.386 431.612 581.813 430.097C582.24 428.582 580.834 425.125 577.595 419.725C574.355 414.325 571.657 410.546 569.501 408.388C568.423 407.309 567.344 406.23 566.266 405.151C564.98 407.425 563.694 409.699 562.408 411.972C559.836 416.52 557.802 420.85 556.305 424.963C554.808 429.076 553.629 431.133 552.768 431.135C552.338 431.136 551.907 431.137 551.477 431.138C551.476 430.489 551.474 429.84 551.473 429.192C551.47 427.894 550.82 426.057 549.524 423.681C548.228 421.304 546.28 416.334 543.682 408.77C541.083 401.206 537.505 388.669 532.948 371.161C528.39 353.652 526.002 343.708 525.781 341.329C525.561 338.951 525.235 337.654 524.804 337.439C524.374 337.223 522.443 339.931 519.013 345.562C515.583 351.193 513.437 354.01 512.577 354.012C511.716 354.014 509.345 351.964 505.462 347.863C501.58 343.763 499.317 341.713 498.671 341.715C498.026 341.716 495.772 344.425 491.911 349.84C488.05 355.256 485.69 357.965 484.829 357.967C483.968 357.969 481.705 356.244 478.04 352.791C474.374 349.339 471.572 347.182 469.634 346.321C468.665 345.891 467.696 345.461 466.726 345.03C465.881 351.845 465.035 358.66 464.19 365.475C462.498 379.104 461.657 387.758 461.665 391.434C461.673 395.111 462.121 402.897 463.008 414.79C463.895 426.684 464.88 434.576 465.965 438.467C467.049 442.357 467.269 444.412 466.624 444.629C465.979 444.847 464.254 443.229 461.449 439.774C460.047 438.047 458.644 436.32 457.242 434.593C457.027 434.81 456.813 435.027 456.598 435.243C456.169 435.677 456.068 438.705 456.295 444.328Z" fill="#6a6865" fill-rule="evenodd" opacity="1" stroke="#c2bbbb" stroke-linecap="round" stroke-linejoin="round" stroke-width="1"/>
<path d="M456.993 176.35C457.642 177.647 458.396 178.186 459.256 177.967C460.116 177.749 462.157 176.447 465.38 174.061C468.602 171.674 471.394 169.181 473.755 166.58C476.116 163.979 477.617 161.813 478.259 160.082C478.9 158.35 478.141 155.648 475.982 151.976C473.822 148.304 472.312 146.469 471.451 146.471C470.59 146.473 469.946 147.015 469.518 148.097C469.09 149.18 468.339 149.938 467.264 150.373C466.189 150.808 464.901 152.001 463.399 153.951C461.897 155.901 460.397 158.824 458.9 162.72C457.402 166.617 456.548 169.538 456.337 171.485C456.126 173.432 456.345 175.054 456.993 176.35Z" fill="#ffffff" fill-rule="evenodd" opacity="1" stroke="#ffffff" stroke-linecap="round" stroke-linejoin="round" stroke-width="1"/>
<path d="M463.791 185.419C466.381 188.874 467.891 190.601 468.321 190.6C468.751 190.599 469.5 188.759 470.568 185.08C471.102 183.24 471.636 181.4 472.17 179.561C473.462 180.315 474.755 181.069 476.048 181.823C477.34 182.577 478.633 183.331 479.926 184.085C480.139 183.328 480.353 182.57 480.566 181.813C480.993 180.298 481.092 176.621 480.864 170.782C480.636 164.943 480.307 162.023 479.877 162.024C479.662 162.025 479.446 162.025 479.231 162.026C479.232 162.35 479.233 162.675 479.233 162.999C479.235 163.648 478.162 165.164 476.016 167.548C473.87 169.932 470.648 172.643 466.352 175.681C464.203 177.199 462.055 178.718 459.907 180.237C461.201 181.964 462.496 183.692 463.791 185.419Z" fill="#ffffff" fill-rule="evenodd" opacity="1" stroke="#ffffff" stroke-linecap="round" stroke-linejoin="round" stroke-width="1"/>
<path d="M474.476 346.635C478.787 350.302 481.804 352.458 483.527 353.103C485.25 353.748 486.432 353.313 487.074 351.798C487.717 350.282 489.326 348.116 491.901 345.298C494.477 342.481 495.871 340.531 496.084 339.449C496.297 338.367 496.726 337.718 497.371 337.5C498.016 337.282 500.818 339.331 505.776 343.645C508.255 345.802 510.734 347.96 513.213 350.117C515.036 347.193 516.858 344.269 518.681 341.345C522.326 335.498 522.846 327.494 520.241 317.334C517.637 307.175 515.788 298.203 514.695 290.419C513.602 282.636 512.712 269.336 512.025 250.521C511.681 241.113 511.338 231.706 510.994 222.298C509.597 223.166 508.201 224.035 506.804 224.903C504.011 226.639 501.652 230.43 499.729 236.274C497.805 242.118 496.414 245.257 495.554 245.691C495.124 245.909 494.694 246.126 494.264 246.343C493.181 242.885 492.097 239.427 491.014 235.969C488.847 229.052 487.008 224.406 485.496 222.031C484.741 220.843 483.985 219.655 483.229 218.467C483.126 220.522 483.023 222.577 482.92 224.632C482.714 228.742 481.973 234.151 480.697 240.858C479.421 247.566 478.788 253.623 478.8 259.03C478.812 264.437 478.392 268.872 477.539 272.335C476.686 275.797 476.054 281.963 475.643 290.831C475.233 299.7 474.28 306.731 472.785 311.925C471.291 317.119 470.121 323.286 469.276 330.425C468.431 337.565 470.164 342.968 474.476 346.635Z" fill="#4f6b86" fill-rule="evenodd" opacity="1" stroke="#7c9ab6" stroke-linecap="round" stroke-linejoin="round" stroke-width="1"/>
<path d="M471.895 201.298C473.838 204.105 476.211 206.912 479.014 209.717C480.416 211.12 481.817 212.522 483.219 213.925C481.921 210.9 480.624 207.875 479.326 204.85C476.731 198.8 476.075 194.151 477.359 190.904C478.643 187.657 478.53 185.602 477.022 184.741C475.514 183.879 474.545 183.557 474.115 183.774C473.686 183.991 472.722 186.264 471.226 190.593C469.729 194.922 469.952 198.491 471.895 201.298Z" fill="#7c9ab6" fill-rule="evenodd" opacity="1" stroke="#8bb2d6" stroke-linecap="round" stroke-linejoin="round" stroke-width="1"/>
<path d="M475.516 525.067C476.378 525.714 479.284 526.032 484.233 526.021C489.181 526.01 492.623 525.678 494.558 525.025C496.493 524.371 498.642 523.177 501.005 521.441C503.368 519.706 503.671 510.621 501.913 494.188C500.156 477.754 498.409 466.187 496.673 459.486C495.804 456.135 494.936 452.785 494.068 449.434C491.058 450.414 488.048 451.394 485.038 452.374C479.017 454.334 477.204 461.476 479.598 473.799C481.993 486.121 483.193 494.013 483.201 497.474C483.209 500.934 483.002 504.503 482.579 508.181C482.157 511.859 480.658 514.998 478.082 517.6C475.505 520.201 474.218 521.934 474.22 522.799C474.222 523.664 474.654 524.42 475.516 525.067Z" fill="#ffffff" fill-rule="evenodd" opacity="1" stroke="#ffffff" stroke-linecap="round" stroke-linejoin="round" stroke-width="1"/>
<path d="M482.687 119.194C483.01 119.409 483.333 119.625 483.656 119.841C483.762 118.975 483.868 118.11 483.973 117.244C484.079 116.379 484.185 115.514 484.29 114.648C483.86 114.757 483.43 114.867 483 114.976C482.14 115.194 481.711 115.844 481.713 116.925C481.716 118.007 482.04 118.763 482.687 119.194Z" fill="#ffffff" fill-rule="evenodd" opacity="1" stroke="#ffffff" stroke-linecap="round" stroke-linejoin="round" stroke-width="1"/>
<path d="M483.311 109.784C483.529 110.865 483.853 111.405 484.283 111.404C484.714 111.403 485.034 110.537 485.246 108.807C485.351 107.941 485.457 107.076 485.563 106.21C485.133 106.536 484.704 106.861 484.274 107.187C483.415 107.837 483.094 108.703 483.311 109.784Z" fill="#ffffff" fill-rule="evenodd" opacity="1" stroke="#ffffff" stroke-linecap="round" stroke-linejoin="round" stroke-width="1"/>
<path d="M485.389 319.359C486.254 321.303 487.439 322.058 488.944 321.622C490.449 321.186 491.416 320.643 491.845 319.993C492.274 319.343 492.487 318.37 492.484 317.072C492.481 315.774 491.941 314.478 490.862 313.182C489.783 311.887 488.492 311.566 486.987 312.218C485.482 312.87 484.623 313.737 484.411 314.819C484.198 315.901 484.524 317.414 485.389 319.359Z" fill="#000000" fill-rule="evenodd" opacity="1" stroke="#000000" stroke-linecap="round" stroke-linejoin="round" stroke-width="1"/>
<path d="M487.97 319.029C488.401 319.244 488.832 319.459 489.263 319.675C489.476 319.025 489.69 318.376 489.904 317.727C490.331 316.428 490.114 315.563 489.253 315.133C488.822 314.917 488.391 314.702 487.96 314.487C487.746 315.136 487.533 315.785 487.319 316.435C486.892 317.733 487.109 318.598 487.97 319.029Z" fill="#ffd165" fill-rule="evenodd" opacity="1" stroke="#ffd165" stroke-linecap="round" stroke-linejoin="round" stroke-width="1"/>
<path d="M491.793 150.643C493.31 155.614 494.825 159.612 496.338 162.637C497.851 165.661 500.118 169.008 503.138 172.679C506.159 176.349 508.099 177.966 508.959 177.532C509.818 177.097 510.781 174.716 511.847 170.388C512.914 166.06 514.091 163.246 515.379 161.945C516.667 160.644 518.601 159.451 521.181 158.363C523.76 157.276 525.264 156.408 525.693 155.758C526.122 155.108 529.243 152.929 530.104 153.144C530.535 153.251 526.339 153.791 526.769 153.899C526.768 153.574 529.972 153.141 529.971 152.817C529.97 152.168 529.238 153.371 529.883 153.153C530.528 152.935 530.742 152.394 530.525 151.53C530.417 151.097 530.308 150.665 530.2 150.233C529.447 150.451 528.694 150.669 527.942 150.886C526.437 151.322 522.776 149.925 516.959 146.694C511.142 143.462 506.833 140.66 504.03 138.287C501.228 135.914 498.748 133.325 496.59 130.518C494.432 127.711 492.923 126.308 492.062 126.31C491.202 126.312 490.557 126.963 490.13 128.261C489.703 129.56 489.494 132.372 489.503 136.698C489.513 141.023 490.276 145.672 491.793 150.643Z" fill="#000000" fill-rule="evenodd" opacity="1" stroke="#000000" stroke-linecap="round" stroke-linejoin="round" stroke-width="1"/>
<path d="M496.291 141.224C499.524 143.813 502.435 146.618 505.024 149.64C507.612 152.662 509.873 153.414 511.807 151.896C513.74 150.378 514.706 149.294 514.704 148.645C514.703 147.996 513.625 147.242 511.472 146.381C509.318 145.521 507.126 143.354 504.324 141.197C501.522 139.04 499.505 136.714 497.347 133.907C495.189 131.1 493.147 130.201 492.716 130.202C492.286 130.203 491.966 131.393 491.756 133.773C491.546 136.152 493.058 138.636 496.291 141.224Z" fill="#ffffff" fill-rule="evenodd" opacity="1" stroke="#ffffff" stroke-linecap="round" stroke-linejoin="round" stroke-width="1"/>
<path d="M497.254 158.813C498.334 160.973 499.454 160.899 501.177 161.328C502.899 161.757 504.838 162.834 506.993 164.559C508.071 165.422 509.149 166.285 510.227 167.147C509.824 166.21 513.346 158.253 517.852 156.767C522.358 155.28 521.589 151.991 521.343 151.416C520.045 148.391 509.335 157.832 507.571 155.484C498.413 143.293 490.067 140.961 490.844 142.529C490.972 142.787 490.952 143.862 491.929 146.231C493.151 149.194 494.617 153.279 494.258 153.279C494.259 153.496 495.594 155.428 495.595 155.644C495.596 156.077 496.173 156.653 497.254 158.813Z" fill="#ffb2b2" fill-rule="evenodd" opacity="1" stroke="#ffb2b2" stroke-linecap="round" stroke-linejoin="round" stroke-width="1"/>
<path d="M504.421 169.107C505.715 170.402 507.009 171.697 508.303 172.991C508.193 172.126 508.084 171.262 507.974 170.397C507.755 168.667 506.568 167.047 504.413 165.538C503.336 164.784 502.258 164.029 501.181 163.275C501.074 163.599 500.967 163.924 500.86 164.249C500.647 164.898 501.834 166.517 504.421 169.107Z" fill="#b13e3e" fill-rule="evenodd" opacity="1" stroke="#b13e3e" stroke-linecap="round" stroke-linejoin="round" stroke-width="1"/>
<path d="M503.456 316.399C503.891 318.128 504.646 319.424 505.724 320.287C506.802 321.149 507.771 321.58 508.632 321.578C509.492 321.576 510.028 320.385 510.238 318.006C510.448 315.626 510.336 314.004 509.904 313.14C509.472 312.276 508.395 311.629 506.672 311.201C504.95 310.772 503.875 311.099 503.447 312.181C503.019 313.263 503.022 314.669 503.456 316.399Z" fill="#000000" fill-rule="evenodd" opacity="1" stroke="#000000" stroke-linecap="round" stroke-linejoin="round" stroke-width="1"/>
<path d="M507.009 317.688C507.548 318.12 508.087 318.551 508.626 318.982C508.409 318.01 508.191 317.037 507.974 316.064C507.539 314.118 506.999 313.146 506.354 313.148C506.031 313.149 505.708 313.149 505.386 313.15C505.387 313.691 505.388 314.231 505.389 314.772C505.392 315.854 505.932 316.826 507.009 317.688Z" fill="#ffd165" fill-rule="evenodd" opacity="1" stroke="#ffd165" stroke-linecap="round" stroke-linejoin="round" stroke-width="1"/>
<path d="M512.276 218.402C516.574 215.797 519.256 212.331 520.322 208.003C521.388 203.674 522.457 200.536 523.529 198.587C524.065 197.613 524.6 196.638 525.136 195.664C524.168 195.558 523.199 195.452 522.231 195.346C520.294 195.134 518.894 194.596 518.031 193.733C517.6 193.301 517.169 192.87 516.737 192.438C515.881 194.278 515.024 196.119 514.168 197.959C512.455 201.64 511.816 204.994 512.253 208.021C512.691 211.048 512.372 212.887 511.297 213.538C510.223 214.189 509.043 215.814 507.758 218.412C507.115 219.711 506.473 221.011 505.83 222.31C507.979 221.007 510.128 219.705 512.276 218.402Z" fill="#7c9ab6" fill-rule="evenodd" opacity="1" stroke="#8bb2d6" stroke-linecap="round" stroke-linejoin="round" stroke-width="1"/>
<path d="M509.113 101.616C509.762 102.912 511.164 104.423 513.319 106.148C515.475 107.874 517.198 108.843 518.489 109.057C519.781 109.27 521.394 108.834 523.328 107.748C525.262 106.662 526.011 104.714 525.574 101.903C525.138 99.0927 524.057 96.8242 522.332 95.0977C520.606 93.3713 518.239 92.944 515.228 93.8159C512.218 94.6878 510.283 95.4491 509.424 96.0999C508.565 96.7507 508.136 97.5086 508.138 98.3737C508.14 99.2389 508.465 100.32 509.113 101.616Z" fill="#000000" fill-rule="evenodd" opacity="1" stroke="#000000" stroke-linecap="round" stroke-linejoin="round" stroke-width="1"/>
<path d="M511.182 102.867C511.506 103.191 511.274 102.428 511.597 102.752C511.704 102.319 512.461 101.791 512.568 101.359C512.781 100.493 514.596 99.657 515.887 99.6541C517.178 99.6512 517.932 100.298 518.15 101.596C518.368 102.893 518.032 104.674 517.387 105.108C516.743 105.542 514.584 105.544 514.8 105.977C515.016 106.409 517.395 108.262 519.331 107.826C521.266 107.389 524.123 104.593 523.903 102.647C523.684 100.701 523.54 98.2092 522.677 97.1297C521.814 96.0502 518.428 93.651 515.847 94.0893C513.265 94.5277 509.748 97.325 509.535 98.4069C509.322 99.4888 510.535 102.219 511.182 102.867Z" fill="#ffffff" fill-rule="evenodd" opacity="1" stroke="#ffffff" stroke-linecap="round" stroke-linejoin="round" stroke-width="1"/>
<path d="M515.953 275.493C517.929 293.224 519.566 304.034 520.866 307.925C522.166 311.815 525.315 324.893 530.313 347.159C535.311 369.425 539.11 384.881 541.711 393.526C544.313 402.172 546.587 409.088 548.535 414.274C550.483 419.461 551.781 422.378 552.427 423.025C552.751 423.349 553.074 423.673 553.398 423.996C554.683 421.398 555.968 418.8 557.254 416.202C559.824 411.005 562.504 406.673 565.294 403.207C568.083 399.74 569.477 397.574 569.475 396.709C569.473 395.844 567.311 391.198 562.989 382.773C558.667 374.347 554.234 364.3 549.69 352.631C545.145 340.962 539.839 325.293 533.771 305.625C527.703 285.956 523.581 270.934 521.407 260.557C519.232 250.18 518.142 243.694 518.136 241.099C518.13 238.503 518.665 236.772 519.738 235.904C520.812 235.037 524.573 232.758 531.02 229.066C537.466 225.375 543.162 222.551 548.106 220.593C553.051 218.635 555.413 216.684 555.194 214.738C554.975 212.791 554.542 211.603 553.895 211.172C553.249 210.741 552.705 208.255 552.265 203.714C551.824 199.173 551.279 195.605 550.627 193.011C549.976 190.417 549.327 188.797 548.68 188.149C548.033 187.502 545.024 188.914 539.653 192.387C534.281 195.859 530.735 197.706 529.014 197.926C527.293 198.146 525.897 199.339 524.826 201.504C523.755 203.669 522.794 206.699 521.942 210.594C521.09 214.489 519.374 217.089 516.795 218.392C514.216 219.696 512.937 225.105 512.958 234.622C512.979 244.138 513.977 257.762 515.953 275.493Z" fill="#7c9ab6" fill-rule="evenodd" opacity="1" stroke="#8bb2d6" stroke-linecap="round" stroke-linejoin="round" stroke-width="1"/>
<path d="M523.896 73.0333C524.974 73.896 525.73 75.0839 526.164 76.5969C526.38 77.3534 526.597 78.1099 526.814 78.8664C527.997 78.4312 529.179 77.996 530.361 77.5608C532.726 76.6903 534.769 76.2532 536.491 76.2494C538.212 76.2455 540.257 76.5654 542.625 77.2089C544.993 77.8525 546.717 78.93 547.796 80.4416C548.875 81.9532 550.061 83.032 551.354 83.6779C552.646 84.3239 553.937 84.321 555.227 83.6693C556.516 83.0175 556.835 81.1784 556.183 78.1519C555.531 75.1254 553.803 72.4257 551.001 70.0528C548.198 67.68 545.506 66.2801 542.923 65.8533C540.34 65.4265 537.758 65.4323 535.177 65.8707C532.596 66.309 529.801 67.3967 526.793 69.1337C525.288 70.0022 523.784 70.8707 522.28 71.7392C522.819 72.1705 523.358 72.6019 523.896 73.0333Z" fill="#ffffff" fill-rule="evenodd" opacity="1" stroke="#ffffff" stroke-linecap="round" stroke-linejoin="round" stroke-width="1"/>
<path d="M538.805 101.225C539.559 101.548 540.313 101.87 541.067 102.193C541.065 101.328 541.063 100.463 541.061 99.5978C541.059 98.7327 541.057 97.8676 541.055 97.0024C540.625 97.0034 540.195 97.0044 539.764 97.0053C538.904 97.0072 538.152 97.5496 537.509 98.6325C537.187 99.1739 536.865 99.7153 536.544 100.257C537.298 100.58 538.052 100.902 538.805 101.225Z" fill="#ffffff" fill-rule="evenodd" opacity="1" stroke="#ffffff" stroke-linecap="round" stroke-linejoin="round" stroke-width="1"/>
<path d="M549.125 97.6332C549.774 98.9295 551.388 99.2503 553.969 98.5957C556.549 97.9411 557.945 96.8565 558.157 95.3421C558.263 94.5848 558.369 93.8276 558.475 93.0704C557.722 93.072 556.969 93.0737 556.216 93.0754C555.463 93.0771 554.71 93.0788 553.957 93.0805C553.956 92.756 553.955 92.4316 553.954 92.1072C553.953 91.4583 554.49 91.0246 555.565 90.8059C556.641 90.5872 557.178 90.2616 557.177 89.829C557.176 89.6127 557.176 89.3964 557.175 89.1802C555.885 89.5075 554.595 89.8348 553.305 90.1621C550.724 90.8167 549.22 91.9015 548.793 93.4164C548.366 94.9314 548.477 96.337 549.125 97.6332Z" fill="#ffffff" fill-rule="evenodd" opacity="1" stroke="#ffffff" stroke-linecap="round" stroke-linejoin="round" stroke-width="1"/>
<path d="M549.801 111.258C550.448 112.121 552.385 112.333 555.612 111.893C558.838 111.454 561.096 110.692 562.385 109.607C563.673 108.523 564.317 107.548 564.315 106.683C564.313 105.818 563.342 104.631 561.402 103.121C559.462 101.611 557.417 101.075 555.266 101.513C553.115 101.95 551.504 102.927 550.431 104.443C549.359 105.96 548.824 107.259 548.826 108.34C548.829 109.421 549.154 110.394 549.801 111.258Z" fill="#ffffff" fill-rule="evenodd" opacity="1" stroke="#ffffff" stroke-linecap="round" stroke-linejoin="round" stroke-width="1"/>
<path d="M553.54 196.573C554.41 200.681 555.275 202.95 556.137 203.38C556.999 203.811 560.542 200.667 566.767 193.948C572.992 187.23 578.361 182.892 582.876 180.935C587.39 178.979 592.332 176.156 597.703 172.467C603.074 168.778 606.083 166.933 606.728 166.932C607.374 166.93 610.166 164.977 615.107 161.073C620.047 157.169 624.449 153.05 628.312 148.716C632.175 144.381 634.967 142.104 636.688 141.884C638.409 141.664 640.024 141.985 641.532 142.846C643.04 143.708 644.977 144.136 647.344 144.131C649.711 144.126 652.4 143.795 655.411 143.14C658.421 142.484 660.679 141.614 662.183 140.529C663.686 139.444 666.051 138.358 669.276 137.269C672.501 136.18 678.201 135.411 686.376 134.96C694.552 134.509 699.821 133.524 702.185 132.005C704.548 130.485 705.835 128.86 706.047 127.13C706.258 125.399 705.932 123.994 705.069 122.914C704.206 121.835 702.913 120.972 701.19 120.327C699.468 119.682 697.101 119.58 694.089 120.019C691.078 120.458 686.24 121.767 679.574 123.944C672.909 126.122 666.348 126.894 659.892 126.259C653.435 125.625 648.488 126.285 645.05 128.239C641.611 130.193 639.676 130.955 639.245 130.523C638.814 130.092 638.813 129.551 639.242 128.901C639.67 128.251 641.712 127.057 645.366 125.319C649.02 123.58 654.075 123.028 660.531 123.663C666.988 124.297 674.839 123.198 684.085 120.366C688.708 118.95 693.331 117.533 697.954 116.117C697.63 115.902 697.307 115.686 696.984 115.47C696.338 115.039 694.724 114.935 692.142 115.157C689.561 115.379 686.443 116.467 682.79 118.422C679.136 120.377 676.879 121.355 676.018 121.357C675.588 121.358 675.158 121.359 674.727 121.36C674.942 120.927 675.156 120.494 675.37 120.061C675.798 119.195 677.195 118.326 679.56 117.456C681.925 116.586 683.536 115.609 684.395 114.525C684.824 113.984 685.253 113.442 685.682 112.9C684.283 112.903 682.885 112.907 681.486 112.91C678.689 112.916 674.065 113.575 667.612 114.887C661.16 116.199 655.675 116.644 651.155 116.222C646.636 115.799 643.19 114.509 640.819 112.352C638.447 110.194 636.503 106.738 634.986 101.983C633.47 97.2284 632.172 94.4196 631.095 93.5568C630.017 92.6941 628.94 92.2639 627.864 92.2664C626.788 92.2688 625.822 93.0279 624.965 94.5438C624.107 96.0597 623.788 97.4663 624.006 98.7635C624.224 100.061 625.088 101.897 626.6 104.273C628.111 106.649 628.869 108.918 628.874 111.081C628.879 113.244 628.239 115.624 626.953 118.222C625.668 120.821 625.243 123.093 625.678 125.038C626.112 126.984 625.901 128.715 625.044 130.231C624.186 131.746 622.147 133.806 618.925 136.408C615.703 139.011 611.62 141.291 606.676 143.249C601.731 145.206 598.615 146.727 597.326 147.812C596.037 148.896 594.426 149.765 592.491 150.418C590.556 151.071 588.944 152.048 587.656 153.348C586.368 154.649 585.401 155.3 584.755 155.301C584.11 155.303 582.499 156.496 579.922 158.881C577.345 161.266 574.234 165.166 570.588 170.581C566.942 175.996 563.079 180.114 558.997 182.935C554.915 185.756 552.767 187.707 552.555 188.789C552.342 189.871 552.67 192.466 553.54 196.573Z" fill="#f3d5c4" fill-rule="evenodd" opacity="1" stroke="#f3d5c4" stroke-linecap="round" stroke-linejoin="round" stroke-width="1"/>
<path d="M556.375 456.757C557.9 465.188 558.783 475.136 559.023 486.598C559.264 498.061 559.496 505.63 559.719 509.306C559.942 512.983 560.378 515.253 561.025 516.116C561.672 516.98 561.89 517.953 561.677 519.035C561.571 519.576 561.464 520.117 561.358 520.658C562.003 520.548 562.648 520.438 563.293 520.329C564.584 520.11 566.952 520.429 570.396 521.286C573.841 522.144 578.144 522.35 583.307 521.906C588.47 521.462 591.696 520.482 592.983 518.965C593.627 518.206 594.271 517.448 594.915 516.689C593.299 515.936 591.684 515.183 590.069 514.429C586.838 512.923 584.358 510.441 582.629 506.984C580.9 503.527 579.48 493.798 578.369 477.795C577.257 461.793 576.267 451.63 575.396 447.306C574.526 442.982 573.768 440.497 573.121 439.849C572.474 439.202 571.613 439.204 570.539 439.855C569.464 440.506 566.454 441.378 561.507 442.471C556.561 443.563 554.85 448.325 556.375 456.757Z" fill="#ffffff" fill-rule="evenodd" opacity="1" stroke="#ffffff" stroke-linecap="round" stroke-linejoin="round" stroke-width="1"/>
<path d="M560.123 546.29C560.557 547.803 562.711 548.663 566.584 548.871C568.521 548.975 570.458 549.079 572.394 549.182C572.284 547.885 572.173 546.588 572.063 545.29C571.842 542.695 572.161 541.072 573.02 540.422C573.88 539.771 575.602 540.199 578.187 541.708C580.773 543.216 585.295 544.828 591.753 546.544C598.212 548.26 606.497 548.782 616.609 548.11C626.72 547.439 634.14 546.016 638.869 543.843C643.598 541.67 647.787 538.848 651.437 535.38C655.087 531.911 657.448 529.094 658.519 526.929C659.59 524.764 660.014 521.843 659.791 518.167C659.567 514.49 659.132 512.22 658.485 511.356C657.837 510.493 656.653 509.955 654.931 509.742C653.209 509.53 649.984 510.727 645.256 513.333C640.528 515.939 635.369 517.789 629.777 518.882C624.185 519.976 619.775 520.527 616.548 520.534C613.32 520.541 609.983 519.684 606.537 517.961C603.09 516.239 600.829 515.379 599.753 515.381C598.677 515.383 597.926 516.034 597.498 517.333C597.071 518.631 596.32 519.822 595.247 520.906C594.174 521.99 592.239 522.968 589.444 523.839C586.649 524.71 581.27 524.831 573.307 524.2C565.345 523.569 561.149 523.686 560.721 524.552C560.292 525.418 559.977 528.879 559.776 534.936C559.574 540.992 559.69 544.777 560.123 546.29Z" fill="#573304" fill-rule="evenodd" opacity="1" stroke="#824c04" stroke-linecap="round" stroke-linejoin="round" stroke-width="1"/>
</g>
</svg>
