<?xml version="1.0" encoding="UTF-8" standalone="no"?>
<!DOCTYPE svg PUBLIC "-//W3C//DTD SVG 1.1//EN" "http://www.w3.org/Graphics/SVG/1.1/DTD/svg11.dtd"
[
<!ATTLIST g
  xmlns:vectornator CDATA #FIXED "http://vectornator.io"
  vectornator:layerName CDATA #IMPLIED >
<!ATTLIST g
  xmlns:vectornator CDATA #FIXED "http://vectornator.io"
  vectornator:mask CDATA #IMPLIED >
<!ATTLIST text
  xmlns:vectornator CDATA #FIXED "http://vectornator.io"
  vectornator:width CDATA #IMPLIED >
<!ATTLIST text
  xmlns:vectornator CDATA #FIXED "http://vectornator.io"
  vectornator:text CDATA #IMPLIED >

<!ATTLIST path
  xmlns:vectornator CDATA #FIXED "http://vectornator.io"
  vectornator:blendMode CDATA #IMPLIED >
<!ATTLIST path
  xmlns:vectornator CDATA #FIXED "http://vectornator.io"
  vectornator:shadowColor CDATA #IMPLIED >
<!ATTLIST path
  xmlns:vectornator CDATA #FIXED "http://vectornator.io"
  vectornator:shadowOpacity CDATA #IMPLIED >
<!ATTLIST path
  xmlns:vectornator CDATA #FIXED "http://vectornator.io"
  vectornator:shadowRadius CDATA #IMPLIED >
<!ATTLIST path
  xmlns:vectornator CDATA #FIXED "http://vectornator.io"
  vectornator:shadowOffset CDATA #IMPLIED >
<!ATTLIST path
  xmlns:vectornator CDATA #FIXED "http://vectornator.io"
  vectornator:shadowAngle CDATA #IMPLIED >

<!ATTLIST image
  xmlns:vectornator CDATA #FIXED "http://vectornator.io"
  vectornator:blendMode CDATA #IMPLIED >
<!ATTLIST image
  xmlns:vectornator CDATA #FIXED "http://vectornator.io"
  vectornator:shadowColor CDATA #IMPLIED >
<!ATTLIST image
  xmlns:vectornator CDATA #FIXED "http://vectornator.io"
  vectornator:shadowOpacity CDATA #IMPLIED >
<!ATTLIST image
  xmlns:vectornator CDATA #FIXED "http://vectornator.io"
  vectornator:shadowRadius CDATA #IMPLIED >
<!ATTLIST image
  xmlns:vectornator CDATA #FIXED "http://vectornator.io"
  vectornator:shadowOffset CDATA #IMPLIED >
<!ATTLIST image
  xmlns:vectornator CDATA #FIXED "http://vectornator.io"
  vectornator:shadowAngle CDATA #IMPLIED >

<!ATTLIST g
  xmlns:vectornator CDATA #FIXED "http://vectornator.io"
  vectornator:blendMode CDATA #IMPLIED >
<!ATTLIST g
  xmlns:vectornator CDATA #FIXED "http://vectornator.io"
  vectornator:shadowColor CDATA #IMPLIED >
<!ATTLIST g
  xmlns:vectornator CDATA #FIXED "http://vectornator.io"
  vectornator:shadowOpacity CDATA #IMPLIED >
<!ATTLIST g
  xmlns:vectornator CDATA #FIXED "http://vectornator.io"
  vectornator:shadowRadius CDATA #IMPLIED >
<!ATTLIST g
  xmlns:vectornator CDATA #FIXED "http://vectornator.io"
  vectornator:shadowOffset CDATA #IMPLIED >
<!ATTLIST g
  xmlns:vectornator CDATA #FIXED "http://vectornator.io"
  vectornator:shadowAngle CDATA #IMPLIED >

<!ENTITY % SVG.filter.extra.content  "| feDropShadow" >
<!ELEMENT feDropShadow EMPTY>
<!ATTLIST feDropShadow
  xmlns:svg CDATA #FIXED "http://www.w3.org/Graphics/SVG/1.1/DTD/svg11.dtd"
  dx CDATA #IMPLIED>
<!ATTLIST feDropShadow
  xmlns:svg CDATA #FIXED "http://www.w3.org/Graphics/SVG/1.1/DTD/svg11.dtd"
  dy CDATA #IMPLIED>
<!ATTLIST feDropShadow
  xmlns:svg CDATA #FIXED "http://www.w3.org/Graphics/SVG/1.1/DTD/svg11.dtd"
  stdDeviation CDATA #IMPLIED>
<!ATTLIST feDropShadow
  xmlns:svg CDATA #FIXED "http://www.w3.org/Graphics/SVG/1.1/DTD/svg11.dtd"
  flood-opacity CDATA #IMPLIED>
<!ATTLIST feDropShadow
  xmlns:svg CDATA #FIXED "http://www.w3.org/Graphics/SVG/1.1/DTD/svg11.dtd"
  in CDATA #IMPLIED>
<!ATTLIST feDropShadow
  xmlns:svg CDATA #FIXED "http://www.w3.org/Graphics/SVG/1.1/DTD/svg11.dtd"
  result CDATA #IMPLIED>
<!ATTLIST feDropShadow
  xmlns:svg CDATA #FIXED "http://www.w3.org/Graphics/SVG/1.1/DTD/svg11.dtd"
  flood-color CDATA #IMPLIED>
]
>
<!-- Created with Vectornator (http://vectornator.io/) -->
<svg height="100%" stroke-miterlimit="10" style="fill-rule:nonzero;clip-rule:evenodd;stroke-linecap:round;stroke-linejoin:round;" version="1.1" viewBox="0 0 595.35 841.995" width="100%" xml:space="preserve" xmlns="http://www.w3.org/2000/svg" xmlns:vectornator="http://vectornator.io" xmlns:xlink="http://www.w3.org/1999/xlink">
<defs/>
<g id="Ebene-1" vectornator:layerName="Ebene 1">
<path d="M92.0572 813.337C92.8682 816.122 94.8619 818.898 98.0385 821.668C101.215 824.436 104.385 826.509 107.551 827.885C110.715 829.26 115.655 830.798 122.37 832.502C129.085 834.203 136.979 835.377 146.05 836.02C155.122 836.661 166.548 836.07 180.328 834.245C194.109 832.418 207.282 828.505 219.846 822.505C232.41 816.502 239.873 813.32 242.235 812.957C244.597 812.596 246.767 812.757 248.743 813.443C250.72 814.127 251.914 815.688 252.329 818.125C252.744 820.563 258.27 821.577 268.91 821.163C274.23 820.957 279.549 820.751 284.87 820.545C284.649 817.758 284.429 814.971 284.208 812.183C283.768 806.609 282.736 801.037 281.114 795.47C279.491 789.902 278.085 786.774 276.898 786.084C275.709 785.393 275.033 775.115 274.868 755.248C274.704 735.38 275.149 717.773 276.205 702.43C277.261 687.087 277.974 678.019 278.345 675.228C278.716 672.438 280.865 670.16 284.792 668.393C288.72 666.627 291.457 663.995 293.005 660.501C294.553 657.005 295.579 638.176 296.084 604.014C296.591 569.85 297.626 552.066 299.191 550.663C300.755 549.259 302.916 548.2 305.669 547.486C308.422 546.774 311.775 547.101 315.728 548.472C319.682 549.843 324.87 557.654 331.295 571.907C337.719 586.16 342.374 600.772 345.257 615.744C348.14 630.716 349.613 641.86 349.673 649.181C349.733 656.499 350.757 661.199 352.745 663.279C354.734 665.358 357.701 666.734 361.649 667.408C365.596 668.082 368.885 684.445 371.515 716.498C374.146 748.551 375.28 766.496 374.916 770.332C374.555 774.168 373.783 776.265 372.604 776.62C371.424 776.977 370.858 779.942 370.903 785.519C370.95 791.096 370.395 795.457 369.238 798.6C368.081 801.745 367.144 807.502 366.425 815.872C366.066 820.056 365.705 824.242 365.346 828.427C370.076 828.399 374.807 828.37 379.536 828.342C388.995 828.285 393.894 824.77 394.231 817.796C394.567 810.822 396.312 807.327 399.465 807.308C402.618 807.288 405.19 808.494 407.182 810.921C409.171 813.349 412.344 815.596 416.697 817.662C421.051 819.726 423.823 821.452 425.019 822.841C426.212 824.228 429.77 825.601 435.695 826.959C441.618 828.318 458.964 828.562 487.732 827.691C516.5 826.821 520.357 825.922 523.893 824.507C527.428 823.091 529.265 823.041 532.789 820.232C536.313 817.421 539.982 814.746 545.434 806.696C550.886 798.647 554.785 796.301 554.755 792.817C554.727 789.331 555.227 784.679 550.882 783.659C546.538 782.639 551.031 782.807 539.212 783.576C527.394 784.344 507.428 786.762 492.793 780.575C478.157 774.388 474.648 769.877 468.338 769.565C462.03 769.255 456.533 768.22 452.214 770.337C447.895 772.454 442.075 771.387 440.903 772.788C439.733 774.189 437.188 769.26 430.484 768.952C423.781 768.644 419.037 767.105 416.256 764.333C413.473 761.561 411.058 755.3 409.006 745.553C406.954 735.805 405.045 719.434 403.277 696.438C401.511 673.444 403.97 661.055 410.656 659.27C417.343 657.488 422.843 655.19 427.155 652.375C431.467 649.56 433.408 645.888 432.976 641.36C432.544 636.831 430.137 631.616 425.752 625.717C421.366 619.818 421.107 612.151 424.97 602.716C428.834 593.282 431.752 588.732 433.726 589.069C435.7 589.405 436.878 588.876 437.261 587.479C437.644 586.082 437.242 585.214 436.056 584.873C434.871 584.53 428.829 568.881 417.929 537.924C407.031 506.966 397.507 475.478 389.358 443.458C381.21 411.438 381.256 393.137 389.495 388.556C397.735 383.975 404.399 379.404 409.486 374.842C414.572 370.281 417.088 364.687 417.033 358.066C416.978 351.443 415.332 343.086 412.095 332.997C408.858 322.908 406.046 316.476 403.657 313.702C401.27 310.928 400.059 307.45 400.024 303.267C399.99 299.085 398.572 294.562 395.773 289.699C392.973 284.834 389.783 280.322 386.2 276.161C382.619 272 378.448 268.19 373.689 264.733C368.931 261.276 364.178 258.516 359.431 256.453C354.683 254.391 351.325 253.54 349.357 253.899C348.374 254.08 347.389 254.26 346.406 254.44C346.78 251.998 347.154 249.556 347.527 247.113C348.275 242.229 349.435 239.433 351.006 238.727C351.792 238.373 352.577 238.02 353.362 237.667C352.962 236.971 352.562 236.278 352.162 235.582C351.363 234.193 352.313 230.004 355.014 223.016C356.366 219.523 357.716 216.028 359.067 212.535C356.899 212.548 354.731 212.561 352.563 212.575C348.227 212.601 345.854 211.569 345.443 209.48C345.031 207.391 348.149 203.19 354.799 196.875C361.447 190.56 366.133 185.304 368.858 181.104C371.583 176.906 374.126 174.624 376.489 174.261C378.85 173.9 381.399 172.315 384.135 169.51C386.871 166.706 389.797 163.028 392.914 158.478C396.028 153.927 398.164 149.905 399.317 146.413C400.471 142.921 400.605 135.425 399.723 123.927C398.839 112.43 399.961 105.103 403.088 101.947C406.216 98.7912 407.767 95.8189 407.744 93.0304C407.722 90.2421 406.711 87.2852 404.715 84.1601C402.717 81.0349 400.731 79.1297 398.755 78.4443C397.766 78.1018 396.778 77.7591 395.79 77.4164C396.565 75.8432 397.34 74.2699 398.116 72.6967C399.666 69.5502 399.445 66.5887 397.451 63.8121C395.457 61.0356 394.851 59.1221 395.63 58.0716C396.41 57.0212 395.596 54.0633 393.191 49.1976C390.785 44.3321 386.409 39.304 380.058 34.1135C373.709 28.9232 366.971 24.4321 359.843 20.6406C352.718 16.8491 345.01 14.2812 336.721 12.9366C328.432 11.5922 322.909 10.9283 320.149 10.9447C317.39 10.9614 315.229 11.8457 313.667 13.598C312.885 14.4741 312.105 15.3503 311.324 16.2264C310.728 15.7071 310.132 15.1879 309.537 14.6686C308.345 13.6299 306.372 13.1191 303.612 13.1355C300.853 13.1522 297.113 13.6975 292.392 14.7715C287.669 15.8457 284.329 17.0858 282.37 18.4919C280.411 19.8979 278.054 20.7834 275.297 21.1487C272.542 21.5137 267.629 23.2861 260.559 26.4657C253.49 29.6454 246.043 34.7444 238.219 41.7629C230.392 48.7815 226.293 53.5118 225.919 55.9541C225.545 58.3963 223.2 60.8505 218.884 63.3164C214.57 65.7823 212.225 68.2365 211.851 70.6787C211.477 73.121 212.288 75.9047 214.286 79.0299C215.284 80.5924 216.282 82.155 217.28 83.7175C215.706 84.0756 214.133 84.4336 212.559 84.7917C209.41 85.5077 207.056 86.7419 205.495 88.4941C203.931 90.2463 203.164 92.691 203.189 95.8281C203.215 98.965 204.62 101.919 207.402 104.691C210.184 107.463 211.026 113.907 209.927 124.022C208.828 134.137 209.284 141.454 211.291 145.974C213.299 150.494 216.494 155.529 220.877 161.079C225.258 166.63 231.423 173.216 239.369 180.836C247.315 188.457 253.482 195.219 257.867 201.118C260.059 204.067 262.25 207.017 264.444 209.966C263.263 210.322 262.084 210.678 260.904 211.033C258.545 211.745 255.194 211.59 250.849 210.572C248.677 210.062 246.505 209.552 244.333 209.042C246.154 214.782 247.976 220.522 249.796 226.263C251.617 232.004 253.439 237.744 255.261 243.485C250.734 244.209 246.206 244.933 241.68 245.658C232.625 247.106 225.154 249.243 219.265 252.067C213.374 254.891 207.888 258.758 202.805 263.668C197.721 268.58 194.027 274.701 191.723 282.036C189.418 289.369 188.745 303.316 189.704 323.877C190.663 344.436 192.13 355.059 194.107 355.744C196.083 356.43 198.05 355.894 200.005 354.14C201.962 352.386 203.728 351.503 205.306 351.495C206.883 351.485 209.49 356.872 213.126 367.656C216.762 378.44 218.587 384.529 218.598 385.924C218.609 387.317 217.434 388.195 215.072 388.558C212.711 388.921 210.943 389.803 209.773 391.205C208.603 392.607 208.432 395.745 209.26 400.62C210.088 405.495 209.727 409.33 208.172 412.128C206.619 414.927 205.66 418.244 205.298 422.08C204.935 425.917 205.553 429.051 207.149 431.48C208.747 433.912 212.696 434.934 219 434.547C222.152 434.354 225.304 434.161 228.456 433.967C226.599 447.746 224.742 461.527 222.886 475.307C219.172 502.866 216.732 517.695 215.568 519.794C214.402 521.892 213.266 527.475 212.159 536.546C211.051 545.615 209.914 551.199 208.749 553.298C207.585 555.395 205.883 564.12 203.644 579.471C201.407 594.822 202.073 603.882 205.643 606.648C209.213 609.416 213.388 613.747 218.167 619.644C222.946 625.541 224.016 635.644 221.375 649.951C218.734 664.258 218.408 672.452 220.395 674.531C222.383 676.611 225.744 677.811 230.476 678.131C235.21 678.45 237.778 679.307 238.184 680.698C238.59 682.091 239.062 691.499 239.6 708.924C240.139 726.35 240.033 737.506 239.287 742.389C238.538 747.274 236.417 752.864 232.922 759.159C229.425 765.455 225.129 770.186 220.031 773.354C214.932 776.522 211.198 777.764 208.827 777.082C206.456 776.399 203.302 776.243 199.364 776.616C195.424 776.987 191.096 777.885 186.377 779.307C181.659 780.73 175.573 783.556 168.119 787.783C160.664 792.011 155.364 794.484 152.215 795.199C149.069 795.915 139.215 796.149 122.659 795.899C106.1 795.65 96.8433 796.229 94.8841 797.635C92.9247 799.042 91.7604 801.313 91.3925 804.452C91.0246 807.592 91.2462 810.553 92.0572 813.337Z" fill="#000000" fill-rule="evenodd" opacity="1" stroke="#000000" stroke-linecap="round" stroke-linejoin="round" stroke-width="1"/>
<path d="M98.5739 814.867C100.57 817.992 103.152 820.417 106.32 822.14C109.488 823.864 114.627 825.75 121.74 827.8C128.852 829.848 136.55 831.196 144.833 831.843C153.116 832.491 161.001 832.617 168.486 832.224C175.972 831.83 183.257 830.915 190.341 829.479C197.424 828.041 207.05 824.325 219.221 818.324C231.39 812.326 239.246 808.967 242.788 808.249C246.33 807.531 249.085 807.165 251.055 807.154C253.027 807.142 254.42 808.877 255.237 812.357C256.055 815.839 260.404 817.38 268.284 816.984C272.224 816.786 276.165 816.589 280.104 816.39C279.889 814.126 279.673 811.862 279.457 809.598C279.026 805.068 278.006 800.891 276.397 797.067C274.788 793.242 266.498 791.723 251.527 792.51C236.554 793.297 228.279 793.522 226.698 793.183C225.119 792.843 223.135 791.287 220.748 788.513C218.359 785.739 215.785 784.359 213.026 784.376C210.268 784.393 208.687 783.879 208.284 782.836C207.88 781.792 206.496 781.104 204.128 780.769C201.76 780.436 197.823 780.982 192.315 782.409C186.809 783.837 182.096 785.782 178.173 788.246C174.253 790.71 171.503 791.947 169.927 791.955C168.35 791.965 164.028 793.559 156.959 796.739C149.889 799.919 138.863 801.204 123.879 800.598C108.895 799.99 100.619 800.04 99.0473 800.746C97.477 801.454 96.506 803.203 96.1358 805.993C95.764 808.784 96.5761 811.742 98.5739 814.867Z" fill="#573304" fill-rule="evenodd" opacity="1" stroke="#824c04" stroke-linecap="round" stroke-linejoin="round" stroke-width="1"/>
<path d="M194.599 343.716C195.425 348.242 196.428 350.502 197.61 350.494C198.793 350.488 200.95 349.254 204.084 346.796C207.217 344.336 214.483 341.156 225.882 337.254C237.281 333.35 242.775 330.355 242.362 328.266C241.952 326.177 242.879 319.2 245.146 307.335C247.413 295.47 248.34 288.319 247.925 285.881C247.718 284.662 247.51 283.444 247.303 282.224C248.092 282.22 248.88 282.214 249.669 282.21C250.456 282.206 251.245 282.2 252.033 282.196C252.055 284.81 252.076 287.424 252.098 290.038C252.141 295.267 251.772 298.232 250.99 298.934C250.207 299.635 249.067 304.871 247.572 314.64C246.076 324.408 245.731 330.337 246.536 332.424C246.938 333.467 247.342 334.511 247.745 335.553C247.351 335.555 246.957 335.558 246.562 335.561C246.168 335.563 245.774 335.565 245.379 335.567C245.385 336.265 245.392 336.962 245.396 337.658C245.409 339.053 244.825 340.103 243.649 340.807C242.472 341.51 242.286 342.906 243.093 344.993C243.495 346.036 243.899 347.08 244.301 348.122C245.649 344.28 246.996 340.438 248.344 336.595C251.04 328.911 256.079 318.597 263.462 305.655C270.843 292.715 274.328 285.2 273.917 283.109C273.506 281.021 270.527 278.251 264.98 274.798C259.433 271.346 256.836 267.178 257.189 262.297C257.544 257.414 257.119 253.756 255.917 251.324C254.714 248.891 248.802 248.927 238.18 251.43C227.557 253.934 220.482 256.242 216.951 258.355C213.421 260.468 209.701 263.452 205.791 267.311C201.881 271.168 198.77 276.242 196.458 282.53C194.144 288.817 193.05 299.455 193.173 314.443C193.298 329.432 193.773 339.189 194.599 343.716Z" fill="#7c9ab6" fill-rule="evenodd" opacity="1" stroke="#8bb2d6" stroke-linecap="round" stroke-linejoin="round" stroke-width="1"/>
<path d="M217.511 611.805C225.069 620.125 230.848 627.759 234.847 634.707C238.847 641.654 241.439 645.299 242.624 645.64C243.217 645.811 243.809 645.982 244.403 646.152C246.056 631.677 247.71 617.202 249.364 602.726C252.672 573.774 255.848 552.666 258.891 539.402C261.935 526.138 264.702 503.29 267.193 470.857C268.44 454.641 269.685 438.425 270.93 422.209C268.961 422.395 266.992 422.582 265.021 422.766C261.083 423.139 254.789 424.746 246.141 427.587C237.493 430.428 232.623 437.427 231.534 448.589C230.444 459.75 229.127 467.426 227.585 471.618C226.043 475.81 224.714 481.919 223.598 489.943C222.481 497.966 221.943 504.243 221.979 508.775C222.018 513.306 219.939 524.125 215.745 541.23C211.55 558.335 208.906 572.294 207.814 583.106C206.72 593.919 209.953 603.484 217.511 611.805Z" fill="#7c9ab6" fill-rule="evenodd" opacity="1" stroke="#8bb2d6" stroke-linecap="round" stroke-linejoin="round" stroke-width="1"/>
<path d="M210.675 428.846C211.469 429.538 213.64 429.873 217.189 429.851C220.735 429.831 227.817 428.219 238.433 425.018C249.05 421.818 257.114 419.852 262.626 419.122C268.139 418.392 271.483 417.501 272.655 416.447C273.829 415.394 276.586 415.029 280.924 415.351C285.263 415.674 296.287 414.214 313.998 410.971C331.71 407.726 343.906 404.865 350.586 402.384C357.267 399.904 366.886 395.314 379.444 388.616C392.004 381.918 400.628 376.289 405.321 371.73C410.014 367.171 412.129 360.883 411.669 352.869C411.208 344.855 409.771 337.891 407.357 331.979C404.942 326.068 402.944 322.594 401.357 321.558C399.772 320.523 398.97 318.784 398.95 316.344C398.929 313.905 398.524 312.513 397.733 312.169C397.336 311.997 396.941 311.826 396.546 311.654C395.19 314.624 393.835 317.595 392.48 320.567C389.77 326.509 386.455 330.712 382.534 333.176C378.613 335.638 376.667 338.787 376.699 342.622C376.731 346.456 377.339 348.544 378.524 348.885C379.709 349.226 380.508 350.442 380.919 352.531C381.126 353.574 381.332 354.62 381.537 355.663C380.157 355.672 378.778 355.681 377.398 355.688C374.639 355.705 366.975 358.366 354.405 363.669C341.836 368.974 331.242 374.963 322.626 381.638C314.008 388.312 307.54 392.535 303.219 394.304C298.898 396.072 290.826 397.341 279.008 398.109C267.19 398.878 258.152 402.417 251.898 408.729C245.644 415.04 241.531 418.203 239.56 418.215C237.589 418.227 235.415 417.543 233.039 416.162C230.662 414.783 228.065 410.615 225.249 403.661C222.432 396.705 220.037 393.061 218.063 392.723C216.09 392.386 214.712 392.569 213.929 393.271C213.146 393.973 213.169 396.587 213.995 401.113C214.819 405.641 214.456 409.302 212.901 412.1C211.349 414.898 210.391 418.215 210.028 422.052C209.666 425.889 209.882 428.153 210.675 428.846Z" fill="#f3d5c4" fill-rule="evenodd" opacity="1" stroke="#f3d5c4" stroke-linecap="round" stroke-linejoin="round" stroke-width="1"/>
<path d="M210.333 101.537C212.727 105.008 215.305 107.084 218.07 107.764C220.834 108.445 224.187 108.599 228.125 108.227C232.065 107.855 235.205 106.441 237.551 103.987C239.896 101.533 241.057 99.0863 241.038 96.6463C241.016 94.2064 240.411 92.4673 239.221 91.4286C238.03 90.3901 236.449 90.0511 234.481 90.4114C232.514 90.7718 230.537 90.0866 228.552 88.3556C226.567 86.6246 223.018 86.2974 217.901 87.3739C212.787 88.4504 209.647 90.212 208.485 92.6591C207.322 95.1061 207.939 98.0652 210.333 101.537Z" fill="#ffffff" fill-rule="evenodd" opacity="1" stroke="#ffffff" stroke-linecap="round" stroke-linejoin="round" stroke-width="1"/>
<path d="M219.712 377.551C225.369 394.248 229.59 404.332 232.379 407.8C235.167 411.269 237.349 413 238.925 412.99C240.502 412.98 242.466 412.098 244.817 410.34C247.166 408.583 253.419 402.096 263.575 390.882C273.732 379.666 283.262 364.445 292.17 345.221C301.076 325.996 306.671 311.322 308.953 301.2C311.233 291.077 316.473 281.286 324.673 271.825C332.872 262.364 337.747 256.06 339.297 252.914C340.848 249.767 341.597 245.057 341.546 238.784C341.494 232.51 340.283 229.03 337.913 228.349C335.541 227.665 334.542 225.928 334.913 223.138C335.098 221.742 335.284 220.346 335.47 218.951C334.879 218.955 334.287 218.958 333.696 218.963C332.513 218.969 330.555 220.549 327.822 223.704C325.09 226.857 322.935 228.438 321.358 228.448C320.569 228.452 319.78 228.456 318.993 228.462C319.555 224.973 320.118 221.484 320.68 217.994C321.805 211.016 323.54 206.3 325.885 203.846C328.229 201.392 329.979 198.593 331.136 195.449C332.293 192.304 334.241 189.504 336.979 187.048C339.719 184.592 341.079 182.318 341.061 180.225C341.044 178.134 339.851 176.922 337.484 176.587C335.116 176.253 332.561 177.14 329.82 179.248C327.078 181.356 324.152 185.208 321.046 190.803C317.939 196.399 314.43 201.126 310.52 204.984C306.61 208.841 303.295 213.044 300.574 217.592C297.851 222.141 295.7 224.07 294.118 223.383C292.535 222.695 292.294 217.294 293.393 207.179C294.491 197.064 294.053 191.838 292.08 191.5C290.106 191.163 288.728 191.346 287.945 192.048C287.164 192.75 286.044 200.425 284.588 215.074C283.134 229.722 282.821 239.659 283.653 244.882C284.484 250.106 284.534 256.206 283.805 263.182C283.074 270.158 281.555 277.138 279.248 284.124C276.94 291.11 273.644 297.752 269.36 304.051C265.076 310.352 260.418 318.92 255.384 329.756C250.349 340.592 247.061 348.106 245.519 352.298C243.976 356.491 243.033 361.55 242.688 367.477C242.514 370.443 242.342 373.407 242.17 376.37C241.38 376.2 240.59 376.032 239.801 375.861C238.221 375.523 237.774 369.076 238.458 356.524C238.8 350.247 239.142 343.971 239.484 337.695C234.964 339.115 230.442 340.538 225.92 341.959C216.878 344.802 212.168 347.27 211.792 349.364C211.415 351.457 214.056 360.853 219.712 377.551Z" fill="#f3d5c4" fill-rule="evenodd" opacity="1" stroke="#f3d5c4" stroke-linecap="round" stroke-linejoin="round" stroke-width="1"/>
<path d="M221.304 784.327C223.291 786.405 225.274 787.788 227.251 788.474C229.227 789.159 236.913 789.113 250.309 788.335C263.704 787.558 270.321 777.234 270.155 757.367C269.992 737.5 270.621 718.324 272.045 699.842C272.756 690.599 273.469 681.358 274.18 672.117C268.869 673.369 263.559 674.621 258.247 675.873C247.625 678.376 242.722 681.194 243.535 684.327C244.35 687.459 244.827 697.39 244.965 714.12C245.103 730.852 244.794 741.136 244.037 744.975C243.282 748.814 240.96 754.232 237.076 761.226C233.194 768.22 229.685 772.947 226.552 775.407C223.418 777.865 221.261 779.099 220.078 779.105C219.487 779.108 218.895 779.113 218.305 779.116C218.307 779.465 218.311 779.813 218.313 780.162C218.32 780.858 219.316 782.246 221.304 784.327Z" fill="#ffffff" fill-rule="evenodd" opacity="1" stroke="#ffffff" stroke-linecap="round" stroke-linejoin="round" stroke-width="1"/>
<path d="M219.016 150.633C220.61 152.715 222.203 154.796 223.797 156.879C223.39 155.139 222.982 153.399 222.573 151.657C221.756 148.177 220.556 146.093 218.973 145.405C217.39 144.718 216.397 143.678 215.991 142.285C215.788 141.59 215.584 140.894 215.383 140.198C215.191 140.896 215 141.595 214.808 142.293C214.425 143.689 215.828 146.47 219.016 150.633Z" fill="#ffffff" fill-rule="evenodd" opacity="1" stroke="#ffffff" stroke-linecap="round" stroke-linejoin="round" stroke-width="1"/>
<path d="M216.5 132.348C218.12 137.567 219.916 140.17 221.886 140.158C223.856 140.148 225.231 139.441 226.008 138.042C226.784 136.644 227.765 136.114 228.95 136.457C229.543 136.626 230.135 136.798 230.728 136.969C229.751 138.02 228.776 139.072 227.798 140.123C225.845 142.226 225.482 146.063 226.71 151.633C227.94 157.202 231.541 163.803 237.518 171.436C243.493 179.069 249.462 185.83 255.424 191.721C261.385 197.61 264.968 201.945 266.174 204.727C267.379 207.509 267.791 209.598 267.409 210.994C267.026 212.391 269.036 217.085 273.437 225.075C275.639 229.071 277.839 233.067 280.041 237.061C280.18 230.09 280.319 223.117 280.459 216.144C280.737 202.2 281.654 193.829 283.207 191.03C284.761 188.233 287.113 186.65 290.262 186.283C293.413 185.915 295.782 186.424 297.371 187.808C298.959 189.193 299.185 192.678 298.048 198.262C296.912 203.845 296.356 208.032 296.378 210.82C296.391 212.215 296.402 213.608 296.413 215.003C296.808 215.001 297.202 214.998 297.595 214.996C298.384 214.991 303.062 208.689 311.629 196.089C320.197 183.488 325.657 176.309 328.007 174.553C330.358 172.795 333.503 171.905 337.446 171.882C341.386 171.858 343.754 172.193 344.548 172.884C345.343 173.578 345.558 175.842 345.197 179.678C344.834 183.515 342.893 187.186 339.374 190.694C335.856 194.2 334.102 196.651 334.114 198.044C334.125 199.439 332.379 202.762 328.875 208.01C325.372 213.26 323.824 216.929 324.235 219.019C324.441 220.063 324.648 221.108 324.853 222.152C325.634 221.276 326.415 220.4 327.197 219.524C328.758 217.771 331.507 216.36 335.439 215.291C339.372 214.222 341.322 211.596 341.287 207.413C341.253 203.231 344.953 197.98 352.39 191.661C359.827 185.342 365.688 179.032 369.972 172.733C374.256 166.432 376.963 160.316 378.097 154.383C379.23 148.451 379.005 144.966 377.42 143.93C375.835 142.894 375.036 141.679 375.025 140.284C375.012 138.89 375.794 138.014 377.368 137.656C378.941 137.298 380.325 137.813 381.519 139.2C382.116 139.894 382.713 140.587 383.31 141.281C384.091 140.405 384.873 139.527 385.653 138.651C387.216 136.899 388.966 134.101 390.906 130.255C392.844 126.409 393.99 121.87 394.341 116.64C394.691 111.409 392.498 108.285 387.758 107.268C383.02 106.251 379.281 106.97 376.543 109.427C375.173 110.655 373.803 111.883 372.435 113.111C372.233 112.59 372.031 112.068 371.831 111.546C371.427 110.503 372.205 109.104 374.16 107.349C376.117 105.595 377.091 104.195 377.082 103.149C377.073 102.103 375.878 100.542 373.496 98.4649C371.113 96.3878 369.909 93.7807 369.883 90.6436C369.858 87.5067 371.013 84.1882 373.349 80.6885C375.685 77.1888 371.305 71.8121 360.207 64.5588C349.111 57.3054 340.405 53.1748 334.089 52.167C327.774 51.1592 322.638 49.7958 318.683 48.0767C314.726 46.3576 311.755 44.4583 309.766 42.3788C307.779 40.2994 305.798 39.2654 303.828 39.2773C301.858 39.2891 298.707 39.6566 294.377 40.3798C290.046 41.1029 285.919 42.3479 281.991 44.1142C278.064 45.8807 271.592 49.754 262.576 55.7339C253.56 61.7138 248.467 65.5787 247.299 67.3286C246.131 69.0784 245.365 71.6973 244.999 75.1852C244.634 78.6732 242.684 81.2993 239.151 83.0634C237.385 83.9453 235.619 84.8274 233.851 85.7094C235.632 86.5702 237.413 87.4309 239.195 88.2917C242.757 90.0131 244.554 92.7909 244.584 96.625C244.617 100.459 242.675 103.957 238.758 107.117C234.844 110.278 229.929 111.876 224.017 111.912C218.105 111.947 214.969 114.057 214.61 118.242C214.25 122.428 214.881 127.129 216.5 132.348Z" fill="#f3d5c4" fill-rule="evenodd" opacity="1" stroke="#f3d5c4" stroke-linecap="round" stroke-linejoin="round" stroke-width="1"/>
<path d="M220.788 78.9907C223.961 81.4117 227.322 82.6115 230.869 82.5901C234.418 82.5688 237.171 81.8552 239.13 80.4492C241.089 79.0431 242.055 76.7715 242.029 73.6345C242.003 70.4976 240.408 68.2414 237.243 66.8661C234.079 65.4908 231.313 64.8103 228.949 64.8245C226.584 64.8387 224.817 65.5464 223.645 66.9479C223.059 67.6485 222.474 68.3492 221.889 69.0498C221.491 68.7036 221.095 68.3575 220.697 68.0113C219.903 67.3188 218.916 67.1505 217.737 67.5062C216.557 67.8619 215.977 69.2595 215.999 71.6995C216.018 74.1394 217.614 76.5698 220.788 78.9907Z" fill="#ffffff" fill-rule="evenodd" opacity="1" stroke="#ffffff" stroke-linecap="round" stroke-linejoin="round" stroke-width="1"/>
<path d="M225.108 672.412C227.09 673.793 230.84 674.469 236.359 674.435C241.878 674.402 250.734 672.955 262.93 670.094C275.125 667.231 282.399 664.922 284.749 663.165C287.1 661.407 288.84 657.389 289.971 651.107C291.101 644.826 291.74 626.871 291.89 597.242C292.039 567.611 292.891 551.571 294.448 549.123C296.005 546.674 298.945 544.738 303.268 543.318C307.593 541.897 310.939 541.18 313.303 541.166C315.668 541.152 318.04 542.009 320.42 543.737C322.799 545.467 325.988 549.805 329.988 556.752C333.986 563.7 338.005 572.912 342.042 584.392C346.079 595.87 349.558 611.534 352.481 631.385C355.406 651.238 358.054 661.679 360.427 662.711C362.801 663.741 366.352 664.069 371.078 663.692C375.805 663.315 384.856 661.344 398.227 657.777C411.6 654.211 419.856 651.547 422.994 649.785C426.134 648.024 427.687 645.226 427.654 641.391C427.624 637.557 426.211 633.557 423.417 629.391C420.623 625.226 418.834 623.319 418.049 623.672C417.262 624.025 415.914 627.868 414.005 635.199C412.095 642.53 410.351 646.201 408.774 646.211C407.987 646.216 407.198 646.22 406.41 646.226C406.598 645.178 406.787 644.131 406.975 643.084C407.351 640.991 405.937 636.816 402.732 630.561C399.528 624.306 397.714 619.437 397.29 615.954C396.866 612.471 395.657 609.167 393.661 606.041C391.664 602.916 390.455 599.612 390.031 596.128C389.608 592.646 386.579 583.775 380.942 569.517C375.305 555.259 370.85 540.821 367.576 526.2C364.3 511.581 361.251 500.27 358.426 492.27C357.013 488.269 355.6 484.269 354.187 480.268C353.608 481.667 353.028 483.065 352.448 484.463C351.289 487.258 349.731 489.533 347.774 491.287C345.819 493.043 343.486 497.064 340.779 503.355C338.073 509.646 336.127 512.795 334.944 512.803C333.763 512.809 330.988 510.909 326.62 507.1C322.253 503.292 319.667 500.519 318.865 498.781C318.063 497.043 316.87 495.831 315.287 495.143C313.704 494.456 311.355 496.386 308.24 500.937C305.124 505.487 303.378 508.808 303.001 510.903C302.625 512.996 301.458 514.92 299.501 516.674C298.523 517.552 297.544 518.43 296.567 519.307C292.199 515.499 287.831 511.691 283.463 507.883C279.097 504.074 274.729 500.266 270.361 496.459C270.002 500.643 269.642 504.829 269.283 509.014C268.565 517.383 266.682 528.027 263.635 540.941C260.587 553.857 257.225 576.012 253.543 607.405C249.859 638.8 247.035 654.676 245.067 655.037C244.083 655.217 243.099 655.398 242.115 655.577C242.11 654.88 242.104 654.184 242.097 653.487C242.086 652.092 239.892 648.968 235.517 644.115C233.328 641.688 231.14 639.26 228.952 636.834C227.816 642.418 226.68 648.001 225.543 653.586C223.27 664.754 223.125 671.029 225.108 672.412Z" fill="#6a6865" fill-rule="evenodd" opacity="1" stroke="#c2bbbb" stroke-linecap="round" stroke-linejoin="round" stroke-width="1"/>
<path d="M236.621 63.2098C241.761 64.9217 245.305 64.552 247.256 62.1003C249.207 59.6484 253.317 56.3123 259.589 52.0918C265.862 47.8712 272.138 44.3477 278.422 41.5214C284.706 38.6951 290.605 37.091 296.12 36.7093C301.636 36.3276 304.38 34.5682 304.355 31.4313C304.329 28.2942 304.895 25.328 306.054 22.5323C306.634 21.1347 307.215 19.7369 307.794 18.3391C305.429 18.3533 303.063 18.3675 300.699 18.3817C295.97 18.4101 286.924 20.9045 273.562 25.8647C260.201 30.825 249.803 36.4648 242.366 42.7837C234.929 49.1027 230.827 53.6589 230.061 56.452C229.298 59.2452 231.483 61.4979 236.621 63.2098Z" fill="#ffffff" fill-rule="evenodd" opacity="1" stroke="#ffffff" stroke-linecap="round" stroke-linejoin="round" stroke-width="1"/>
<path d="M246.697 138.142C249.056 137.43 250.683 142.948 257.451 150.926C264.218 158.901 271.953 164.781 280.657 168.563C289.359 172.345 297.258 174.215 304.353 174.172C311.448 174.129 318.534 173.041 325.612 170.907C332.689 168.774 337.993 166.65 341.523 164.538C345.054 162.425 349.359 158.739 354.439 153.48C359.52 148.22 362.915 142.688 364.889 143.024C365.875 143.192 365.851 146.434 366.838 146.601C366.633 145.557 366.249 144.797 366.042 143.752C365.631 141.663 365.086 140.973 363.101 139.242C361.115 137.512 359.185 136.346 355.638 136.368C353.863 136.379 351.931 136.561 350.156 136.572C350.162 137.269 350.161 136.599 350.167 137.297C350.172 137.994 350.425 136.735 349.816 138.668C351.196 138.659 353.635 137.587 355.015 137.579C357.774 137.562 359.467 138.175 360.264 139.217C360.663 139.736 362.192 141.055 362.591 141.576C362 141.579 364.367 141.759 363.775 141.762C362.592 141.768 356.728 147.98 352.042 153.236C347.356 158.494 340.019 162.753 332.949 165.933C325.88 169.113 318.33 170.823 310.847 171.566C303.363 172.308 295.27 170.708 287.762 168.313C280.252 165.918 273.359 162.86 268.994 159.401C264.63 155.941 259.662 150.782 255.679 145.926C251.697 141.069 250.201 138.047 250.588 137C250.973 135.952 255.147 134.556 259.087 134.184C261.056 133.998 263.025 133.811 264.994 133.625C264.792 133.104 264.592 132.582 264.39 132.061C263.987 131.017 262.751 132.336 259.987 132.004C257.226 131.672 253.348 133.11 248.902 135.008C244.722 136.794 243.622 136.911 242.847 138.657C242.461 139.531 240.61 140.221 240.222 141.094C241.403 140.739 245.518 138.497 246.697 138.142Z" fill="#000000" fill-rule="evenodd" opacity="1" stroke="#000000" stroke-linecap="round" stroke-linejoin="round" stroke-width="1"/>
<path d="M254.539 227.803C257.35 234.061 259.39 242.239 260.655 252.34C261.921 262.443 264.735 269.048 269.097 272.159C271.277 273.715 273.458 275.269 275.639 276.826C276.412 274.903 277.183 272.981 277.956 271.06C279.501 267.216 280.046 261.636 279.592 254.319C279.138 247.001 277.919 242.651 275.937 241.27C273.954 239.887 273.154 238.498 273.536 237.1C273.919 235.703 272.707 232.051 269.898 226.142C267.09 220.233 263.119 216.771 257.987 215.757C255.421 215.249 252.854 214.741 250.288 214.235C250.294 214.931 250.301 215.628 250.305 216.326C250.318 217.719 251.728 221.547 254.539 227.803Z" fill="#7c9ab6" fill-rule="evenodd" opacity="1" stroke="#8bb2d6" stroke-linecap="round" stroke-linejoin="round" stroke-width="1"/>
<path d="M270.701 394.499C273.851 394.131 275.413 392.379 275.387 389.241C275.373 387.674 275.361 386.104 275.348 384.537C273.786 386.289 272.224 388.041 270.661 389.793C269.1 391.545 267.538 393.297 265.975 395.049C267.55 394.867 269.125 394.682 270.701 394.499Z" fill="#ffffff" fill-rule="evenodd" opacity="1" stroke="#ffffff" stroke-linecap="round" stroke-linejoin="round" stroke-width="1"/>
<path d="M265.752 72.1091C266.598 72.104 268.556 70.5669 271.629 67.4977C274.7 64.4284 278.346 62.4117 282.563 61.4478C286.779 60.4837 289.02 59.1796 289.289 57.5353C289.557 55.8908 288.983 54.7209 287.57 54.0255C286.863 53.6777 286.156 53.3299 285.449 52.9821C285.311 53.3349 285.174 53.6878 285.035 54.0406C284.76 54.7463 283.638 55.3397 281.671 55.8209C279.703 56.3021 277.178 57.4905 274.096 59.3865C271.013 61.2825 268.637 63.2914 266.965 65.4136C265.293 67.5357 264.46 69.1834 264.47 70.3567C264.475 70.9435 264.48 71.5301 264.485 72.1167C264.907 72.1142 265.329 72.1116 265.752 72.1091Z" fill="#000000" fill-rule="evenodd" opacity="1" stroke="#000000" stroke-linecap="round" stroke-linejoin="round" stroke-width="1"/>
<path d="M283.412 501.608C291.354 508.533 295.913 511.817 297.092 511.461C298.273 511.106 300.998 506.906 305.267 498.863C309.536 490.821 312.459 486.794 314.035 486.784C315.612 486.776 316.803 487.814 317.608 489.901C318.414 491.988 321.201 495.281 325.969 499.785C330.735 504.287 333.708 506.36 334.889 506.005C336.068 505.65 338.981 500.403 343.628 490.266C348.274 480.13 348.752 466.533 345.064 449.476C341.375 432.417 339.513 421.797 339.478 417.615C339.461 415.522 339.444 413.431 339.426 411.341C328.995 412.972 318.562 414.602 308.131 416.233C287.265 419.496 276.087 426.187 274.594 436.304C273.101 446.422 272.213 458.105 271.927 471.351C271.643 484.599 275.471 494.685 283.412 501.608Z" fill="#4f6b86" fill-rule="evenodd" opacity="1" stroke="#7c9ab6" stroke-linecap="round" stroke-linejoin="round" stroke-width="1"/>
<path d="M281.885 102.675C290.947 102.272 295.475 101.548 295.466 100.502C295.457 99.4566 294.859 98.5887 293.67 97.8988C292.483 97.2087 291.661 93.2051 291.206 85.8877C290.979 82.229 290.751 78.5705 290.524 74.9118C289.343 75.0931 288.161 75.2746 286.981 75.4559C284.618 75.8187 282.068 77.2283 279.33 79.6847C276.59 82.1413 274.066 86.6878 271.756 93.3247C270.601 96.6431 269.445 99.9613 268.291 103.28C272.822 103.078 277.354 102.877 281.885 102.675Z" fill="#000000" fill-rule="evenodd" opacity="1" stroke="#000000" stroke-linecap="round" stroke-linejoin="round" stroke-width="1"/>
<path d="M275.942 99.051C277.912 99.0392 279.28 97.4623 280.041 94.3205C280.423 92.7497 280.804 91.1789 281.184 89.6079C281.778 89.7787 282.371 89.9494 282.963 90.1201C284.148 90.4616 284.949 92.0253 285.367 94.8114C285.784 97.5975 286.387 98.9882 287.176 98.9834C287.57 98.9811 287.963 98.9787 288.357 98.9763C288.134 95.8405 287.912 92.7047 287.689 89.5689C287.242 83.2973 286.429 80.165 285.246 80.1721C284.063 80.1792 282.104 81.5852 279.368 84.3902C276.632 87.1953 274.885 90.343 274.125 93.8332C273.745 95.5784 273.366 97.3236 272.986 99.0686C273.972 99.0628 274.956 99.0569 275.942 99.051Z" fill="#ffffff" fill-rule="evenodd" opacity="1" stroke="#ffffff" stroke-linecap="round" stroke-linejoin="round" stroke-width="1"/>
<path d="M286.069 393.883C290.798 393.855 295.323 392.957 299.644 391.187C303.967 389.419 310.241 385.547 318.469 379.571C326.698 373.597 328.157 359.471 322.849 337.194C320.194 326.054 317.541 314.916 314.886 303.778C314.493 303.955 314.101 304.131 313.708 304.308C312.923 304.662 310.606 310.427 306.756 321.605C302.906 332.783 300.588 338.374 299.799 338.378C299.011 338.382 297.658 341.528 295.739 347.814C293.819 354.099 290.72 360.566 286.439 367.215C282.158 373.865 279.843 379.979 279.495 385.557C279.322 388.347 279.147 391.136 278.974 393.926C281.339 393.912 283.703 393.897 286.069 393.883Z" fill="#4f6b86" fill-rule="evenodd" opacity="1" stroke="#7c9ab6" stroke-linecap="round" stroke-linejoin="round" stroke-width="1"/>
<path d="M280.966 134.575C282.954 136.655 285.927 138.729 289.886 140.795C293.846 142.864 297.406 144.411 300.568 145.437C303.73 146.465 307.675 146.964 312.405 146.935C317.136 146.907 321.261 145.314 324.782 142.155C328.305 138.997 330.639 135.323 331.786 131.133C332.934 126.943 332.126 124.508 329.362 123.827C326.596 123.147 323.629 121.77 320.457 119.698C317.287 117.626 312.35 116.435 305.647 116.127C298.943 115.819 293.039 116.9 287.936 119.37C282.832 121.841 279.896 124.473 279.133 127.266C278.367 130.059 278.979 132.496 280.966 134.575Z" fill="#000000" fill-rule="evenodd" opacity="1" stroke="#000000" stroke-linecap="round" stroke-linejoin="round" stroke-width="1"/>
<path d="M289.604 463.925C292.37 464.606 294.338 464.245 295.508 462.844C296.68 461.443 296.853 458.653 296.029 454.476C295.208 450.297 293.806 447.692 291.827 446.658C289.848 445.624 288.27 445.634 287.097 446.686C285.923 447.739 285.355 450.705 285.396 455.585C285.437 460.465 286.84 463.246 289.604 463.925Z" fill="#000000" fill-rule="evenodd" opacity="1" stroke="#000000" stroke-linecap="round" stroke-linejoin="round" stroke-width="1"/>
<path d="M291.135 137.863C298.411 142.046 304.767 144.334 310.202 144.724C315.637 145.114 319.703 144.244 322.401 142.114C325.098 139.984 327.339 137.222 329.122 133.829C330.903 130.436 328.384 126.858 321.565 123.093C314.744 119.329 308.619 117.463 303.187 117.496C297.756 117.529 293.01 118.403 288.951 120.118C284.891 121.834 282.421 124.174 281.541 127.139C280.661 130.104 283.858 133.678 291.135 137.863Z" fill="#f3c6ad" fill-rule="evenodd" opacity="1" stroke="#f3c6ad" stroke-linecap="round" stroke-linejoin="round" stroke-width="1"/>
<path d="M290.765 461.305C291.358 461.474 291.95 461.646 292.543 461.817C292.331 460.074 292.119 458.333 291.909 456.592C291.486 453.108 290.88 451.369 290.091 451.374C289.698 451.376 289.304 451.379 288.908 451.381C288.922 452.949 288.936 454.519 288.948 456.086C288.974 459.223 289.579 460.962 290.765 461.305Z" fill="#ffd165" fill-rule="evenodd" opacity="1" stroke="#ffd165" stroke-linecap="round" stroke-linejoin="round" stroke-width="1"/>
<path d="M313.883 39.7398C317.851 42.853 324.772 45.6002 334.646 47.9808C344.52 50.3615 351.041 52.4137 354.209 54.1376C357.377 55.8614 360.749 58.4555 364.324 61.9197C366.112 63.6519 367.9 65.3839 369.689 67.1161C369.482 65.8974 369.274 64.6786 369.067 63.4598C368.654 61.0223 369.226 58.7531 370.785 56.6523C372.344 54.5515 376.079 53.4833 381.992 53.4477C384.948 53.4301 387.904 53.4122 390.86 53.3945C389.663 51.4845 388.464 49.5746 387.265 47.6646C384.869 43.8447 381.686 40.3781 377.72 37.2648C373.752 34.1515 367.017 30.1833 357.517 25.3603C348.018 20.5374 338.731 17.6303 329.657 16.6391C320.583 15.648 314.875 16.5537 312.533 19.3564C310.19 22.159 308.838 25.4786 308.476 29.315C308.113 33.1515 309.916 36.6265 313.883 39.7398Z" fill="#ffffff" fill-rule="evenodd" opacity="1" stroke="#ffffff" stroke-linecap="round" stroke-linejoin="round" stroke-width="1"/>
<path d="M314.405 460.117C315.603 461.852 317.578 462.363 320.331 461.65C323.084 460.936 324.442 458.313 324.405 453.782C324.368 449.25 323.751 446.292 322.557 444.905C321.364 443.518 319.585 443.006 317.224 443.367C314.862 443.73 313.502 446.179 313.145 450.713C312.79 455.246 313.209 458.381 314.405 460.117Z" fill="#000000" fill-rule="evenodd" opacity="1" stroke="#000000" stroke-linecap="round" stroke-linejoin="round" stroke-width="1"/>
<path d="M316.745 456.965C316.947 457.487 317.147 458.009 317.349 458.53C318.134 458.177 318.92 457.824 319.705 457.471C321.277 456.763 321.654 454.845 320.841 451.712C320.433 450.146 320.026 448.579 319.619 447.013C319.03 447.365 318.442 447.717 317.854 448.071C316.677 448.774 316.098 450.173 316.115 452.263C316.132 454.354 316.343 455.923 316.745 456.965Z" fill="#ffd165" fill-rule="evenodd" opacity="1" stroke="#ffd165" stroke-linecap="round" stroke-linejoin="round" stroke-width="1"/>
<path d="M323.918 323.593C328.433 345.178 331.494 357.707 333.099 361.183C334.705 364.659 336.098 366.394 337.281 366.387C338.463 366.38 342.196 364.963 348.48 362.136C351.621 360.723 354.763 359.311 357.905 357.898C356.705 355.813 355.505 353.729 354.305 351.644C351.906 347.476 350.085 341.736 348.842 334.422C347.598 327.11 345.571 320.326 342.76 314.068C341.355 310.94 339.949 307.81 338.544 304.682C339.532 305.024 340.52 305.368 341.509 305.709C343.485 306.395 346.091 311.608 349.325 321.349C352.558 331.089 356.935 335.944 362.453 335.91C367.97 335.877 373.473 333.926 378.959 330.059C384.446 326.192 388.353 321.986 390.681 317.44C393.008 312.895 394.352 308.53 394.711 304.344C395.07 300.159 393.653 295.463 390.456 290.253C387.259 285.044 382.88 279.841 377.32 274.645C371.758 269.451 366.799 265.646 362.442 263.233C358.087 260.818 353.937 259.448 349.993 259.124C346.048 258.799 343.876 258.289 343.476 257.594C343.076 256.9 342.481 256.555 341.694 256.56C340.905 256.565 336.804 261.12 329.389 270.228C321.975 279.335 318.082 285.11 317.707 287.552C317.333 289.995 319.404 302.009 323.918 323.593Z" fill="#7c9ab6" fill-rule="evenodd" opacity="1" stroke="#8bb2d6" stroke-linecap="round" stroke-linejoin="round" stroke-width="1"/>
<path d="M337.316 64.3799C346.031 65.2228 351.119 66.1771 352.579 67.2428C353.309 67.7755 354.038 68.3083 354.769 68.8411C355.735 68.6563 356.7 68.4714 357.668 68.2866C359.599 67.9169 359.59 66.8424 357.64 65.0636C355.69 63.2847 352.049 61.695 346.716 60.2945C341.382 58.8941 336.297 58.2083 331.459 58.2374C329.041 58.252 326.622 58.2665 324.204 58.281C324.21 59.0868 324.216 59.8925 324.224 60.6982C324.237 62.3097 328.6 63.5369 337.316 64.3799Z" fill="#000000" fill-rule="evenodd" opacity="1" stroke="#000000" stroke-linecap="round" stroke-linejoin="round" stroke-width="1"/>
<path d="M342.021 224.663C343.995 225 344.995 226.911 345.025 230.397C345.053 233.883 345.463 235.797 346.255 236.142C346.649 236.312 347.046 236.485 347.441 236.657C348.399 233.166 349.355 229.673 350.311 226.182C351.267 222.691 352.225 219.2 353.181 215.707C351.212 215.893 349.243 216.08 347.272 216.266C343.334 216.638 340.981 218.047 340.213 220.491C339.829 221.714 339.445 222.936 339.059 224.159C340.047 224.326 341.034 224.496 342.021 224.663Z" fill="#7c9ab6" fill-rule="evenodd" opacity="1" stroke="#8bb2d6" stroke-linecap="round" stroke-linejoin="round" stroke-width="1"/>
<path d="M348.576 445.27C351.443 458.151 355.092 470.503 359.526 482.328C363.959 494.154 368.623 509.811 373.514 529.302C378.405 548.792 381.853 560.449 383.855 564.272C385.857 568.093 388.48 575.398 391.722 586.184C394.965 596.971 397.183 603.057 398.378 604.444C399.572 605.831 400.784 609.484 402.016 615.403C403.247 621.321 404.662 625.669 406.262 628.449C407.862 631.228 409.056 632.615 409.845 632.61C410.632 632.605 413.911 623.871 419.679 606.407C425.447 588.945 423.086 565.605 412.595 536.387C402.106 507.17 392.989 477.248 385.247 446.619C377.504 415.991 373.036 400.158 371.844 399.12C370.655 398.081 367.9 398.795 363.585 401.261C359.269 403.727 355.145 405.494 351.213 406.563C347.28 407.634 345.141 411.131 344.795 417.06C344.45 422.988 345.711 432.391 348.576 445.27Z" fill="#7c9ab6" fill-rule="evenodd" opacity="1" stroke="#8bb2d6" stroke-linecap="round" stroke-linejoin="round" stroke-width="1"/>
<path d="M357.827 348.486C360.232 353.351 363.4 355.075 367.329 353.658C371.261 352.24 373.012 349.615 372.586 345.784C372.16 341.952 368.992 340.228 363.084 340.611C360.129 340.805 357.174 340.996 354.219 341.188C355.421 343.621 356.625 346.053 357.827 348.486Z" fill="#ffffff" fill-rule="evenodd" opacity="1" stroke="#ffffff" stroke-linecap="round" stroke-linejoin="round" stroke-width="1"/>
<path d="M379.377 824.34C384.809 823.731 387.503 820.973 387.462 816.07C387.423 811.166 387.76 808.279 388.478 807.409C389.196 806.54 392.092 806.089 397.164 806.058C402.237 806.029 404.961 806.733 405.335 808.174C405.708 809.614 406.808 811.049 408.632 812.48C410.454 813.913 413.185 815.338 416.82 816.758C420.456 818.18 422.276 819.179 422.281 819.755C422.286 820.333 424.467 821.184 428.824 822.313C433.182 823.44 448.403 823.781 474.49 823.336C500.576 822.891 515.247 822.226 518.501 821.34C521.754 820.456 524.825 819.14 527.709 817.391C530.593 815.643 534.368 812.159 539.036 806.937C543.703 801.717 546.388 797.661 547.089 794.773C547.789 791.883 547.412 790.156 545.959 789.587C544.505 789.019 541.422 788.748 536.712 788.777C532.001 788.805 529.105 789.111 528.022 789.695C526.94 790.278 523.137 790.445 516.613 790.196C510.088 789.947 503.555 788.687 497.013 786.419C490.473 784.151 486.291 782.3 484.467 780.869C482.643 779.438 477.194 777.884 468.12 776.207C459.048 774.532 452.164 774.572 447.467 776.332C442.771 778.09 439.343 779.843 437.184 781.586C435.024 783.33 429.965 785.091 422.008 786.869C414.05 788.649 408.262 789.692 404.64 790.004C401.02 790.314 395.76 789.624 388.861 787.934C381.962 786.245 377.973 785.98 376.896 787.14C375.818 788.301 374.758 791.481 373.714 796.681C372.669 801.879 371.996 807.94 371.691 814.866C371.538 818.328 371.385 821.793 371.232 825.255C373.948 824.949 376.664 824.645 379.377 824.34Z" fill="#573304" fill-rule="evenodd" opacity="1" stroke="#824c04" stroke-linecap="round" stroke-linejoin="round" stroke-width="1"/>
<path d="M376.259 718.038C378.827 742.771 379.939 757.927 379.591 763.507C379.242 769.086 382.035 773.077 387.967 775.482C393.9 777.887 398.64 779.078 402.187 779.057C405.735 779.035 411.443 778.129 419.312 776.34C423.245 775.444 427.18 774.55 431.115 773.654C428.945 773.493 426.776 773.331 424.607 773.17C420.268 772.848 416.107 770.259 412.126 765.402C408.145 760.547 405.122 752.548 403.059 741.406C400.995 730.264 399.484 714.413 398.525 693.853C398.047 683.573 397.568 673.292 397.089 663.013C392.957 663.908 388.826 664.805 384.694 665.701C376.431 667.494 372.317 670.481 372.352 674.665C372.386 678.847 373.688 693.305 376.259 718.038Z" fill="#ffffff" fill-rule="evenodd" opacity="1" stroke="#ffffff" stroke-linecap="round" stroke-linejoin="round" stroke-width="1"/>
<path d="M374.043 93.233C374.449 94.6247 376.635 96.7031 380.599 99.4679C384.563 102.233 388.123 103.606 391.276 103.587C394.429 103.568 397.18 102.506 399.528 100.4C401.875 98.2944 402.837 95.5 402.415 92.0167C401.992 88.5336 398.813 85.4155 392.877 82.6626C386.941 79.9097 382.599 79.0643 379.849 80.1266C377.098 81.1888 375.342 83.2909 374.579 86.4325C373.817 89.5743 373.638 91.8411 374.043 93.233Z" fill="#ffffff" fill-rule="evenodd" opacity="1" stroke="#ffffff" stroke-linecap="round" stroke-linejoin="round" stroke-width="1"/>
<path d="M378.001 71.2491C381.178 74.0186 384.34 75.2195 387.491 74.852C390.642 74.4845 392.998 73.5989 394.564 72.1952C396.129 70.7915 395.911 68.3528 393.913 64.879C391.913 61.4055 389.728 59.5013 387.36 59.1669C384.994 58.8327 383.223 59.1919 382.049 60.2446C381.462 60.771 380.875 61.2974 380.287 61.8239C380.279 60.7781 380.27 59.7325 380.262 58.6868C380.253 57.6412 380.244 56.5954 380.236 55.5498C379.057 55.9055 377.876 56.2611 376.698 56.6167C374.338 57.3281 373.172 59.2522 373.197 62.3893C373.223 65.5263 374.824 68.4795 378.001 71.2491Z" fill="#ffffff" fill-rule="evenodd" opacity="1" stroke="#ffffff" stroke-linecap="round" stroke-linejoin="round" stroke-width="1"/>
<path d="M381.144 165.344C383.497 163.937 386.231 160.783 389.345 155.884C392.457 150.985 394.587 146.441 395.735 142.252C396.882 138.062 397.252 134.923 396.839 132.833C396.633 131.789 396.428 130.744 396.223 129.7C395.253 131.623 394.283 133.545 393.315 135.469C391.375 139.315 389.424 141.767 387.463 142.824C385.499 143.882 384.146 147.026 383.401 152.26C382.657 157.492 381.506 161.335 379.949 163.783C379.17 165.008 378.392 166.233 377.615 167.457C378.791 166.754 379.968 166.05 381.144 165.344Z" fill="#ffffff" fill-rule="evenodd" opacity="1" stroke="#ffffff" stroke-linecap="round" stroke-linejoin="round" stroke-width="1"/>
<path d="M341.401 102.292C333.618 101.99 329.722 101.316 329.713 100.271C329.704 99.225 330.203 98.3506 331.213 97.6473C332.223 96.9441 332.866 92.9316 333.144 85.6099C333.283 81.949 333.422 78.2881 333.561 74.6274C334.576 74.7955 335.593 74.9637 336.609 75.1318C338.642 75.4683 340.854 76.8492 343.242 79.275C345.63 81.7005 347.866 86.2186 349.951 92.829C350.994 96.1341 352.035 99.4393 353.078 102.745C349.186 102.594 345.293 102.443 341.401 102.292Z" fill="#000000" fill-rule="evenodd" opacity="1" stroke="#000000" stroke-linecap="round" stroke-linejoin="round" stroke-width="1"/>
<path d="M347.279 98.5032C345.173 98.5159 343.684 96.9562 342.815 93.8243C342.382 92.2584 341.948 90.6924 341.513 89.1265C340.883 89.3045 340.252 89.4826 339.621 89.6606C338.36 90.0167 337.53 91.5903 337.132 94.3813C336.733 97.1723 336.114 98.5704 335.27 98.5754C334.85 98.5779 334.427 98.5804 334.007 98.583C334.19 95.4448 334.376 92.3065 334.561 89.1682C334.93 82.8916 335.747 79.7495 337.011 79.742C338.275 79.7343 340.392 81.116 343.366 83.8867C346.338 86.6573 348.261 89.7831 349.132 93.2634C349.568 95.0037 350.003 96.7439 350.439 98.4842C349.386 98.4905 348.332 98.4969 347.279 98.5032Z" fill="#ffffff" fill-rule="evenodd" opacity="1" stroke="#ffffff" stroke-linecap="round" stroke-linejoin="round" stroke-width="1"/>
<path d="M280.824 100.493C282.632 101.166 279.223 93.174 282.885 92.943C283.606 92.8977 282.588 94.1956 282.358 94.8005C282.157 95.3266 281.144 98.536 281.851 99.1622C282.445 99.6885 284.722 95.2909 283.615 94.309C280.31 91.3794 278.687 99.6972 280.824 100.493Z" fill="#040404" fill-rule="evenodd" opacity="1" stroke="#040404" stroke-linecap="round" stroke-linejoin="round" stroke-width="1"/>
<path d="M342.8 98.7055C341.703 98.5993 338.734 95.4041 340.518 93.7492C342.373 92.0294 345.452 97.3545 345.894 97.7653C346.594 98.4149 346.174 101.342 346.167 100.445C346.146 97.9185 343.819 88.1401 339.999 91.5655C336.709 94.5163 348.96 99.3024 342.8 98.7055Z" fill="#040404" fill-rule="evenodd" opacity="1" stroke="#040404" stroke-linecap="round" stroke-linejoin="round" stroke-width="1"/>
<path d="M279.282 99.137C274.335 101.907 281.982 93.4913 283.712 94.9512C284.165 95.3329 282.355 102.751 285.286 101.28C287.192 100.324 285.332 94.6112 283.933 93.9489C281.252 92.6779 280.74 98.3207 279.282 99.137Z" fill="#040404" fill-rule="evenodd" opacity="1" stroke="#040404" stroke-linecap="round" stroke-linejoin="round" stroke-width="1"/>
</g>
</svg>
