<?xml version="1.0" encoding="UTF-8" standalone="no"?>
<!DOCTYPE svg PUBLIC "-//W3C//DTD SVG 1.1//EN" "http://www.w3.org/Graphics/SVG/1.1/DTD/svg11.dtd"
[
<!ATTLIST g
  xmlns:vectornator CDATA #FIXED "http://vectornator.io"
  vectornator:layerName CDATA #IMPLIED >
<!ATTLIST g
  xmlns:vectornator CDATA #FIXED "http://vectornator.io"
  vectornator:mask CDATA #IMPLIED >
<!ATTLIST text
  xmlns:vectornator CDATA #FIXED "http://vectornator.io"
  vectornator:width CDATA #IMPLIED >
<!ATTLIST text
  xmlns:vectornator CDATA #FIXED "http://vectornator.io"
  vectornator:text CDATA #IMPLIED >

<!ATTLIST path
  xmlns:vectornator CDATA #FIXED "http://vectornator.io"
  vectornator:blendMode CDATA #IMPLIED >
<!ATTLIST path
  xmlns:vectornator CDATA #FIXED "http://vectornator.io"
  vectornator:shadowColor CDATA #IMPLIED >
<!ATTLIST path
  xmlns:vectornator CDATA #FIXED "http://vectornator.io"
  vectornator:shadowOpacity CDATA #IMPLIED >
<!ATTLIST path
  xmlns:vectornator CDATA #FIXED "http://vectornator.io"
  vectornator:shadowRadius CDATA #IMPLIED >
<!ATTLIST path
  xmlns:vectornator CDATA #FIXED "http://vectornator.io"
  vectornator:shadowOffset CDATA #IMPLIED >
<!ATTLIST path
  xmlns:vectornator CDATA #FIXED "http://vectornator.io"
  vectornator:shadowAngle CDATA #IMPLIED >

<!ATTLIST image
  xmlns:vectornator CDATA #FIXED "http://vectornator.io"
  vectornator:blendMode CDATA #IMPLIED >
<!ATTLIST image
  xmlns:vectornator CDATA #FIXED "http://vectornator.io"
  vectornator:shadowColor CDATA #IMPLIED >
<!ATTLIST image
  xmlns:vectornator CDATA #FIXED "http://vectornator.io"
  vectornator:shadowOpacity CDATA #IMPLIED >
<!ATTLIST image
  xmlns:vectornator CDATA #FIXED "http://vectornator.io"
  vectornator:shadowRadius CDATA #IMPLIED >
<!ATTLIST image
  xmlns:vectornator CDATA #FIXED "http://vectornator.io"
  vectornator:shadowOffset CDATA #IMPLIED >
<!ATTLIST image
  xmlns:vectornator CDATA #FIXED "http://vectornator.io"
  vectornator:shadowAngle CDATA #IMPLIED >

<!ATTLIST g
  xmlns:vectornator CDATA #FIXED "http://vectornator.io"
  vectornator:blendMode CDATA #IMPLIED >
<!ATTLIST g
  xmlns:vectornator CDATA #FIXED "http://vectornator.io"
  vectornator:shadowColor CDATA #IMPLIED >
<!ATTLIST g
  xmlns:vectornator CDATA #FIXED "http://vectornator.io"
  vectornator:shadowOpacity CDATA #IMPLIED >
<!ATTLIST g
  xmlns:vectornator CDATA #FIXED "http://vectornator.io"
  vectornator:shadowRadius CDATA #IMPLIED >
<!ATTLIST g
  xmlns:vectornator CDATA #FIXED "http://vectornator.io"
  vectornator:shadowOffset CDATA #IMPLIED >
<!ATTLIST g
  xmlns:vectornator CDATA #FIXED "http://vectornator.io"
  vectornator:shadowAngle CDATA #IMPLIED >

<!ENTITY % SVG.filter.extra.content  "| feDropShadow" >
<!ELEMENT feDropShadow EMPTY>
<!ATTLIST feDropShadow
  xmlns:svg CDATA #FIXED "http://www.w3.org/Graphics/SVG/1.1/DTD/svg11.dtd"
  dx CDATA #IMPLIED>
<!ATTLIST feDropShadow
  xmlns:svg CDATA #FIXED "http://www.w3.org/Graphics/SVG/1.1/DTD/svg11.dtd"
  dy CDATA #IMPLIED>
<!ATTLIST feDropShadow
  xmlns:svg CDATA #FIXED "http://www.w3.org/Graphics/SVG/1.1/DTD/svg11.dtd"
  stdDeviation CDATA #IMPLIED>
<!ATTLIST feDropShadow
  xmlns:svg CDATA #FIXED "http://www.w3.org/Graphics/SVG/1.1/DTD/svg11.dtd"
  flood-opacity CDATA #IMPLIED>
<!ATTLIST feDropShadow
  xmlns:svg CDATA #FIXED "http://www.w3.org/Graphics/SVG/1.1/DTD/svg11.dtd"
  in CDATA #IMPLIED>
<!ATTLIST feDropShadow
  xmlns:svg CDATA #FIXED "http://www.w3.org/Graphics/SVG/1.1/DTD/svg11.dtd"
  result CDATA #IMPLIED>
<!ATTLIST feDropShadow
  xmlns:svg CDATA #FIXED "http://www.w3.org/Graphics/SVG/1.1/DTD/svg11.dtd"
  flood-color CDATA #IMPLIED>
]
>
<!-- Created with Vectornator (http://vectornator.io/) -->
<svg height="100%" stroke-miterlimit="10" style="fill-rule:nonzero;clip-rule:evenodd;stroke-linecap:round;stroke-linejoin:round;" version="1.1" viewBox="0 0 595.35 841.995" width="100%" xml:space="preserve" xmlns="http://www.w3.org/2000/svg" xmlns:vectornator="http://vectornator.io" xmlns:xlink="http://www.w3.org/1999/xlink">
<defs/>
<g id="Ebene-1" vectornator:layerName="Ebene 1">
<path d="M2.74295 144.445C4.29934 146.813 7.04617 148.999 10.9834 151.002C14.9207 153.006 19.7419 154.535 25.4469 155.588C31.152 156.642 38.3343 157.055 46.9936 156.826C55.653 156.597 62.5644 158.07 67.7277 161.246C72.8911 164.422 79.3862 167.111 87.2132 169.313C95.0402 171.515 103.555 177.161 112.759 186.252C121.963 195.343 134.294 204.05 149.752 212.373C165.211 220.697 175.694 227.345 181.204 232.318C186.714 237.291 191.166 241.84 194.562 245.966C197.957 250.092 199.675 252.907 199.714 254.411C199.754 255.915 198.926 258.497 197.229 262.155C195.533 265.813 194.587 269.601 194.391 273.521C194.195 277.44 196.526 280.841 201.383 283.724C206.24 286.607 211.077 288.737 215.894 290.115C220.711 291.493 225.096 293.485 229.049 296.091C233.002 298.696 237.286 302.497 241.9 307.494C246.513 312.491 249.622 317.076 251.226 321.249C252.83 325.421 253.952 333.973 254.591 346.903C255.23 359.834 255.143 373.536 254.329 388.01C253.515 402.484 252.555 411.392 251.447 414.733C250.34 418.074 248.657 427.905 246.397 444.223C244.138 460.542 241.383 475.068 238.133 487.8C234.882 500.532 230.025 514.661 223.562 530.188C220.33 537.951 217.098 545.714 213.866 553.478C215.073 553.897 216.279 554.317 217.485 554.737C219.898 555.576 226.009 560.684 235.817 570.06C245.626 579.436 251.141 590.28 252.362 602.593C253.582 614.906 254.649 621.351 255.56 621.929C256.472 622.507 258.421 622.757 261.407 622.678C264.393 622.599 267.213 621.923 269.869 620.648C272.525 619.373 274.898 618.709 276.988 618.653C279.078 618.598 281.842 627.106 285.28 644.178C288.718 661.25 290.386 673.551 290.286 681.081C290.185 688.611 289.719 693.591 288.886 696.022C288.054 698.453 286.184 701.212 283.278 704.3C280.371 707.387 277.259 708.373 273.943 707.256C270.627 706.139 267.181 705.779 263.606 706.174C260.031 706.57 256.613 707.262 253.352 708.252C250.091 709.241 243.157 712.586 232.55 718.286C221.943 723.986 212.015 727.109 202.767 727.654C193.518 728.199 187.263 728.967 184.003 729.956C180.742 730.946 178.11 733.123 176.107 736.488C174.104 739.853 173.13 742.589 173.186 744.695C173.241 746.801 174.523 750.079 177.03 754.529C179.538 758.98 181.707 761.933 183.539 763.39C185.37 764.847 189.005 766.709 194.443 768.974C199.881 771.239 207.539 772.692 217.416 773.335C227.294 773.977 238.629 773.226 251.421 771.081C264.213 768.937 273.56 766.432 279.46 763.566C285.361 760.7 292.267 756.302 300.179 750.373C308.09 744.443 312.345 741.47 312.942 741.454C313.539 741.438 314.498 743.822 315.819 748.604C317.141 753.387 318.253 755.917 319.157 756.194C320.06 756.471 324.653 754.995 332.935 751.765C337.075 750.151 341.216 748.536 345.357 746.921C342.656 740.82 339.956 734.719 337.255 728.617C331.854 716.415 327.489 698.164 324.16 673.863C320.83 649.562 318.481 634.117 317.112 627.53C315.744 620.942 314.265 615.862 312.677 612.291C311.089 608.72 311.454 605.548 313.771 602.777C316.089 600.006 317.522 597.71 318.072 595.889C318.622 594.068 318.369 590.16 317.315 584.166C316.261 578.172 315.563 568.706 315.222 555.768C314.882 542.83 314.962 534.548 315.464 530.921C315.966 527.295 317.631 522.433 320.459 516.337C321.872 513.288 323.286 510.24 324.7 507.192C325.918 508.063 327.136 508.934 328.354 509.805C330.791 511.547 332.807 514.354 334.403 518.226C335.999 522.098 339.966 536.597 346.306 561.721C352.645 586.846 359.107 599.622 365.692 600.051C372.277 600.479 377.498 600.19 381.356 599.185C385.214 598.18 387.301 597.974 387.615 598.568C387.929 599.162 389.527 608.755 392.407 627.347C395.287 645.939 397.126 664.709 397.924 683.657C398.722 702.605 398.977 717.954 398.689 729.704C398.545 735.579 398.401 741.455 398.256 747.33C400.492 747.12 402.728 746.911 404.963 746.701C409.434 746.282 413.324 746.48 416.632 747.296C419.941 748.112 421.889 748.362 422.479 748.045C423.068 747.728 423.311 745.614 423.208 741.703C423.156 739.747 423.105 737.791 423.053 735.835C426.826 737.241 430.598 738.647 434.37 740.053C441.914 742.864 448.087 744.658 452.888 745.435C457.69 746.211 465.312 746.311 475.755 745.734C486.198 745.157 493.796 744.354 498.55 743.325C503.304 742.296 509.362 739.728 516.724 735.619C524.086 731.51 529.943 726.989 534.295 722.057C538.647 717.124 541.385 713.288 542.508 710.549C543.631 707.809 544.129 704.032 544.002 699.218C543.875 694.404 543.03 690.663 541.465 687.994C539.901 685.326 537.17 683.742 533.273 683.242C529.375 682.743 525.666 683.744 522.146 686.246C518.627 688.748 514.651 690.961 510.22 692.884C505.788 694.808 498.508 696.355 488.38 697.526C478.251 698.697 470.314 698.003 464.57 695.445C458.825 692.887 455.206 691.628 453.713 691.667C452.967 691.687 452.22 691.707 451.474 691.727C451.485 692.178 451.497 692.629 451.509 693.081C451.521 693.532 451.533 693.983 451.545 694.435C450.645 694.308 449.745 694.181 448.846 694.054C447.046 693.801 445.239 693.246 443.423 692.391C441.608 691.536 439.615 689.631 437.446 686.677C435.277 683.724 433.323 677.603 431.584 668.315C429.845 659.027 428.499 647.621 427.545 634.097C426.591 620.572 425.257 609.618 423.542 601.232C421.827 592.847 423.032 587.546 427.157 585.329C431.282 583.113 433.309 580.65 433.237 577.942C433.166 575.234 431.566 571.212 428.437 565.875C425.309 560.538 421.434 555.22 416.812 549.923C412.19 544.625 410.3 540.911 411.14 538.781C411.98 536.651 413.002 535.721 414.204 535.99C414.805 536.125 415.406 536.26 416.007 536.394C415.988 535.642 415.968 534.89 415.948 534.138C415.908 532.633 412.434 525.499 405.524 512.734C398.614 499.97 391.809 485.546 385.111 469.464C378.412 453.382 369.877 429.971 359.506 399.232C349.134 368.493 342.733 346.682 340.302 333.799C337.871 320.917 341.798 311.178 352.083 304.583C362.367 297.988 370.02 293.571 375.04 291.33C380.061 289.09 383.318 287.95 384.811 287.911C386.304 287.871 387.341 287.543 387.923 286.925C388.504 286.308 388.425 283.299 387.685 277.899C386.945 272.498 387.168 269.632 388.355 269.3C389.541 268.967 390.7 267.582 391.831 265.143C392.962 262.704 396.43 258.247 402.236 251.771C408.041 245.294 412.849 240.651 416.66 237.84C420.47 235.03 424.89 232.655 429.918 230.715C434.947 228.776 442.156 224.52 451.544 217.949C460.933 211.378 470.432 203.299 480.04 193.711C489.648 184.123 497.599 179.698 503.893 180.435C510.188 181.172 515.861 181.022 520.913 179.985C525.966 178.948 529.517 177.65 531.568 176.091C533.618 174.531 537.457 172.773 543.082 170.818C548.708 168.863 556.593 167.601 566.738 167.032C576.882 166.463 583.864 164.923 587.682 162.414C591.5 159.904 593.653 156.535 594.139 152.307C594.625 148.079 593.796 144.939 591.65 142.888C589.504 140.837 587.681 139.681 586.18 139.419C584.679 139.158 583.304 137.99 582.054 135.915C580.804 133.841 577.641 132.87 572.565 133.004C567.489 133.139 564.184 132.473 562.652 131.008C561.119 129.543 554.259 130.025 542.072 132.455C529.885 134.885 520.342 135.589 513.442 134.566C506.543 133.544 502.476 132.297 501.242 130.824C500.008 129.351 498.255 125.182 495.982 118.317C493.71 111.452 491.351 106.998 488.907 104.954C486.463 102.911 484.196 101.917 482.105 101.973C480.015 102.028 477.807 103.291 475.482 105.761C473.157 108.231 472.038 111.121 472.125 114.431C472.212 117.74 473.336 120.722 475.498 123.374C477.659 126.027 478.921 128.553 479.283 130.952C479.645 133.352 478.982 136.531 477.293 140.49C475.605 144.448 474.953 148.079 475.339 151.381C475.725 154.683 475.058 157.711 473.337 160.466C471.617 163.222 469.586 165.534 467.245 167.402C464.904 169.27 460.335 171.649 453.538 174.539C446.742 177.428 439.667 181.078 432.313 185.487C424.959 189.897 418.807 194.576 413.858 199.524C408.908 204.473 404.281 210.316 399.977 217.054C395.672 223.791 391.913 228.558 388.7 231.352C385.487 234.147 383.145 236.016 381.676 236.958C380.941 237.429 380.207 237.9 379.472 238.371C379.315 238.074 379.158 237.777 379.001 237.48C378.686 236.886 377.633 236.613 375.842 236.66C374.05 236.708 370.074 238.92 363.915 243.298C357.755 247.676 353.343 250.352 350.68 251.326C349.348 251.813 348.016 252.3 346.684 252.786C346.676 252.486 346.669 252.185 346.661 251.884C346.645 251.282 344.535 250.585 340.331 249.793C336.126 249.001 333.863 248.157 333.541 247.262C333.218 246.368 334.939 243.612 338.702 238.996C342.465 234.381 345.085 231.752 346.562 231.111C348.039 230.47 351.547 227.516 357.085 222.251C362.624 216.987 365.987 214.188 367.173 213.855C368.36 213.523 370.406 211.813 373.313 208.725C376.22 205.637 378.364 201.968 379.746 197.716C381.128 193.464 381.276 187.739 380.19 180.541C379.104 173.344 380.27 166.538 383.686 160.125C387.103 153.712 389.196 148.086 389.965 143.248C390.734 138.41 392.14 135.061 394.182 133.201C396.225 131.34 397.069 129.361 396.715 127.262C396.361 125.164 394.667 123.252 391.634 121.525C388.6 119.799 387.338 117.273 387.848 113.947C388.359 110.622 388.158 108.67 387.246 108.092C386.334 107.514 385.859 106.472 385.819 104.968C385.78 103.464 385.155 102.426 383.944 101.856C382.734 101.286 382.262 100.395 382.529 99.1836C382.796 97.9721 383.228 97.3585 383.825 97.3428C384.124 97.3349 384.423 97.327 384.721 97.3191C384.584 97.7744 384.446 98.2296 384.309 98.6849C384.172 99.1402 384.034 99.5955 383.897 100.051C384.337 99.738 384.777 99.4253 385.217 99.1126C386.097 98.4871 386.666 97.4183 386.925 95.9059C387.184 94.3936 386.814 91.6935 385.815 87.8057C384.816 83.9178 382.934 80.5049 380.167 77.567C377.4 74.6292 374.956 72.5861 372.834 71.4377C370.712 70.2894 368.449 69.4459 366.044 68.9073C363.64 68.3686 360.501 68.301 356.627 68.7044C352.753 69.1079 349.629 69.642 347.257 70.3069C344.884 70.9718 342.377 72.2424 339.737 74.1187C337.098 75.995 334.736 77.1113 332.654 77.4674C330.572 77.8235 328.918 77.4155 327.692 76.2435C326.466 75.0715 324.194 73.9272 320.878 72.8104C317.562 71.6936 310.517 70.8259 299.744 70.2072C288.97 69.5886 280.036 70.7279 272.941 73.6252C265.846 76.5225 259.675 80.4493 254.427 85.4054C249.179 90.3616 244.826 95.2942 241.37 100.203C237.914 105.112 235.054 110.005 232.792 114.882C230.53 119.76 229.278 123.255 229.035 125.369C228.792 127.483 226.584 128.746 222.411 129.157C218.239 129.569 215.579 130.693 214.432 132.53C213.286 134.367 212.736 136.188 212.784 137.993C212.831 139.798 214.517 141.41 217.841 142.828C219.503 143.536 221.165 144.245 222.827 144.954C220.906 145.758 218.985 146.561 217.064 147.365C213.222 148.972 211.203 151.735 211.008 155.654C210.812 159.574 211.473 161.965 212.989 162.828C214.506 163.691 219.142 163.87 226.898 163.364C230.776 163.111 234.654 162.858 238.532 162.605C238.611 165.614 238.69 168.623 238.769 171.632C238.928 177.649 239.793 182.143 241.365 185.112C242.938 188.082 244.49 190.299 246.023 191.764C247.555 193.229 249.068 193.942 250.561 193.902C251.308 193.883 252.054 193.863 252.801 193.843C251.391 197.042 249.981 200.241 248.571 203.439C245.752 209.837 244.087 214.698 243.577 218.024C243.322 219.687 243.067 221.35 242.812 223.012C242.042 222.129 241.271 221.246 240.501 220.363C238.961 218.598 237.149 217.893 235.067 218.249C232.985 218.605 230.195 220.485 226.699 223.89C223.203 227.294 220.402 228.723 218.296 228.176C216.19 227.63 213.613 226.192 210.563 223.864C207.514 221.536 200.92 215.086 190.781 204.515C180.641 193.943 174.817 188.376 173.309 187.814C171.8 187.251 168.597 184.777 163.701 180.389C158.804 176.002 150.588 170.348 139.051 163.427C127.514 156.505 121.988 150.93 122.474 146.702C122.961 142.474 122.257 138.428 120.362 134.563C118.467 130.699 117.492 127.714 117.437 125.608C117.381 123.502 118.662 121.059 121.278 118.28C123.894 115.501 125.61 112.595 126.427 109.563C127.243 106.53 127.466 103.664 127.096 100.964C126.727 98.2637 125.614 95.7338 123.759 93.374C121.904 91.0142 120.23 89.8541 118.737 89.8935C117.244 89.933 115.323 90.7365 112.974 92.304C110.625 93.8715 108.634 97.6879 107 103.753C105.367 109.818 103.836 114.074 102.406 116.52C100.977 118.967 100.144 121.398 99.9093 123.813C99.6741 126.228 95.2228 127.399 86.5555 127.327C77.8882 127.255 71.8965 126.66 68.5802 125.544C65.2639 124.427 61.9634 123.912 58.6789 123.999C55.3943 124.085 52.872 124.754 51.1121 126.005C49.3522 127.256 47.4272 127.909 45.337 127.964C43.2468 128.019 40.6929 127.485 37.6752 126.36C34.6575 125.235 30.4613 124.744 25.0865 124.886C19.7117 125.028 16.3016 126.021 14.8561 127.866C13.4107 129.711 10.9083 131.132 7.34886 132.129C3.78945 133.127 1.74284 134.837 1.20905 137.26C0.67525 139.683 1.18655 142.078 2.74295 144.445Z" fill="#000000" fill-rule="evenodd" opacity="1" stroke="#000000" stroke-linecap="round" stroke-linejoin="round" stroke-width="1"/>
<path d="M7.65794 143.864C9.50501 145.923 12.9944 147.938 18.126 149.91C23.2577 151.883 31.8034 153.012 43.7632 153.298C55.723 153.584 65.4909 155.735 73.0668 159.75C80.6428 163.765 86.8393 166.462 91.6565 167.84C96.4737 169.218 99.4756 169.741 100.662 169.409C101.849 169.076 103.53 170.537 105.708 173.792C107.885 177.047 111.733 181.311 117.25 186.585C122.767 191.859 133.715 199.097 150.093 208.299C166.471 217.502 177.415 224.589 182.924 229.563C188.434 234.536 192.89 239.235 196.294 243.662C197.995 245.875 199.697 248.088 201.399 250.302C202.986 248.152 204.573 246.003 206.159 243.853C209.333 239.554 211.945 236.624 213.996 235.065C216.046 233.505 217.064 232.424 217.048 231.823C217.032 231.221 214.442 229.332 209.279 226.156C204.116 222.981 199.53 219.037 195.521 214.325C191.512 209.614 187.875 204.817 172.991 192.79C158.108 180.763 149.645 174.287 135.987 166.217C122.328 158.148 115.486 153.661 115.463 152.759C115.439 151.856 116.154 150.633 117.607 149.089C119.06 147.545 119.755 145.569 119.692 143.162C119.629 140.755 118.654 137.77 116.767 134.207C114.88 130.643 113.909 127.809 113.854 125.702C113.798 123.596 114.63 121.165 116.351 118.41C118.071 115.655 119.52 113.961 120.699 113.327C121.878 112.694 122.742 111.467 123.291 109.646C123.841 107.824 124.084 105.71 124.021 103.303C123.957 100.896 123.454 98.8018 122.511 97.0201C121.567 95.2385 120.054 94.5257 117.972 94.8818C115.89 95.2379 114.126 96.3384 112.681 98.1831C111.235 100.028 110.532 101.702 110.572 103.207C110.611 104.711 109.375 108.809 106.862 115.499C105.605 118.845 104.349 122.19 103.092 125.535C104.137 125.508 105.182 125.48 106.227 125.452C107.273 125.425 108.318 125.397 109.363 125.369C109.375 125.821 109.386 126.272 109.398 126.723C109.422 127.626 108.699 128.549 107.23 129.491C105.761 130.433 99.9462 130.887 89.7859 130.855C79.6256 130.822 72.5888 130.255 68.6753 129.154C64.7618 128.053 61.4613 127.538 58.774 127.609C56.0866 127.68 54.3069 128.179 53.4348 129.105C52.9988 129.568 52.5628 130.032 52.1268 130.495C53.3331 130.915 54.5394 131.334 55.7457 131.754C58.1582 132.594 59.2271 133.469 58.9523 134.379C58.6774 135.29 57.9428 135.761 56.7484 135.792C55.554 135.824 54.1945 135.258 52.6698 134.094C51.1451 132.929 47.6756 131.666 42.2612 130.304C36.8467 128.941 32.4933 128.153 29.2008 127.939C25.9083 127.725 23.0755 127.95 20.7026 128.615C18.3297 129.28 17.1511 129.913 17.167 130.515C17.1828 131.117 19.7407 131.802 24.8407 132.571C29.9406 133.339 35.6616 134.995 42.0035 137.537C48.3454 140.079 56.7458 141.363 67.2046 141.388C77.6635 141.412 85.2976 141.963 90.1069 143.041C94.9162 144.118 98.0753 144.938 99.5841 145.5C101.093 146.063 101.714 146.949 101.447 148.161C101.314 148.767 101.18 149.372 101.047 149.978C97.4357 149.02 93.8248 148.061 90.2139 147.103C82.992 145.186 75.0514 144.342 66.3921 144.57C57.7327 144.799 51.4502 144.514 47.5447 143.713C43.6391 142.913 40.0203 141.654 36.6881 139.936C33.356 138.217 28.8374 136.831 23.1323 135.777C17.4272 134.724 13.0896 134.537 10.1195 135.218C7.14932 135.898 5.53477 136.995 5.2758 138.507C5.01682 140.019 5.81087 141.805 7.65794 143.864Z" fill="#f3d5c4" fill-rule="evenodd" opacity="1" stroke="#f3d5c4" stroke-linecap="round" stroke-linejoin="round" stroke-width="1"/>
<path d="M179.222 752.665C180.787 755.333 183.247 757.978 186.603 760.599C189.959 763.221 195.699 765.628 203.825 767.822C211.95 770.017 220.488 770.845 229.438 770.307C238.388 769.77 247.323 768.63 256.241 766.889C265.159 765.148 271.979 763.161 276.702 760.929C281.424 758.697 288.62 753.99 298.292 746.809C307.963 739.629 313.554 736.319 315.062 736.882C316.571 737.444 317.196 738.481 316.937 739.994C316.678 741.506 317.186 743.751 318.459 746.728C319.733 749.705 323.631 750.205 330.152 748.226C333.413 747.236 336.674 746.247 339.935 745.257C337.379 739.002 334.824 732.746 332.269 726.491C329.714 720.235 327.158 713.98 324.603 707.724C322.847 709.126 321.091 710.527 319.335 711.928C315.824 714.731 311.691 716.647 306.937 717.676C302.183 718.705 297.413 719.132 292.628 718.957C287.842 718.782 283.622 717.388 279.968 714.775C276.313 712.162 272.243 710.764 267.756 710.581C263.269 710.399 258.951 710.964 254.802 712.278C250.654 713.592 243.127 717.103 232.221 722.811C221.316 728.519 210.94 731.653 201.094 732.215C191.248 732.776 184.864 734.299 181.941 736.785C179.019 739.271 177.444 741.872 177.217 744.588C176.989 747.304 177.658 749.996 179.222 752.665Z" fill="#573304" fill-rule="evenodd" opacity="1" stroke="#824c04" stroke-linecap="round" stroke-linejoin="round" stroke-width="1"/>
<path d="M198.517 277.025C199.154 278.514 201.594 280.406 205.838 282.703C210.082 285 214.915 286.98 220.337 288.643C225.76 290.306 230.157 292.749 233.528 295.972C236.9 299.195 239.034 300.795 239.93 300.771C240.825 300.748 242.81 302.351 245.883 305.582C248.956 308.813 251.448 312.661 253.359 317.127C255.269 321.593 256.717 331.19 257.703 345.918C258.688 360.646 258.796 370.428 258.027 375.266C257.258 380.104 256.847 387.191 256.795 396.526C256.742 405.861 256.162 412.2 255.054 415.541C253.947 418.882 251.467 432.497 247.614 456.386C243.761 480.274 240.586 495.864 238.089 503.157C235.592 510.449 233.063 516.538 230.502 521.423C227.942 526.308 225.982 531.328 224.624 536.483C223.266 541.637 222.009 544.982 220.855 546.518C219.7 548.054 226.475 555.704 241.18 569.467C248.533 576.348 255.885 583.23 263.238 590.111C262.183 578.397 261.127 566.682 260.071 554.967C257.96 531.537 258.34 506.235 261.209 479.06C264.079 451.886 266.715 432.847 269.118 421.944C271.52 411.041 272.861 399.564 273.141 387.513C273.421 375.462 274.091 366.863 275.151 361.716C276.21 356.569 276.759 349.028 276.796 339.09C276.833 329.153 277.73 317.838 279.487 305.146C281.245 292.453 279.643 282.71 274.684 275.916C269.724 269.122 266.022 264.703 263.577 262.66C261.133 260.617 260.194 258.986 260.759 257.766C261.325 256.547 261.434 255.039 261.088 253.241C260.742 251.444 260.117 250.407 259.213 250.129C258.31 249.852 257.536 248.819 256.891 247.029C256.246 245.24 252.689 240.667 246.221 233.31C239.752 225.954 235.335 222.758 232.97 223.724C230.605 224.69 225.926 228.577 218.934 235.386C211.942 242.195 206.883 248.651 203.757 254.756C200.631 260.86 198.817 265.726 198.315 269.352C197.813 272.979 197.88 275.536 198.517 277.025Z" fill="#7c9ab6" fill-rule="evenodd" opacity="1" stroke="#8bb2d6" stroke-linecap="round" stroke-linejoin="round" stroke-width="1"/>
<path d="M215.146 159.61C215.759 160.196 218.753 160.418 224.127 160.276C229.502 160.134 236.048 159.057 243.764 157.047C251.48 155.037 259.066 153.782 266.523 153.284C270.252 153.035 273.98 152.786 277.709 152.537C277.233 151.496 276.758 150.455 276.282 149.413C275.331 147.331 275.134 145.529 275.691 144.009C275.97 143.249 276.249 142.489 276.528 141.729C267.888 142.71 259.249 143.691 250.609 144.672C233.33 146.634 222.919 148.414 219.375 150.013C215.831 151.612 214.087 153.465 214.143 155.571C214.198 157.678 214.533 159.024 215.146 159.61Z" fill="#ffffff" fill-rule="evenodd" opacity="1" stroke="#ffffff" stroke-linecap="round" stroke-linejoin="round" stroke-width="1"/>
<path d="M222.308 142.258C225.625 143.375 229.074 143.886 232.657 143.791C236.241 143.696 244.88 142.715 258.576 140.848C272.272 138.981 279.108 137.596 279.084 136.693C279.061 135.79 278.876 134.44 278.529 132.643C278.183 130.846 268.16 130.358 248.461 131.179C228.761 132.001 218.648 133.773 218.123 136.497C217.597 139.221 218.992 141.141 222.308 142.258Z" fill="#ffffff" fill-rule="evenodd" opacity="1" stroke="#ffffff" stroke-linecap="round" stroke-linejoin="round" stroke-width="1"/>
<path d="M255.52 126.928C271.047 126.518 279.372 124.943 280.496 122.203C281.619 119.464 285.248 115.454 291.384 110.173C297.52 104.892 302.206 101.306 305.443 99.4135C308.68 97.5214 312.079 96.0767 315.638 95.0794C319.197 94.0821 322.619 93.54 325.904 93.4533C329.189 93.3665 331.141 93.7665 331.762 94.6534C332.383 95.5403 333.436 95.8136 334.921 95.4733C336.406 95.1329 337.278 94.2066 337.537 92.6943C337.796 91.1819 336.087 88.6678 332.408 85.1518C328.73 81.6358 324.777 79.0304 320.549 77.3355C316.321 75.6406 311.508 74.4129 306.109 73.6522C300.711 72.8915 295.921 72.5664 291.741 72.6769C287.561 72.7873 283.691 73.3412 280.131 74.3385C276.572 75.3358 272.875 76.7884 269.041 78.6963C265.207 80.6042 261.392 83.2643 257.597 86.6766C253.803 90.0889 249.459 95.3223 244.565 102.377C239.671 109.431 236.391 115.389 234.727 120.251C233.894 122.682 233.062 125.112 232.23 127.543C239.993 127.338 247.757 127.133 255.52 126.928Z" fill="#ffffff" fill-rule="evenodd" opacity="1" stroke="#ffffff" stroke-linecap="round" stroke-linejoin="round" stroke-width="1"/>
<path d="M243.462 179.637C244.752 183.216 246.619 186.027 249.063 188.07C251.507 190.114 253.77 190.957 255.853 190.601C257.935 190.245 259.832 188.539 261.545 185.483C263.257 182.426 264.412 180.89 265.009 180.875C265.308 180.867 265.606 180.859 265.905 180.851C265.917 181.302 265.928 181.754 265.94 182.205C265.964 183.108 266.88 183.836 268.687 184.391C270.495 184.945 273.116 188.037 276.551 193.667C279.986 199.297 282.203 204.056 283.202 207.944C284.201 211.832 284.768 216.334 284.902 221.449C285.037 226.564 283.88 233.67 281.43 242.768C278.98 251.865 279.835 261.628 283.994 272.057C288.154 282.485 290.842 288.135 292.06 289.006C293.279 289.877 294.238 292.261 294.938 296.157C295.638 300.052 296.794 304.237 298.406 308.711C300.018 313.185 301.123 315.414 301.72 315.398C302.317 315.382 303.456 313.245 305.136 308.985C306.817 304.725 307.488 301.847 307.15 300.35C306.812 298.854 307.232 297.789 308.411 297.156C309.589 296.522 312.032 292.844 315.74 286.122C319.447 279.4 321.426 275.133 321.677 273.32C321.928 271.506 321.586 269.859 320.651 268.379C319.715 266.898 321.231 262.04 325.197 253.806C329.164 245.571 333.472 238.984 338.123 234.044C342.774 229.103 348.76 223.826 356.083 218.213C363.405 212.6 368.657 207.794 371.838 203.796C375.02 199.798 376.516 194.188 376.325 186.967C376.135 179.745 375.738 175.992 375.132 175.707C374.527 175.422 372.905 176.217 370.265 178.094C367.625 179.97 364.966 181.094 362.286 181.466C359.607 181.838 356.125 180.123 351.842 176.322C347.558 172.521 345.251 170.023 344.921 168.827C344.756 168.229 344.591 167.631 344.426 167.034C345.172 167.014 345.919 166.994 346.665 166.974C348.158 166.935 350.445 168.681 353.526 172.213C356.607 175.745 359.193 177.483 361.283 177.428C363.373 177.373 365.157 177.024 366.634 176.383C368.111 175.742 370.582 173.117 374.046 168.509C377.511 163.901 380.495 158.102 383.001 151.11C384.253 147.615 385.506 144.119 386.758 140.623C382.727 140.73 378.696 140.836 374.665 140.943C366.603 141.156 361.817 140.981 360.308 140.419C358.8 139.856 356.662 138.106 353.895 135.168C351.129 132.23 350.134 128.493 350.911 123.956C351.688 119.419 352.657 116.533 353.82 115.298C354.983 114.063 356.755 113.263 359.135 112.899C361.516 112.535 363.163 112.642 364.074 113.22C364.986 113.799 365.493 116.043 365.596 119.955C365.699 123.866 365.464 126.281 364.891 127.2C364.604 127.659 364.317 128.118 364.03 128.578C363.421 128.142 362.812 127.706 362.203 127.271C360.985 126.4 359.783 126.13 358.596 126.463C357.41 126.795 356.385 127.575 355.52 128.802C354.656 130.03 355.749 131.807 358.798 134.136C361.848 136.464 364.72 137.743 367.415 137.973C368.763 138.088 370.111 138.203 371.458 138.318C371.148 137.874 370.837 137.431 370.527 136.987C369.906 136.1 369.556 134.152 369.477 131.144C369.397 128.135 369.931 125.712 371.078 123.875C372.225 122.038 372.028 120.237 370.487 118.471C368.947 116.705 368.428 114.009 368.93 110.382C369.181 108.569 369.432 106.756 369.683 104.943C368.783 104.816 367.883 104.689 366.984 104.562C365.184 104.309 362.957 104.819 360.301 106.094C358.973 106.731 357.645 107.368 356.317 108.006C355.975 106.359 355.633 104.712 355.291 103.065C354.606 99.7707 355.007 97.9536 356.492 97.6132C357.977 97.2729 358.877 97.3997 359.191 97.9936C359.505 98.5875 361.313 99.1419 364.613 99.6569C367.914 100.172 370.177 101.015 371.403 102.187C372.629 103.359 373.977 103.474 375.446 102.532C376.181 102.061 376.915 101.59 377.65 101.119C376.9 100.988 376.149 100.858 375.399 100.727C373.898 100.465 371.615 98.8697 368.549 95.9398C365.484 93.0098 362.003 91.2952 358.105 90.796C354.207 90.2967 350.334 90.7002 346.483 92.0063C342.633 93.3124 340.599 95.4738 340.379 98.4906C340.16 101.507 337.52 103.384 332.46 104.12C327.399 104.855 323.699 106.158 321.357 108.026C319.016 109.894 317.421 111.743 316.573 113.572C315.725 115.401 314.853 116.327 313.957 116.351C313.061 116.375 312.444 115.638 312.106 114.142C311.768 112.645 312.027 111.133 312.883 109.605C313.739 108.077 316.658 105.44 321.639 101.696C324.129 99.8232 326.62 97.9508 329.111 96.0784C325.991 96.763 322.872 97.4476 319.752 98.1322C313.513 99.5014 308.335 101.445 304.218 103.962C300.101 106.48 295.714 110.058 291.055 114.698C286.396 119.337 283.792 122.568 283.242 124.389C282.693 126.21 283.326 127.548 285.141 128.404C286.956 129.259 288.037 130.585 288.383 132.383C288.729 134.18 288.466 135.542 287.594 136.468C286.722 137.395 286.029 145.091 286.029 145.091C286.029 145.091 284.746 153.104 282.695 154.664C280.645 156.223 279.643 157.906 279.691 159.711C279.738 161.516 279.173 162.736 277.994 163.369C276.816 164.002 275.916 163.876 275.295 162.989C274.674 162.102 273.613 161.528 272.112 161.266C270.611 161.005 269.542 160.13 268.905 158.641C268.269 157.152 263.786 157.12 255.457 158.545C247.127 159.969 242.724 162.946 242.245 167.475C241.767 172.004 242.173 176.058 243.462 179.637Z" fill="#f3d5c4" fill-rule="evenodd" opacity="1" stroke="#f3d5c4" stroke-linecap="round" stroke-linejoin="round" stroke-width="1"/>
<path d="M255.037 602.071C255.542 609.886 256.266 614.684 257.209 616.466C258.152 618.248 262.337 618.288 269.762 616.586C277.187 614.884 285.776 611.948 295.526 607.776C305.277 603.604 311.009 599.99 312.721 596.934C314.433 593.877 314.585 588.303 313.177 580.211C311.768 572.118 311.075 562.803 311.096 552.264C311.117 541.725 311.379 534.642 311.881 531.016C312.383 527.389 313.608 522.841 315.556 517.369C317.503 511.898 319.345 508.086 321.081 505.932C322.817 503.779 324.895 503.272 327.316 504.413C329.736 505.553 332.197 508.198 334.696 512.347C337.196 516.497 342.075 531.573 349.334 557.577C356.593 583.58 363.805 596.487 370.971 596.298C378.138 596.109 386.919 594.823 397.314 592.441C407.71 590.058 415.414 587.597 420.427 585.055C425.439 582.514 428.217 580.183 428.758 578.061C429.3 575.939 427.232 571.176 422.555 563.772C417.878 556.368 414.007 551.201 410.942 548.271C409.409 546.806 407.877 545.341 406.344 543.876C404.636 547.083 402.927 550.289 401.219 553.496C397.802 559.909 395.124 566.002 393.184 571.774C391.245 577.546 389.678 580.448 388.483 580.48C387.886 580.495 387.289 580.511 386.692 580.527C386.668 579.624 386.644 578.722 386.62 577.819C386.573 576.014 385.61 573.48 383.731 570.217C381.852 566.955 378.982 560.105 375.122 549.669C371.261 539.233 365.875 521.911 358.962 497.705C352.05 473.499 348.401 459.745 348.015 456.443C347.629 453.141 347.134 451.348 346.528 451.063C345.923 450.777 343.335 454.61 338.763 462.559C334.192 470.508 331.309 474.499 330.115 474.53C328.92 474.562 325.56 471.79 320.035 466.215C314.51 460.64 311.299 457.865 310.403 457.888C309.507 457.912 306.471 461.756 301.294 469.42C296.118 477.084 292.932 480.932 291.738 480.964C290.544 480.995 287.345 478.671 282.142 473.991C276.939 469.311 272.978 466.405 270.259 465.272C268.899 464.706 267.54 464.139 266.18 463.573C265.235 473.083 264.291 482.592 263.346 492.102C261.456 511.121 260.579 523.188 260.714 528.303C260.848 533.418 261.731 544.234 263.361 560.751C264.991 577.268 266.624 588.215 268.26 593.592C269.896 598.968 270.27 601.819 269.382 602.143C268.494 602.468 266.046 600.274 262.037 595.563C260.033 593.207 258.028 590.851 256.024 588.495C255.733 588.804 255.443 589.113 255.152 589.422C254.571 590.039 254.532 594.256 255.037 602.071Z" fill="#6a6865" fill-rule="evenodd" opacity="1" stroke="#c2bbbb" stroke-linecap="round" stroke-linejoin="round" stroke-width="1"/>
<path d="M247.009 229.224C247.953 231.006 249.018 231.731 250.204 231.398C251.391 231.066 254.18 229.186 258.572 225.757C262.963 222.329 266.754 218.767 269.943 215.069C273.133 211.372 275.144 208.308 275.976 205.877C276.809 203.446 275.665 199.713 272.544 194.676C269.423 189.64 267.266 187.138 266.071 187.169C264.877 187.201 264.001 187.977 263.443 189.497C262.886 191.017 261.868 192.098 260.391 192.739C258.914 193.381 257.166 195.083 255.147 197.846C253.128 200.609 251.145 204.726 249.197 210.198C247.25 215.669 246.163 219.762 245.935 222.478C245.708 225.194 246.066 227.443 247.009 229.224Z" fill="#ffffff" fill-rule="evenodd" opacity="1" stroke="#ffffff" stroke-linecap="round" stroke-linejoin="round" stroke-width="1"/>
<path d="M256.748 241.613C260.458 246.333 262.612 248.685 263.209 248.669C263.806 248.653 264.784 246.068 266.142 240.913C266.821 238.336 267.5 235.759 268.179 233.182C269.999 234.187 271.818 235.193 273.637 236.199C275.457 237.205 277.276 238.21 279.095 239.216C279.366 238.155 279.637 237.094 279.908 236.033C280.45 233.911 280.464 228.792 279.952 220.676C279.439 212.56 278.884 208.51 278.287 208.526C277.989 208.534 277.69 208.541 277.391 208.549C277.403 209.001 277.415 209.452 277.427 209.903C277.451 210.806 276.013 212.952 273.114 216.34C270.216 219.729 265.836 223.608 259.975 227.979C257.044 230.164 254.114 232.349 251.183 234.534C253.038 236.894 254.893 239.253 256.748 241.613Z" fill="#ffffff" fill-rule="evenodd" opacity="1" stroke="#ffffff" stroke-linecap="round" stroke-linejoin="round" stroke-width="1"/>
<path d="M276.989 465.546C283.096 470.503 287.355 473.402 289.768 474.241C292.181 475.081 293.807 474.435 294.647 472.306C295.488 470.176 297.648 467.108 301.128 463.102C304.608 459.095 306.478 456.336 306.737 454.824C306.996 453.311 307.569 452.393 308.457 452.068C309.345 451.744 313.302 454.5 320.328 460.336C323.841 463.254 327.355 466.172 330.868 469.09C333.299 464.961 335.73 460.832 338.161 456.703C343.023 448.445 343.476 437.293 339.521 423.246C335.565 409.199 332.698 396.779 330.92 385.986C329.141 375.194 327.46 356.721 325.874 330.567C325.082 317.491 324.289 304.414 323.496 291.337C321.587 292.592 319.678 293.847 317.769 295.102C313.951 297.611 310.805 302.964 308.331 311.159C305.858 319.354 304.032 323.768 302.853 324.401C302.264 324.718 301.675 325.034 301.085 325.351C299.466 320.576 297.846 315.802 296.226 311.027C292.986 301.477 290.278 295.075 288.101 291.821C287.012 290.193 285.923 288.566 284.835 286.939C284.761 289.801 284.687 292.664 284.613 295.526C284.465 301.251 283.618 308.801 282.072 318.175C280.526 327.55 279.852 335.999 280.05 343.521C280.248 351.043 279.813 357.227 278.746 362.073C277.678 366.919 277.008 375.517 276.736 387.87C276.464 400.222 275.378 410.036 273.478 417.313C271.578 424.589 270.161 433.208 269.228 443.169C268.295 453.129 270.882 460.589 276.989 465.546Z" fill="#4f6b86" fill-rule="evenodd" opacity="1" stroke="#7c9ab6" stroke-linecap="round" stroke-linejoin="round" stroke-width="1"/>
<path d="M268.528 263.433C271.318 267.273 274.706 271.098 278.691 274.907C280.683 276.811 282.676 278.716 284.668 280.62C282.766 276.455 280.863 272.29 278.961 268.125C275.155 259.795 274.089 253.349 275.762 248.789C277.435 244.228 277.21 241.374 275.088 240.225C272.966 239.077 271.611 238.661 271.021 238.978C270.432 239.295 269.172 242.489 267.24 248.562C265.308 254.635 265.738 259.592 268.528 263.433Z" fill="#7c9ab6" fill-rule="evenodd" opacity="1" stroke="#8bb2d6" stroke-linecap="round" stroke-linejoin="round" stroke-width="1"/>
<path d="M284.423 713.754C285.641 714.625 289.684 714.97 296.552 714.788C303.42 714.607 308.186 714.029 310.849 713.056C313.513 712.082 316.455 710.348 319.676 707.855C322.898 705.361 323.013 692.712 320.021 669.907C317.03 647.103 314.218 631.069 311.583 621.804C310.266 617.172 308.949 612.54 307.631 607.908C303.487 609.372 299.342 610.836 295.197 612.301C286.908 615.23 284.631 625.226 288.368 642.29C292.104 659.354 294.035 670.293 294.162 675.107C294.289 679.921 294.121 684.894 293.659 690.024C293.196 695.155 291.221 699.573 287.733 703.279C284.245 706.984 282.517 709.438 282.548 710.642C282.58 711.846 283.205 712.883 284.423 713.754Z" fill="#ffffff" fill-rule="evenodd" opacity="1" stroke="#ffffff" stroke-linecap="round" stroke-linejoin="round" stroke-width="1"/>
<path d="M280.749 148.844C281.205 149.133 281.661 149.422 282.116 149.711C282.234 148.503 282.352 147.296 282.469 146.088C282.587 144.881 282.704 143.673 282.822 142.466C282.229 142.632 281.636 142.798 281.042 142.964C279.856 143.297 279.282 144.215 279.322 145.72C279.362 147.224 279.837 148.265 280.749 148.844Z" fill="#ffffff" fill-rule="evenodd" opacity="1" stroke="#ffffff" stroke-linecap="round" stroke-linejoin="round" stroke-width="1"/>
<path d="M281.3 135.731C281.638 137.228 282.106 137.968 282.703 137.952C283.3 137.937 283.717 136.721 283.952 134.306C284.069 133.099 284.187 131.891 284.305 130.684C283.719 131.151 283.134 131.618 282.549 132.085C281.378 133.019 280.962 134.235 281.3 135.731Z" fill="#ffffff" fill-rule="evenodd" opacity="1" stroke="#ffffff" stroke-linecap="round" stroke-linejoin="round" stroke-width="1"/>
<path d="M291.219 427.232C292.485 429.908 294.155 430.918 296.229 430.261C298.303 429.604 299.627 428.816 300.201 427.898C300.774 426.979 301.037 425.617 300.99 423.812C300.942 422.007 300.148 420.221 298.607 418.455C297.067 416.689 295.263 416.285 293.197 417.243C291.131 418.201 289.968 419.436 289.709 420.949C289.45 422.461 289.953 424.555 291.219 427.232Z" fill="#000000" fill-rule="evenodd" opacity="1" stroke="#000000" stroke-linecap="round" stroke-linejoin="round" stroke-width="1"/>
<path d="M294.79 426.686C295.395 426.971 296.001 427.256 296.606 427.541C296.881 426.631 297.155 425.72 297.43 424.809C297.98 422.988 297.65 421.793 296.439 421.222C295.834 420.937 295.229 420.652 294.624 420.367C294.349 421.278 294.074 422.188 293.799 423.099C293.25 424.92 293.58 426.116 294.79 426.686Z" fill="#ffd165" fill-rule="evenodd" opacity="1" stroke="#ffd165" stroke-linecap="round" stroke-linejoin="round" stroke-width="1"/>
<path d="M294.443 192.291C296.716 199.156 298.953 204.668 301.154 208.825C303.355 212.982 306.613 217.563 310.928 222.568C315.243 227.572 317.99 229.758 319.169 229.125C320.347 228.491 321.604 225.146 322.938 219.089C324.273 213.032 325.812 209.077 327.556 207.224C329.3 205.371 331.944 203.646 335.487 202.046C339.031 200.447 341.089 199.189 341.663 198.27C342.236 197.352 346.494 194.216 347.697 194.485C348.298 194.62 342.492 195.513 343.093 195.647C343.082 195.196 347.513 194.486 347.502 194.035C347.478 193.132 346.503 194.83 347.39 194.506C348.278 194.181 348.557 193.421 348.227 192.225C348.062 191.628 347.896 191.03 347.731 190.432C346.694 190.76 345.657 191.089 344.62 191.417C342.545 192.074 337.418 190.253 329.237 185.952C321.056 181.652 314.981 177.898 311.012 174.691C307.043 171.484 303.514 167.964 300.425 164.131C297.336 160.299 295.194 158.398 294 158.43C292.805 158.461 291.933 159.388 291.384 161.209C290.834 163.03 290.638 166.949 290.797 172.967C290.955 178.985 292.171 185.426 294.443 192.291Z" fill="#000000" fill-rule="evenodd" opacity="1" stroke="#000000" stroke-linecap="round" stroke-linejoin="round" stroke-width="1"/>
<path d="M300.369 179.037C304.943 182.529 309.077 186.334 312.771 190.452C316.466 194.57 319.629 195.54 322.261 193.363C324.892 191.186 326.197 189.646 326.173 188.743C326.149 187.841 324.628 186.827 321.611 185.702C318.593 184.578 315.478 181.636 311.517 178.729C307.556 175.823 304.678 172.654 301.589 168.821C298.5 164.989 295.635 163.806 295.038 163.822C294.441 163.838 294.037 165.504 293.825 168.822C293.614 172.14 295.795 175.545 300.369 179.037Z" fill="#ffffff" fill-rule="evenodd" opacity="1" stroke="#ffffff" stroke-linecap="round" stroke-linejoin="round" stroke-width="1"/>
<path d="M302.296 203.475C303.868 206.444 305.42 206.303 307.825 206.842C310.229 207.381 312.956 208.814 316.006 211.142C317.53 212.306 319.055 213.471 320.58 214.635C319.99 213.344 324.611 202.156 330.815 199.937C337.018 197.718 335.841 193.167 335.479 192.375C333.576 188.21 319.029 201.705 316.503 198.498C303.383 181.844 291.722 178.879 292.854 181.034C293.04 181.389 293.049 182.886 294.484 186.148C296.279 190.23 298.451 195.863 297.953 195.877C297.961 196.177 299.879 198.821 299.887 199.122C299.903 199.724 300.723 200.505 302.296 203.475Z" fill="#ffb2b2" fill-rule="evenodd" opacity="1" stroke="#ffb2b2" stroke-linecap="round" stroke-linejoin="round" stroke-width="1"/>
<path d="M312.589 217.556C314.428 219.314 316.267 221.072 318.106 222.83C317.925 221.63 317.744 220.43 317.563 219.231C317.201 216.832 315.5 214.618 312.458 212.591C310.937 211.577 309.417 210.564 307.896 209.55C307.759 210.005 307.621 210.461 307.484 210.916C307.209 211.826 308.911 214.04 312.589 217.556Z" fill="#b13e3e" fill-rule="evenodd" opacity="1" stroke="#b13e3e" stroke-linecap="round" stroke-linejoin="round" stroke-width="1"/>
<path d="M316.194 422.507C316.855 424.898 317.948 426.676 319.472 427.84C320.997 429.004 322.357 429.571 323.551 429.539C324.745 429.507 325.448 427.833 325.66 424.515C325.871 421.198 325.662 418.945 325.033 417.757C324.405 416.569 322.888 415.706 320.483 415.167C318.079 414.629 316.597 415.12 316.04 416.64C315.482 418.16 315.534 420.116 316.194 422.507Z" fill="#000000" fill-rule="evenodd" opacity="1" stroke="#000000" stroke-linecap="round" stroke-linejoin="round" stroke-width="1"/>
<path d="M321.169 424.182C321.931 424.764 322.694 425.346 323.456 425.928C323.122 424.582 322.787 423.236 322.453 421.89C321.785 419.198 321.002 417.864 320.107 417.887C319.659 417.899 319.211 417.911 318.763 417.923C318.783 418.675 318.803 419.427 318.822 420.179C318.862 421.684 319.644 423.018 321.169 424.182Z" fill="#ffd165" fill-rule="evenodd" opacity="1" stroke="#ffd165" stroke-linecap="round" stroke-linejoin="round" stroke-width="1"/>
<path d="M325.145 285.874C331.022 282.106 334.628 277.193 335.962 271.136C337.297 265.078 338.675 260.676 340.097 257.929C340.808 256.555 341.518 255.181 342.229 253.807C340.882 253.693 339.534 253.578 338.186 253.463C335.491 253.233 333.53 252.532 332.304 251.36C331.691 250.774 331.078 250.188 330.465 249.602C329.338 252.191 328.211 254.78 327.084 257.369C324.83 262.547 324.057 267.235 324.765 271.431C325.473 275.628 325.093 278.197 323.623 279.139C322.154 280.082 320.571 282.382 318.875 286.04C318.027 287.869 317.178 289.698 316.33 291.527C319.269 289.642 322.207 287.758 325.145 285.874Z" fill="#7c9ab6" fill-rule="evenodd" opacity="1" stroke="#8bb2d6" stroke-linecap="round" stroke-linejoin="round" stroke-width="1"/>
<path d="M316.835 123.501C317.778 125.283 319.774 127.338 322.824 129.666C325.873 131.994 328.298 133.285 330.097 133.539C331.897 133.792 334.12 133.131 336.768 131.556C339.416 129.981 340.39 127.245 339.689 123.349C338.989 119.453 337.413 116.334 334.961 113.99C332.509 111.646 329.208 111.131 325.06 112.445C320.911 113.759 318.251 114.883 317.081 115.817C315.91 116.751 315.34 117.82 315.372 119.024C315.404 120.227 315.891 121.72 316.835 123.501Z" fill="#000000" fill-rule="evenodd" opacity="1" stroke="#000000" stroke-linecap="round" stroke-linejoin="round" stroke-width="1"/>
<path d="M319.748 125.172C320.208 125.612 319.86 124.559 320.32 124.999C320.453 124.393 321.487 123.633 321.62 123.028C321.887 121.816 324.378 120.592 326.169 120.545C327.961 120.498 329.03 121.373 329.376 123.17C329.722 124.968 329.315 127.456 328.435 128.082C327.555 128.707 324.559 128.784 324.874 129.377C325.188 129.971 328.552 132.471 331.223 131.798C333.895 131.125 337.766 127.14 337.396 124.44C337.026 121.74 336.743 118.278 335.508 116.805C334.274 115.332 329.494 112.108 325.927 112.804C322.359 113.501 317.571 117.511 317.312 119.023C317.053 120.535 318.828 124.293 319.748 125.172Z" fill="#ffffff" fill-rule="evenodd" opacity="1" stroke="#ffffff" stroke-linecap="round" stroke-linejoin="round" stroke-width="1"/>
<path d="M332.165 365.178C335.502 389.78 338.138 404.765 340.072 410.134C342.006 415.502 346.815 433.591 354.499 464.401C362.183 495.211 367.975 516.587 371.876 528.527C375.776 540.468 379.165 550.014 382.042 557.164C384.92 564.314 386.819 568.329 387.738 569.208C388.198 569.648 388.658 570.087 389.117 570.527C390.814 566.869 392.51 563.211 394.207 559.553C397.6 552.237 401.174 546.12 404.929 541.204C408.684 536.287 410.546 533.227 410.514 532.023C410.482 530.82 407.326 524.429 401.045 512.853C394.764 501.276 388.274 487.446 381.575 471.364C374.877 455.282 366.986 433.661 357.905 406.501C348.823 379.341 342.598 358.579 339.232 344.216C335.866 329.852 334.135 320.865 334.04 317.254C333.945 313.643 334.628 311.217 336.089 309.974C337.55 308.731 342.693 305.433 351.516 300.082C360.339 294.73 368.149 290.609 374.945 287.72C381.742 284.83 384.955 282.036 384.585 279.335C384.215 276.635 383.574 274.996 382.663 274.418C381.751 273.84 380.914 270.4 380.15 264.097C379.386 257.794 378.509 252.849 377.518 249.262C376.527 245.675 375.572 243.442 374.652 242.563C373.733 241.684 369.604 243.75 362.266 248.762C354.928 253.773 350.068 256.461 347.687 256.825C345.306 257.189 343.409 258.895 341.995 261.943C340.582 264.992 339.349 269.239 338.297 274.687C337.245 280.135 334.952 283.808 331.416 285.708C327.88 287.608 326.287 295.178 326.636 308.417C326.984 321.656 328.827 340.576 332.165 365.178Z" fill="#7c9ab6" fill-rule="evenodd" opacity="1" stroke="#8bb2d6" stroke-linecap="round" stroke-linejoin="round" stroke-width="1"/>
<path d="M336.392 83.24C337.917 84.4041 339.005 86.0314 339.658 88.1218C339.984 89.167 340.311 90.2122 340.637 91.2574C342.263 90.6123 343.89 89.9671 345.516 89.322C348.769 88.0316 351.59 87.3549 353.979 87.2918C356.368 87.2287 359.216 87.6051 362.525 88.421C365.833 89.2369 368.261 90.6782 369.81 92.745C371.358 94.8117 373.04 96.2728 374.856 97.1281C376.671 97.9834 378.463 97.9361 380.23 96.9861C381.998 96.0361 382.379 93.4667 381.372 89.278C380.365 85.0892 377.877 81.3912 373.908 78.184C369.939 74.9768 366.155 73.1197 362.556 72.6126C358.957 72.1055 355.374 72.2001 351.807 72.8966C348.24 73.593 344.397 75.2 340.28 77.7175C338.222 78.9763 336.163 80.2351 334.105 81.4938C334.867 82.0759 335.63 82.6579 336.392 83.24Z" fill="#ffffff" fill-rule="evenodd" opacity="1" stroke="#ffffff" stroke-linecap="round" stroke-linejoin="round" stroke-width="1"/>
<path d="M358.03 121.961C359.086 122.385 360.143 122.809 361.2 123.233C361.169 122.029 361.137 120.825 361.105 119.622C361.074 118.418 361.042 117.215 361.01 116.011C360.413 116.027 359.816 116.043 359.219 116.059C358.024 116.09 356.999 116.87 356.143 118.398C355.715 119.162 355.287 119.926 354.859 120.69C355.916 121.114 356.973 121.538 358.03 121.961Z" fill="#ffffff" fill-rule="evenodd" opacity="1" stroke="#ffffff" stroke-linecap="round" stroke-linejoin="round" stroke-width="1"/>
<path d="M372.231 116.618C373.175 118.4 375.426 118.792 378.986 117.795C382.545 116.797 384.446 115.242 384.689 113.128C384.811 112.07 384.933 111.013 385.054 109.956C384.009 109.984 382.964 110.012 381.919 110.039C380.874 110.067 379.829 110.094 378.784 110.122C378.772 109.671 378.76 109.219 378.748 108.768C378.724 107.865 379.455 107.244 380.94 106.904C382.425 106.563 383.159 106.092 383.144 105.49C383.136 105.189 383.128 104.889 383.12 104.588C381.34 105.086 379.56 105.585 377.781 106.084C374.221 107.081 372.171 108.641 371.629 110.763C371.087 112.885 371.288 114.836 372.231 116.618Z" fill="#ffffff" fill-rule="evenodd" opacity="1" stroke="#ffffff" stroke-linecap="round" stroke-linejoin="round" stroke-width="1"/>
<path d="M373.627 135.55C374.554 136.73 377.249 136.96 381.713 136.24C386.176 135.52 389.283 134.384 391.035 132.832C392.787 131.28 393.647 129.903 393.616 128.699C393.584 127.496 392.197 125.876 389.454 123.841C386.711 121.806 383.854 121.129 380.884 121.809C377.914 122.49 375.71 123.903 374.273 126.049C372.835 128.194 372.136 130.019 372.176 131.524C372.216 133.028 372.699 134.37 373.627 135.55Z" fill="#ffffff" fill-rule="evenodd" opacity="1" stroke="#ffffff" stroke-linecap="round" stroke-linejoin="round" stroke-width="1"/>
<path d="M381.68 254.12C383.025 259.805 384.303 262.933 385.513 263.503C386.723 264.074 391.535 259.581 399.949 250.024C408.362 240.468 415.669 234.253 421.868 231.379C428.067 228.506 434.832 224.413 442.162 219.101C449.493 213.788 453.606 211.12 454.501 211.097C455.397 211.073 459.208 208.262 465.933 202.665C472.658 197.068 478.629 191.189 483.845 185.029C489.061 178.87 492.86 175.608 495.241 175.244C497.621 174.88 499.873 175.272 501.995 176.42C504.117 177.569 506.82 178.099 510.104 178.013C513.389 177.926 517.11 177.376 521.266 176.363C525.423 175.35 528.526 174.063 530.577 172.504C532.628 170.944 535.873 169.353 540.312 167.73C544.751 166.107 552.636 164.845 563.967 163.943C575.298 163.042 582.578 161.495 585.807 159.302C589.036 157.109 590.769 154.805 591.004 152.39C591.239 149.975 590.74 148.031 589.506 146.558C588.272 145.085 586.448 143.929 584.036 143.089C581.623 142.25 578.335 142.186 574.17 142.898C570.005 143.61 563.335 145.593 554.157 148.847C544.98 152.1 535.9 153.394 526.919 152.728C517.937 152.062 511.093 153.146 506.387 155.98C501.68 158.814 499.021 159.938 498.408 159.352C497.795 158.766 497.775 158.014 498.348 157.096C498.922 156.177 501.715 154.448 506.728 151.906C511.74 149.365 518.738 148.428 527.719 149.094C536.701 149.76 547.56 147.967 560.297 143.716C566.665 141.591 573.034 139.466 579.402 137.34C578.946 137.051 578.49 136.762 578.035 136.473C577.123 135.895 574.88 135.804 571.304 136.199C567.729 136.595 563.439 138.214 558.434 141.056C553.429 143.898 550.33 145.335 549.135 145.366C548.538 145.382 547.941 145.398 547.344 145.414C547.626 144.804 547.909 144.194 548.192 143.585C548.757 142.365 550.667 141.11 553.919 139.82C557.172 138.53 559.376 137.117 560.531 135.581C561.108 134.813 561.686 134.045 562.263 133.277C560.322 133.328 558.381 133.379 556.44 133.43C552.559 133.533 546.163 134.605 537.252 136.647C528.342 138.689 520.743 139.492 514.457 139.056C508.17 138.62 503.345 136.941 499.981 134.019C496.618 131.097 493.803 126.353 491.539 119.789C489.274 113.225 487.38 109.361 485.855 108.197C484.33 107.032 482.821 106.47 481.328 106.51C479.835 106.549 478.52 107.638 477.381 109.775C476.242 111.913 475.845 113.881 476.191 115.678C476.538 117.476 477.799 120.002 479.977 123.256C482.154 126.511 483.282 129.642 483.362 132.651C483.441 135.66 482.632 138.994 480.936 142.652C479.239 146.31 478.725 149.485 479.394 152.177C480.062 154.869 479.827 157.284 478.688 159.422C477.549 161.56 474.788 164.493 470.404 168.222C466.02 171.951 460.43 175.26 453.634 178.149C446.837 181.039 442.563 183.259 440.811 184.811C439.059 186.363 436.851 187.626 434.188 188.599C431.524 189.573 429.32 190.986 427.576 192.839C425.832 194.692 424.512 195.63 423.616 195.653C422.721 195.677 420.525 197.391 417.029 200.795C413.533 204.2 409.346 209.73 404.468 217.387C399.589 225.043 394.365 230.902 388.795 234.963C383.225 239.025 380.31 241.811 380.051 243.324C379.792 244.836 380.335 248.435 381.68 254.12Z" fill="#f3d5c4" fill-rule="evenodd" opacity="1" stroke="#f3d5c4" stroke-linecap="round" stroke-linejoin="round" stroke-width="1"/>
<path d="M394.349 616.004C396.748 627.684 398.307 641.493 399.026 657.432C399.745 673.371 400.321 683.894 400.754 689.002C401.187 694.109 401.868 697.252 402.795 698.432C403.723 699.612 404.057 700.958 403.798 702.471C403.669 703.227 403.539 703.983 403.41 704.739C404.301 704.565 405.193 704.391 406.085 704.217C407.869 703.869 411.165 704.233 415.975 705.31C420.784 706.388 426.764 706.531 433.914 705.74C441.065 704.949 445.508 703.476 447.244 701.323C448.112 700.246 448.98 699.169 449.848 698.092C447.581 697.099 445.314 696.105 443.047 695.111C438.512 693.123 434.987 689.753 432.472 685.002C429.956 680.251 427.658 666.762 425.579 644.536C423.5 622.31 421.783 608.204 420.43 602.218C419.078 596.232 417.941 592.799 417.022 591.92C416.102 591.041 414.908 591.073 413.439 592.015C411.969 592.957 407.821 594.271 400.993 595.957C394.164 597.642 391.95 604.325 394.349 616.004Z" fill="#ffffff" fill-rule="evenodd" opacity="1" stroke="#ffffff" stroke-linecap="round" stroke-linejoin="round" stroke-width="1"/>
<path d="M402.557 740.442C403.21 742.532 406.227 743.657 411.61 743.816C414.302 743.895 416.993 743.974 419.684 744.054C419.487 742.252 419.291 740.451 419.094 738.65C418.7 735.047 419.088 732.778 420.259 731.844C421.43 730.91 423.834 731.449 427.473 733.46C431.112 735.472 437.442 737.563 446.463 739.733C455.484 741.904 467 742.352 481.011 741.079C495.021 739.805 505.271 737.577 511.761 734.395C518.251 731.213 523.971 727.147 528.92 722.199C533.869 717.251 537.051 713.252 538.465 710.204C539.878 707.156 540.369 703.078 539.935 697.971C539.502 692.864 538.822 689.72 537.894 688.54C536.967 687.36 535.305 686.651 532.908 686.414C530.511 686.176 526.076 687.949 519.602 691.733C513.128 695.517 506.029 698.264 498.305 699.974C490.581 701.683 484.479 702.597 480 702.716C475.521 702.834 470.861 701.753 466.02 699.472C461.179 697.191 458.012 696.07 456.519 696.11C455.026 696.149 454.005 697.079 453.455 698.9C452.906 700.722 451.904 702.404 450.451 703.948C448.997 705.492 446.346 706.917 442.496 708.223C438.646 709.529 431.185 709.877 420.113 709.266C409.041 708.655 403.222 708.959 402.656 710.179C402.091 711.398 401.77 716.224 401.693 724.657C401.616 733.09 401.904 738.351 402.557 740.442Z" fill="#573304" fill-rule="evenodd" opacity="1" stroke="#824c04" stroke-linecap="round" stroke-linejoin="round" stroke-width="1"/>
</g>
</svg>
