<?xml version="1.0" encoding="UTF-8" standalone="no"?>
<!DOCTYPE svg PUBLIC "-//W3C//DTD SVG 1.1//EN" "http://www.w3.org/Graphics/SVG/1.1/DTD/svg11.dtd"
[
<!ATTLIST g
  xmlns:vectornator CDATA #FIXED "http://vectornator.io"
  vectornator:layerName CDATA #IMPLIED >
<!ATTLIST g
  xmlns:vectornator CDATA #FIXED "http://vectornator.io"
  vectornator:mask CDATA #IMPLIED >
<!ATTLIST text
  xmlns:vectornator CDATA #FIXED "http://vectornator.io"
  vectornator:width CDATA #IMPLIED >
<!ATTLIST text
  xmlns:vectornator CDATA #FIXED "http://vectornator.io"
  vectornator:text CDATA #IMPLIED >

<!ATTLIST path
  xmlns:vectornator CDATA #FIXED "http://vectornator.io"
  vectornator:blendMode CDATA #IMPLIED >
<!ATTLIST path
  xmlns:vectornator CDATA #FIXED "http://vectornator.io"
  vectornator:shadowColor CDATA #IMPLIED >
<!ATTLIST path
  xmlns:vectornator CDATA #FIXED "http://vectornator.io"
  vectornator:shadowOpacity CDATA #IMPLIED >
<!ATTLIST path
  xmlns:vectornator CDATA #FIXED "http://vectornator.io"
  vectornator:shadowRadius CDATA #IMPLIED >
<!ATTLIST path
  xmlns:vectornator CDATA #FIXED "http://vectornator.io"
  vectornator:shadowOffset CDATA #IMPLIED >
<!ATTLIST path
  xmlns:vectornator CDATA #FIXED "http://vectornator.io"
  vectornator:shadowAngle CDATA #IMPLIED >

<!ATTLIST image
  xmlns:vectornator CDATA #FIXED "http://vectornator.io"
  vectornator:blendMode CDATA #IMPLIED >
<!ATTLIST image
  xmlns:vectornator CDATA #FIXED "http://vectornator.io"
  vectornator:shadowColor CDATA #IMPLIED >
<!ATTLIST image
  xmlns:vectornator CDATA #FIXED "http://vectornator.io"
  vectornator:shadowOpacity CDATA #IMPLIED >
<!ATTLIST image
  xmlns:vectornator CDATA #FIXED "http://vectornator.io"
  vectornator:shadowRadius CDATA #IMPLIED >
<!ATTLIST image
  xmlns:vectornator CDATA #FIXED "http://vectornator.io"
  vectornator:shadowOffset CDATA #IMPLIED >
<!ATTLIST image
  xmlns:vectornator CDATA #FIXED "http://vectornator.io"
  vectornator:shadowAngle CDATA #IMPLIED >

<!ATTLIST g
  xmlns:vectornator CDATA #FIXED "http://vectornator.io"
  vectornator:blendMode CDATA #IMPLIED >
<!ATTLIST g
  xmlns:vectornator CDATA #FIXED "http://vectornator.io"
  vectornator:shadowColor CDATA #IMPLIED >
<!ATTLIST g
  xmlns:vectornator CDATA #FIXED "http://vectornator.io"
  vectornator:shadowOpacity CDATA #IMPLIED >
<!ATTLIST g
  xmlns:vectornator CDATA #FIXED "http://vectornator.io"
  vectornator:shadowRadius CDATA #IMPLIED >
<!ATTLIST g
  xmlns:vectornator CDATA #FIXED "http://vectornator.io"
  vectornator:shadowOffset CDATA #IMPLIED >
<!ATTLIST g
  xmlns:vectornator CDATA #FIXED "http://vectornator.io"
  vectornator:shadowAngle CDATA #IMPLIED >

<!ENTITY % SVG.filter.extra.content  "| feDropShadow" >
<!ELEMENT feDropShadow EMPTY>
<!ATTLIST feDropShadow
  xmlns:svg CDATA #FIXED "http://www.w3.org/Graphics/SVG/1.1/DTD/svg11.dtd"
  dx CDATA #IMPLIED>
<!ATTLIST feDropShadow
  xmlns:svg CDATA #FIXED "http://www.w3.org/Graphics/SVG/1.1/DTD/svg11.dtd"
  dy CDATA #IMPLIED>
<!ATTLIST feDropShadow
  xmlns:svg CDATA #FIXED "http://www.w3.org/Graphics/SVG/1.1/DTD/svg11.dtd"
  stdDeviation CDATA #IMPLIED>
<!ATTLIST feDropShadow
  xmlns:svg CDATA #FIXED "http://www.w3.org/Graphics/SVG/1.1/DTD/svg11.dtd"
  flood-opacity CDATA #IMPLIED>
<!ATTLIST feDropShadow
  xmlns:svg CDATA #FIXED "http://www.w3.org/Graphics/SVG/1.1/DTD/svg11.dtd"
  in CDATA #IMPLIED>
<!ATTLIST feDropShadow
  xmlns:svg CDATA #FIXED "http://www.w3.org/Graphics/SVG/1.1/DTD/svg11.dtd"
  result CDATA #IMPLIED>
<!ATTLIST feDropShadow
  xmlns:svg CDATA #FIXED "http://www.w3.org/Graphics/SVG/1.1/DTD/svg11.dtd"
  flood-color CDATA #IMPLIED>
]
>
<!-- Created with Vectornator (http://vectornator.io/) -->
<svg height="100%" stroke-miterlimit="10" style="fill-rule:nonzero;clip-rule:evenodd;stroke-linecap:round;stroke-linejoin:round;" version="1.1" viewBox="0 0 841.995 595.35" width="100%" xml:space="preserve" xmlns="http://www.w3.org/2000/svg" xmlns:vectornator="http://vectornator.io" xmlns:xlink="http://www.w3.org/1999/xlink">
<defs/>
<g id="Ebene-1" vectornator:layerName="Ebene 1">
<path d="M326.775 518.569C330.077 519.714 332.496 520.852 334.033 521.983C334.801 522.549 335.569 523.115 336.337 523.68C337.121 522.231 337.904 520.783 338.688 519.334C340.255 516.436 341.702 514.88 343.027 514.667C344.353 514.453 350.513 517.076 361.507 522.535C372.502 527.994 383.727 531.999 395.185 534.551C406.643 537.104 414.356 538.619 418.326 539.098C422.295 539.577 425.495 539.602 427.926 539.173C430.357 538.745 433.235 537.648 436.559 535.883C439.883 534.119 442.66 531.79 444.889 528.897C447.118 526.005 447.803 522.988 446.945 519.847C446.086 516.707 444.886 514.794 443.347 514.111C441.807 513.427 438.608 513.178 433.751 513.364C428.894 513.55 424.043 512.952 419.198 511.571C414.352 510.19 408.31 506.673 401.069 501.019C393.829 495.366 387.451 492.406 381.935 492.139C376.419 491.872 372.443 492.288 370.007 493.388C368.788 493.938 367.57 494.489 366.352 495.039C366.245 494.59 366.138 494.142 366.031 493.693C365.818 492.796 367.048 490.679 369.722 487.342C372.396 484.005 377.172 479.901 384.052 475.031C390.931 470.16 398.261 464.061 406.042 456.735C413.823 449.409 420.139 446.101 424.989 446.81C429.839 447.52 435.045 444.987 440.607 439.21C446.169 433.433 449.612 430.55 450.936 430.561C452.261 430.571 456.01 430.936 462.184 431.656C468.359 432.376 471.419 436.318 471.364 443.481C471.31 450.644 471.391 454.45 471.608 454.899C471.826 455.349 473.26 455.36 475.912 454.933C478.564 454.506 479.997 454.629 480.213 455.303C480.429 455.976 481.996 467.517 484.915 489.925C487.834 512.333 489.291 523.873 489.286 524.545C489.281 525.216 488.946 525.661 488.283 525.88C487.619 526.099 487.269 528.558 487.233 533.259C487.197 537.96 487.61 541.768 488.47 544.685C489.331 547.602 489.851 551.748 490.031 557.121C490.121 559.808 490.21 562.495 490.3 565.182C493.062 564.868 495.823 564.554 498.584 564.24C504.107 563.612 506.773 561.282 506.583 557.251C506.393 553.22 506.853 550.874 507.961 550.211C509.07 549.548 512.498 548.679 518.244 547.605C523.991 546.531 530.946 546.25 539.108 546.762C547.271 547.273 555.554 546.443 563.958 544.27C572.361 542.098 578.671 539.573 582.887 536.696C587.102 533.819 590.547 530.712 593.221 527.375C595.895 524.038 597.575 520.806 598.261 517.677C598.947 514.548 599.187 512.088 598.979 510.295C598.772 508.503 598.454 506.821 598.025 505.251C597.595 503.681 596.615 501.994 595.084 500.191C593.552 498.388 591.793 497.591 589.805 497.799C587.817 498.008 584.605 499.549 580.168 502.425C575.732 505.3 571.411 507.617 567.204 509.374C562.997 511.132 559.899 512.115 557.911 512.324C555.923 512.532 551.845 511.828 545.678 510.213C539.51 508.597 534.66 507.776 531.129 507.748C527.598 507.721 524.502 508.48 521.842 510.026C519.181 511.572 517.293 513.124 516.178 514.682C515.063 516.241 513.405 516.563 511.205 515.651C509.004 514.738 507.252 512.933 505.949 510.237C504.645 507.54 503.921 501.155 503.777 491.08C503.633 481.006 502.937 471.039 501.688 461.179C500.439 451.32 503.688 444.966 511.434 442.116C519.181 439.267 523.279 437.396 523.727 436.504C524.175 435.613 525.064 434.836 526.393 434.175C527.723 433.514 528.39 432.847 528.395 432.176C528.4 431.504 527.742 430.94 526.421 430.481C525.101 430.023 522.701 426.311 519.223 419.344C515.745 412.377 513.567 408.555 512.689 407.876C511.811 407.198 507.227 400.558 498.936 387.957C490.645 375.356 485.839 368.827 484.518 368.369C483.197 367.911 482.112 365.552 481.261 361.292C480.411 357.032 479.586 349.414 478.787 338.439C477.988 327.464 477.541 313.694 477.447 297.128C477.353 280.562 477.554 268.587 478.052 261.204C478.301 257.512 478.55 253.82 478.799 250.129C480.108 252.042 481.418 253.955 482.728 255.868C485.347 259.694 487.098 261.61 487.981 261.617C488.864 261.624 489.844 263.311 490.922 266.677C492 270.043 493.629 273.526 495.808 277.125C497.988 280.724 499.737 282.864 501.057 283.546C502.376 284.228 504.912 284.471 508.666 284.277C512.419 284.083 515.515 283.323 517.953 281.999C520.391 280.675 523.489 279.581 527.248 278.715C531.007 277.849 533.995 276.753 536.212 275.427C538.429 274.101 541.99 270.324 546.893 264.094C551.796 257.865 555.581 253.641 558.246 251.424C560.911 249.206 564.569 247.108 569.219 245.13C573.869 243.152 578.401 242.292 582.813 242.55C587.225 242.809 589.985 242.719 591.092 242.28C592.199 241.841 593.532 240.62 595.093 238.617C596.653 236.615 597.438 234.942 597.448 233.599C597.459 232.256 597.136 231.134 596.481 230.234C595.826 229.333 596.054 228.328 597.166 227.217C598.278 226.107 598.732 224.431 598.529 222.191C598.325 219.951 597.346 218.152 595.59 216.795C593.835 215.439 592.853 213.976 592.644 212.407C592.435 210.839 592.002 209.716 591.345 209.039C590.688 208.362 589.588 207.906 588.045 207.67C586.502 207.434 585.295 206.529 584.424 204.956C583.553 203.382 582.236 202.476 580.472 202.238C578.708 202.001 576.824 202.993 574.821 205.216C572.818 207.439 571.044 208.432 569.501 208.196C567.958 207.96 566.078 208.505 563.86 209.831C561.643 211.157 559.754 212.933 558.192 215.159C556.63 217.385 555.169 220.732 553.811 225.198C552.453 229.664 551.218 232.341 550.108 233.228C548.998 234.114 543.677 237.207 534.146 242.504C524.615 247.802 518.626 251.672 516.179 254.116C513.733 256.559 512.179 257.778 511.516 257.773C510.854 257.767 509.648 256.751 507.898 254.722C506.148 252.694 505.275 251.344 505.28 250.672C505.285 250.001 505.841 249.446 506.948 249.007C508.055 248.567 508.612 247.9 508.619 247.005C508.626 246.11 508.19 245.323 507.313 244.644C506.435 243.966 505.781 242.841 505.352 241.271C504.922 239.701 504.161 238.24 503.068 236.888C501.975 235.536 500.894 232.506 499.826 227.796C498.759 223.087 497.465 219.159 495.944 216.014C494.423 212.868 494.134 207.269 495.078 199.218C496.023 191.166 497.727 184.8 500.19 180.118C502.654 175.437 503.667 172.87 503.229 172.419C502.791 171.968 501.027 171.73 497.937 171.706C494.847 171.682 493.084 171.332 492.648 170.657C492.211 169.982 495.33 166.201 502.004 159.314C508.678 152.427 513.574 147.205 516.691 143.647C519.808 140.09 521.369 137.976 521.374 137.304C521.379 136.633 521.714 136.188 522.378 135.969C523.042 135.75 523.821 134.861 524.716 133.301C525.61 131.741 526.18 129.395 526.425 126.263C526.669 123.131 528.888 121.582 533.082 121.615C537.275 121.647 540.15 120.886 541.707 119.332C543.264 117.777 544.601 116.109 545.718 114.326C546.835 112.544 548.412 108.415 550.447 101.94C552.483 95.4639 553.397 91.4416 553.188 89.873C552.979 88.3044 552.327 87.0681 551.23 86.1641C550.133 85.26 548.37 84.9104 545.941 85.1152C543.511 85.32 541.298 86.0861 539.302 87.4136C537.305 88.741 535.534 89.3987 533.99 89.3866C532.445 89.3745 531.234 88.9173 530.358 88.015C529.482 87.1127 528.831 85.6525 528.405 83.6345C527.979 81.6164 528.011 77.4754 528.5 71.2113C528.989 64.9472 528.575 61.3623 527.258 60.4565C525.94 59.5508 525.507 58.4281 525.959 57.0885C526.411 55.7489 526.535 53.9591 526.331 51.7189C526.128 49.4788 525.266 46.6738 523.747 43.3041C522.227 39.9344 519.824 36.7815 516.535 33.8456C513.247 30.9097 507.526 28.6263 499.372 26.9953C491.218 25.3643 482.39 25.2951 472.888 26.7875C463.386 28.2799 455.759 29.899 450.007 31.6447C444.255 33.3904 439.827 35.1465 436.724 36.9129C433.62 38.6794 430.844 40.8962 428.396 43.5632C425.948 46.2303 423.943 48.6769 422.381 50.9032C420.819 53.1295 419.472 56.0291 418.342 59.6019C417.211 63.1746 415.976 65.9631 414.636 67.9673C413.296 69.9715 411.741 71.3024 409.97 71.9601C408.2 72.6178 407.313 73.1704 407.309 73.6181C407.306 74.0658 405.538 74.3877 402.005 74.5838C398.472 74.78 396.591 75.4368 396.361 76.5542C396.132 77.6717 395.686 78.3398 395.022 78.5584C394.358 78.7771 393.796 80.1158 393.336 82.5746C392.876 85.0334 393.193 86.8267 394.288 87.9546C395.383 89.0824 395.697 91.3234 395.23 94.6776C394.763 98.0317 394.852 100.831 395.497 103.074C396.142 105.318 396.684 106.665 397.122 107.116C397.56 107.567 401.091 107.595 407.715 107.199C411.027 107.002 414.34 106.804 417.652 106.606C417.749 108.286 417.847 109.965 417.945 111.645C418.14 115.004 418.78 117.919 419.864 120.39C420.949 122.861 424.887 127.481 431.677 134.25C438.468 141.019 442.733 146.089 444.473 149.461C445.343 151.146 446.213 152.832 447.083 154.518C446.751 154.627 446.419 154.736 446.087 154.846C445.423 155.064 444.866 155.844 444.414 157.183C443.962 158.523 442.741 159.521 440.749 160.176C438.758 160.832 437.092 162.274 435.75 164.502C434.409 166.73 432.961 168.51 431.406 169.841C429.85 171.172 428.401 173.175 427.056 175.851C425.711 178.526 425.034 180.536 425.023 181.879C425.013 183.222 422.466 184.433 417.381 185.512C412.296 186.592 407.429 188.121 402.779 190.099C398.129 192.077 394.693 193.953 392.473 195.726C390.252 197.5 389.028 198.833 388.8 199.727C388.573 200.62 388.788 201.294 389.447 201.747C390.106 202.199 390.211 202.872 389.763 203.764C389.315 204.656 384.889 206.188 376.485 208.361C368.081 210.533 362.657 212.729 360.212 214.948C357.767 217.168 356.098 219.057 355.203 220.617C354.308 222.177 353.508 225.753 352.803 231.344C352.099 236.934 350.845 242.185 349.042 247.096C347.238 252.006 347.074 259.057 348.549 268.246C349.287 272.841 350.024 277.436 350.761 282.031C350.541 282.029 350.32 282.027 350.099 282.025C349.879 282.024 349.658 282.022 349.437 282.02C349.433 282.58 349.429 283.139 349.424 283.699C349.416 284.818 348.631 286.491 347.069 288.717C345.507 290.944 344.603 293.623 344.359 296.755C344.114 299.887 344.74 304.705 346.235 311.208C347.73 317.712 349.244 321.753 350.777 323.332C352.31 324.911 353.63 325.481 354.737 325.042C355.844 324.603 356.943 325.283 358.032 327.082C359.122 328.882 360.44 329.788 361.985 329.8C363.529 329.812 365.078 329.376 366.63 328.493C368.181 327.61 370.831 327.519 374.577 328.22C378.324 328.921 380.529 329.162 381.193 328.943C381.857 328.724 382.526 327.834 383.2 326.273C383.874 324.711 383.36 319.782 381.658 311.486C379.955 303.19 378.668 298.255 377.798 296.681C376.927 295.108 374.957 292.966 371.887 290.255C368.818 287.545 366.849 285.291 365.98 283.493C365.11 281.696 364.913 278.672 365.387 274.422C365.86 270.173 367.44 265.596 370.126 260.693C372.812 255.789 374.608 251.885 375.513 248.982C376.418 246.079 377.109 242.279 377.586 237.582C378.064 232.885 381.402 229.218 387.602 226.58C393.802 223.942 398.429 225.098 401.481 230.047C404.533 234.995 406.606 238.146 407.699 239.497C408.792 240.849 409.78 241.64 410.661 241.871C411.542 242.102 410.818 250.155 408.49 266.03C406.162 281.906 403.294 296.21 399.886 308.943C396.478 321.676 392.629 334.405 388.338 347.131C384.047 359.857 380.895 368.003 378.882 371.569C376.868 375.135 374.39 381.719 371.447 391.322C368.505 400.925 365.805 407.619 363.348 411.405C360.892 415.192 360.101 417.536 360.977 418.438C361.853 419.341 367.474 420.28 377.84 421.257C388.207 422.234 393.388 422.946 393.385 423.393C393.381 423.841 391.705 426.514 388.357 431.413C385.009 436.311 383.441 439.321 383.653 440.442C383.866 441.563 384.744 442.129 386.289 442.142C387.061 442.148 387.834 442.154 388.606 442.16C388.605 442.384 388.603 442.607 388.601 442.831C388.598 443.279 384.819 446.831 377.264 453.487C369.708 460.144 362.047 466.24 354.28 471.775C346.513 477.31 341.961 480.856 340.625 482.413C339.289 483.969 338.281 485.864 337.602 488.097C336.923 490.331 334.238 495.122 329.547 502.473C324.855 509.823 322.395 514.057 322.166 515.175C321.937 516.292 323.473 517.423 326.775 518.569Z" fill="#000000" fill-rule="evenodd" opacity="1" stroke="#000000" stroke-linecap="round" stroke-linejoin="round" stroke-width="1"/>
<path d="M330.755 517.592C334.501 518.517 336.934 517.753 338.057 515.299C339.179 512.846 340.293 511.399 341.4 510.96C342.507 510.521 349.108 513.259 361.202 519.175C373.296 525.09 386.285 529.445 400.169 532.24C414.053 535.035 423.094 536.113 427.292 535.475C431.491 534.836 434.81 533.743 437.249 532.195C439.689 530.647 441.578 528.983 442.916 527.203C444.253 525.423 444.928 523.861 444.938 522.518C444.948 521.175 444.626 519.941 443.973 518.817C443.319 517.692 439.572 516.991 432.732 516.714C425.892 516.436 420.491 515.61 416.529 514.236C412.566 512.862 406.965 509.348 399.724 503.695C392.484 498.042 387.32 495.091 384.232 494.843C381.144 494.595 378.163 494.684 375.291 495.109C372.418 495.534 369.542 496.407 366.663 497.727C363.783 499.048 360.909 499.697 358.04 499.674C355.171 499.652 352.635 499.296 350.434 498.607C348.232 497.918 346.149 496.111 344.185 493.186C343.202 491.723 342.22 490.26 341.238 488.797C339.564 491.247 337.89 493.696 336.216 496.145C332.868 501.044 330.185 505.612 328.166 509.849C327.157 511.968 326.147 514.087 325.138 516.205C327.01 516.668 328.883 517.13 330.755 517.592Z" fill="#573304" fill-rule="evenodd" opacity="1" stroke="#824c04" stroke-linecap="round" stroke-linejoin="round" stroke-width="1"/>
<path d="M344.544 489.495C345.847 492.191 346.938 493.879 347.816 494.557C348.694 495.236 351.339 495.704 355.751 495.963C360.163 496.221 362.599 495.233 363.057 492.998C363.516 490.763 364.191 488.978 365.084 487.641C365.977 486.305 367.98 484.194 371.092 481.309C374.204 478.423 378.755 474.989 384.745 471.007C390.734 467.024 397.065 461.701 403.737 455.038C407.074 451.707 410.41 448.375 413.746 445.043C410.218 444.568 406.69 444.092 403.162 443.617C396.107 442.666 391.243 443.747 388.571 446.86C385.898 449.973 380.453 454.855 372.236 461.507C364.019 468.158 358.026 472.588 354.257 474.797C350.488 477.006 347.601 479.334 345.596 481.78C343.591 484.227 343.24 486.799 344.544 489.495Z" fill="#ffffff" fill-rule="evenodd" opacity="1" stroke="#ffffff" stroke-linecap="round" stroke-linejoin="round" stroke-width="1"/>
<path d="M347.952 303.163C348.816 305.632 349.344 308.658 349.538 312.241C349.731 315.825 350.264 318.291 351.137 319.641C352.009 320.991 353.221 321.336 354.771 320.677C355.546 320.347 356.321 320.018 357.096 319.688C357.528 320.811 357.961 321.933 358.394 323.056C359.26 325.301 360.023 326.538 360.683 326.767C361.344 326.997 363.002 326.562 365.659 325.463C368.316 324.365 370.748 323.936 372.953 324.178C375.158 324.419 376.589 324.878 377.246 325.554C377.903 326.231 378.564 326.46 379.227 326.241C379.891 326.023 380.235 324.347 380.259 321.213C380.283 318.079 379.545 313.596 378.044 307.764C376.544 301.932 375.357 298.341 374.484 296.991C373.612 295.641 371.859 293.949 369.226 291.913C366.593 289.878 364.734 287.625 363.649 285.154C362.565 282.683 362.033 280.104 362.053 277.418C362.074 274.732 362.314 272.16 362.774 269.701C363.234 267.242 365.031 263.115 368.166 257.319C371.3 251.524 373.324 246.615 374.237 242.593C375.151 238.57 375.618 235.216 375.638 232.53C375.659 229.844 378.769 227.182 384.969 224.545C391.169 221.907 393.624 218.457 392.332 214.193C391.04 209.93 386.524 208.775 378.784 210.729C371.044 212.683 366.287 214.213 364.513 215.318C362.739 216.423 361.072 217.977 359.512 219.98C357.951 221.982 356.834 223.764 356.16 225.326C355.486 226.888 355.134 229.571 355.105 233.376C355.076 237.182 354.16 241.54 352.357 246.45C350.554 251.361 349.746 256.056 349.932 260.534C350.119 265.013 350.644 268.487 351.508 270.956C352.372 273.425 353.011 276.452 353.425 280.037C353.839 283.622 353.157 286.303 351.377 288.08C349.598 289.856 348.366 292.197 347.682 295.102C346.998 298.007 347.088 300.694 347.952 303.163Z" fill="#f3d5c4" fill-rule="evenodd" opacity="1" stroke="#f3d5c4" stroke-linecap="round" stroke-linejoin="round" stroke-width="1"/>
<path d="M368.599 417.491C371.905 418.188 377.86 418.683 386.466 418.974C395.071 419.265 407.2 420.704 422.851 423.289C438.502 425.874 453.937 427.786 469.157 429.025C484.377 430.263 492.427 431.11 493.306 431.565C493.746 431.792 494.185 432.019 494.625 432.247C494.081 431.235 493.537 430.223 492.993 429.212C491.905 427.189 490.392 422.923 488.455 416.417C486.519 409.91 485.559 405.537 485.576 403.298C485.593 401.06 484.012 391.31 480.833 374.048C477.654 356.786 476.088 345.022 476.136 338.754C476.184 332.487 475.89 327.56 475.256 323.973C474.621 320.386 474.445 314.453 474.729 306.172C475.013 297.892 474.96 290.392 474.57 283.674C474.18 276.955 474.955 262.075 476.897 239.033C478.838 215.991 480.144 203.913 480.815 202.799C481.486 201.685 482.061 198.556 482.542 193.411C483.023 188.266 482.491 185.576 480.948 185.34C479.405 185.104 476.875 184.077 473.357 182.258C469.839 180.44 465.997 177.835 461.829 174.445C457.661 171.054 455.47 169.022 455.254 168.349C455.146 168.012 455.039 167.676 454.931 167.339C454.578 170.135 454.226 172.93 453.874 175.725C453.169 181.316 452.791 187.469 452.74 194.184C452.688 200.9 451.987 206.043 450.635 209.614C449.284 213.185 446.718 216.858 442.937 220.634C439.156 224.41 436.602 226.405 435.276 226.618C433.951 226.832 433.064 227.272 432.618 227.941C432.171 228.609 430.508 229.603 427.629 230.923C424.75 232.244 422.531 233.682 420.975 235.236C419.418 236.791 418.3 238.685 417.621 240.918C416.941 243.152 416.269 244.489 415.603 244.932C414.938 245.374 414.15 247.383 413.24 250.957C412.33 254.532 410.939 263.251 409.068 277.116C407.196 290.98 404.899 302.826 402.175 312.654C399.452 322.483 396.173 332.754 392.339 343.469C388.505 354.184 386.584 360.101 386.575 361.22C386.567 362.34 385.332 365.128 382.87 369.586C380.408 374.044 377.367 382.079 373.747 393.691C370.127 405.303 367.538 411.998 365.979 413.777C365.2 414.666 364.42 415.555 363.641 416.444C365.294 416.793 366.946 417.142 368.599 417.491Z" fill="#7c9ab6" fill-rule="evenodd" opacity="1" stroke="#8bb2d6" stroke-linecap="round" stroke-linejoin="round" stroke-width="1"/>
<path d="M392.931 439.507C397.124 439.54 403.408 440.373 411.783 442.006C420.157 443.639 425.559 444.464 427.986 444.483C430.414 444.503 433.962 442.292 438.631 437.851C443.3 433.411 445.637 430.855 445.642 430.183C445.647 429.512 437.492 428.105 421.175 425.962C404.858 423.819 395.024 425.533 391.67 431.103C389.994 433.888 388.317 436.673 386.641 439.458C388.737 439.475 390.834 439.491 392.931 439.507Z" fill="#6a6865" fill-rule="evenodd" opacity="1" stroke="#c2bbbb" stroke-linecap="round" stroke-linejoin="round" stroke-width="1"/>
<path d="M393.076 203.454C393.516 203.681 393.619 204.578 393.386 206.143C393.154 207.708 393.469 209.837 394.331 212.53C395.193 215.223 396.719 217.809 398.907 220.289C401.095 222.768 403.278 225.919 405.456 229.742C407.634 233.565 409.71 236.267 411.685 237.85C412.672 238.641 413.659 239.432 414.646 240.223C415.318 238.998 415.989 237.772 416.661 236.546C418.004 234.094 419.563 232.203 421.339 230.874C423.115 229.545 425.885 228.112 429.649 226.574C433.412 225.037 437.186 222.268 440.968 218.268C444.751 214.269 447.205 210.818 448.331 207.917C449.457 205.016 450.036 201.439 450.068 197.186C450.101 192.933 448.356 190.121 444.835 188.75C441.314 187.379 436.242 186.892 429.617 187.287C422.993 187.683 417.246 188.757 412.377 190.51C407.508 192.263 404.853 193.025 404.414 192.798C403.974 192.571 402.092 193.339 398.768 195.104C395.444 196.869 393.554 198.645 393.099 200.432C392.644 202.219 392.636 203.227 393.076 203.454Z" fill="#7c9ab6" fill-rule="evenodd" opacity="1" stroke="#8bb2d6" stroke-linecap="round" stroke-linejoin="round" stroke-width="1"/>
<path d="M397.637 82.9441C397.837 85.6319 408.309 87.1692 429.054 87.5558C439.426 87.7491 449.798 87.9424 460.17 88.1358C459.615 88.5791 459.06 89.0225 458.505 89.4658C457.394 90.3525 447.24 90.4967 428.043 89.8983C418.444 89.5992 408.845 89.3 399.246 89.0008C399.458 90.2337 399.669 91.4665 399.88 92.6994C400.303 95.1651 400.393 97.7401 400.152 100.424C400.032 101.767 399.911 103.109 399.79 104.451C409.837 103.97 419.883 103.489 429.929 103.009C450.021 102.047 460.078 100.223 460.098 97.5371C460.119 94.851 460.574 93.0637 461.464 92.1753C462.353 91.2868 462.362 90.1676 461.489 88.8177C460.617 87.4677 460.416 84.7799 460.888 80.7542C461.125 78.7414 461.361 76.7285 461.597 74.7157C453.981 74.8798 446.365 75.0439 438.749 75.208C423.517 75.5361 412.919 76.0126 406.955 76.6374C400.991 77.2621 397.897 77.7975 397.673 78.2434C397.449 78.6894 397.437 80.2563 397.637 82.9441Z" fill="#ffffff" fill-rule="evenodd" opacity="1" stroke="#ffffff" stroke-linecap="round" stroke-linejoin="round" stroke-width="1"/>
<path d="M437.445 72.5115C453.122 71.7391 461.953 71.3607 463.94 71.3762C465.926 71.3918 467.467 71.8516 468.564 72.7557C469.661 73.6597 472.207 72.5604 476.204 69.4578C480.201 66.3552 483.527 64.2547 486.184 63.1563C488.841 62.0578 494.807 61.2092 504.082 60.6104C513.356 60.0117 518.77 59.1587 520.324 58.0516C521.877 56.9446 522.663 55.1599 522.682 52.6976C522.701 50.2354 522.386 48.1063 521.737 46.3104C521.089 44.5145 519.562 42.152 517.156 39.223C514.751 36.294 511.018 33.8023 505.957 31.7479C500.896 29.6935 495.829 28.5345 490.754 28.2708C485.68 28.0071 479.055 28.5148 470.878 29.7938C462.702 31.0727 456.402 32.3664 451.978 33.6748C447.553 34.9832 443.124 36.9632 438.689 39.6146C434.255 42.2661 430.478 45.4823 427.359 49.2634C424.241 53.0444 422.004 56.9443 420.649 60.9631C419.294 64.9818 417.835 68.1043 416.273 70.3306C415.492 71.4438 414.711 72.5569 413.93 73.6701C421.769 73.2839 429.607 72.8977 437.445 72.5115Z" fill="#ffffff" fill-rule="evenodd" opacity="1" stroke="#ffffff" stroke-linecap="round" stroke-linejoin="round" stroke-width="1"/>
<path d="M422.533 117.725C424.049 121.542 428.202 126.836 434.993 133.605C441.783 140.373 445.941 145.107 447.465 147.805C448.99 150.503 449.748 152.3 449.742 153.196C449.735 154.091 450.722 154.882 452.703 155.569C454.684 156.256 456.003 157.05 456.658 157.951C456.985 158.401 457.313 158.851 457.641 159.302C457.879 156.953 458.118 154.604 458.357 152.256C458.834 147.559 458.533 143.639 457.453 140.496C456.374 137.354 455.066 135.217 453.529 134.086C451.993 132.954 449.46 132.263 445.93 132.011C442.401 131.76 439.869 130.957 438.334 129.601C436.799 128.246 435.162 125.883 433.422 122.511C431.682 119.14 430.819 116.559 430.833 114.768C430.846 112.977 430.634 111.856 430.196 111.405C429.758 110.954 429.766 109.947 430.219 108.383C430.446 107.602 430.672 106.82 430.899 106.038C429.133 106.136 427.366 106.234 425.6 106.332C422.067 106.529 420.294 107.522 420.28 109.313C420.266 111.103 421.017 113.908 422.533 117.725Z" fill="#ffffff" fill-rule="evenodd" opacity="1" stroke="#ffffff" stroke-linecap="round" stroke-linejoin="round" stroke-width="1"/>
<path d="M436.261 184.318C441.998 184.586 445.537 183.607 446.878 181.379C448.219 179.151 449.333 177.816 450.219 177.376C451.105 176.935 451.448 175.482 451.246 173.019C451.044 170.555 451.169 168.653 451.62 167.313C452.072 165.974 451.309 164.736 449.331 163.602C447.353 162.467 445.148 162.226 442.715 162.878C440.282 163.531 438.172 165.305 436.384 168.201C434.596 171.097 433.147 172.988 432.037 173.875C430.927 174.762 429.919 176.657 429.014 179.56C428.561 181.011 428.109 182.463 427.656 183.914C430.525 184.049 433.393 184.183 436.261 184.318Z" fill="#ffffff" fill-rule="evenodd" opacity="1" stroke="#ffffff" stroke-linecap="round" stroke-linejoin="round" stroke-width="1"/>
<path d="M430.724 389.437C431.559 395.711 432.631 399.861 433.939 401.886C435.248 403.911 436.563 405.152 437.884 405.61C439.205 406.069 441.521 406.199 444.833 406.001C448.146 405.803 451.35 405.268 454.447 404.397C457.543 403.526 459.648 402.535 460.76 401.425C461.872 400.314 462.77 398.307 463.454 395.402C464.139 392.497 464.522 385.673 464.604 374.928C464.686 364.184 464.299 357.017 463.443 353.429C462.588 349.841 459.512 348.026 454.215 347.984C448.918 347.943 443.729 348.238 438.648 348.869C433.567 349.501 430.803 350.039 430.359 350.483C429.914 350.927 429.655 355.962 429.581 365.587C429.508 375.212 429.889 383.162 430.724 389.437Z" fill="#000000" fill-rule="evenodd" opacity="1" stroke="#000000" stroke-linecap="round" stroke-linejoin="round" stroke-width="1"/>
<path d="M433.802 116.135C434.443 118.826 435.747 121.522 437.713 124.224C439.679 126.926 442.867 128.518 447.278 129C451.688 129.482 455.097 131.076 457.504 133.781C459.912 136.486 461.2 141.197 461.369 147.914C461.539 154.631 461.279 159.778 460.589 163.354C459.9 166.93 461.75 170.415 466.138 173.807C470.526 177.199 474.591 179.582 478.333 180.954C482.075 182.327 484.958 180.446 486.984 175.314C489.01 170.181 494.363 162.836 503.044 153.278C507.384 148.499 511.724 143.72 516.065 138.942C514.742 138.707 513.42 138.473 512.097 138.239C509.452 137.77 505.711 136.398 500.872 134.121C496.034 131.845 491.971 129.127 488.685 125.967C485.398 122.807 483.211 120.216 482.123 118.193C481.579 117.181 481.034 116.169 480.49 115.158C480.158 115.379 479.825 115.6 479.492 115.821C478.827 116.264 478.49 117.045 478.481 118.164C478.477 118.724 478.472 119.283 478.468 119.843C478.027 119.839 477.585 119.836 477.144 119.832C476.261 119.826 475.713 119.373 475.499 118.476C475.285 117.579 475.625 116.463 476.518 115.127C477.411 113.79 479.19 112.014 481.856 109.796C483.188 108.687 484.521 107.578 485.854 106.47C485.961 106.918 486.068 107.367 486.175 107.815C486.388 108.712 485.829 109.715 484.496 110.824C483.164 111.933 483.26 113.724 484.786 116.199C486.312 118.673 488.39 121.152 491.02 123.635C493.65 126.118 497.493 128.611 502.55 131.113C507.608 133.615 511.68 135.102 514.766 135.574C517.853 136.046 519.953 135.502 521.069 133.944C522.184 132.386 523.086 129.931 523.774 126.578C524.461 123.226 523.934 119.976 522.193 116.828C520.451 113.68 518.588 111.987 516.603 111.748C514.619 111.508 512.97 110.6 511.658 109.022C510.346 107.445 509.693 106.209 509.7 105.314C509.703 104.866 509.707 104.418 509.71 103.97C510.151 103.974 510.593 103.977 511.034 103.981C511.917 103.988 512.793 104.89 513.662 106.688C514.531 108.485 515.407 109.388 516.29 109.395C516.732 109.398 517.173 109.402 517.614 109.405C517.617 109.069 517.619 108.733 517.622 108.398C517.627 107.726 518.072 107.282 518.956 107.065C519.841 106.848 521.372 108.651 523.55 112.474C525.728 116.296 528.471 118.444 531.778 118.918C535.085 119.392 537.963 118.295 540.411 115.628C542.859 112.961 545.103 108.166 547.142 101.242C549.181 94.3187 549.764 90.2939 548.889 89.1677C548.015 88.0416 545.144 88.3548 540.274 90.1075C535.405 91.8601 531.982 92.169 530.004 91.0342C528.026 89.8994 526.713 88.4341 526.065 86.6381C525.416 84.8422 525.339 80.4765 525.834 73.5408C526.328 66.6052 526.136 62.7982 525.259 62.1198C524.381 61.4413 522.173 61.5359 518.635 62.4036C515.097 63.2712 510.017 63.6791 503.396 63.6271C496.775 63.5751 492.026 64.0975 489.148 65.1942C486.271 66.2909 482.391 68.499 477.51 71.8185C472.629 75.138 470.287 78.3655 470.484 81.5011C470.681 84.6366 470.222 86.8715 469.108 88.2059C467.995 89.5403 467.984 90.8833 469.078 92.235C470.171 93.5867 470.599 95.3809 470.361 97.6176C470.123 99.8543 469.115 101.861 467.335 103.638C465.556 105.415 463.883 107.752 462.316 110.65C460.749 113.548 459.525 114.881 458.643 114.651C457.762 114.42 456.996 113.63 456.344 112.282C455.692 110.934 454.927 109.92 454.05 109.242C453.172 108.564 452.181 108.22 451.078 108.211C449.974 108.203 448.986 107.635 448.111 106.509C447.237 105.383 444.813 104.916 440.838 105.109C436.864 105.302 434.537 106.515 433.858 108.748C433.179 110.981 433.16 113.443 433.802 116.135Z" fill="#f3d5c4" fill-rule="evenodd" opacity="1" stroke="#f3d5c4" stroke-linecap="round" stroke-linejoin="round" stroke-width="1"/>
<path d="M433.718 387.446C434.343 392.375 435.198 396.076 436.282 398.546C437.367 401.017 439.122 402.374 441.548 402.617C443.974 402.86 447.066 402.66 450.823 402.018C454.58 401.376 457.014 400.612 458.124 399.725C459.234 398.838 460.134 396.719 460.821 393.367C461.509 390.014 461.776 383.972 461.622 375.241C461.468 366.509 458.853 362.011 453.779 361.748C448.704 361.484 444.068 361.672 439.87 362.31C435.671 362.949 433.44 366.065 433.177 371.66C432.913 377.254 433.094 382.516 433.718 387.446Z" fill="#4f6b86" fill-rule="evenodd" opacity="1" stroke="#7c9ab6" stroke-linecap="round" stroke-linejoin="round" stroke-width="1"/>
<path d="M446.842 359.679C456.117 359.08 460.758 358.221 460.767 357.102C460.775 355.982 460.455 354.637 459.804 353.065C459.154 351.493 447.899 351.292 447.899 351.292C447.899 351.292 436.305 352.209 434.975 352.87C433.646 353.531 432.973 354.981 432.956 357.219C432.947 358.338 432.939 359.458 432.93 360.577C437.568 360.277 442.205 359.978 446.842 359.679Z" fill="#4f6b86" fill-rule="evenodd" opacity="1" stroke="#7c9ab6" stroke-linecap="round" stroke-linejoin="round" stroke-width="1"/>
<path d="M448.826 186.431C449.487 186.548 450.148 186.665 450.81 186.782C450.816 185.887 450.823 184.991 450.83 184.096C450.837 183.201 450.844 182.305 450.851 181.41C450.183 182.188 449.514 182.966 448.846 183.745C448.178 184.523 447.51 185.301 446.842 186.079C447.503 186.197 448.165 186.314 448.826 186.431Z" fill="#ffffff" fill-rule="evenodd" opacity="1" stroke="#ffffff" stroke-linecap="round" stroke-linejoin="round" stroke-width="1"/>
<path d="M448.692 160.575C449.789 161.479 451.329 162.05 453.314 162.29C454.306 162.409 455.299 162.529 456.291 162.649C455.855 161.974 455.418 161.299 454.982 160.624C454.109 159.274 452.682 158.367 450.699 157.904C448.716 157.441 447.612 157.544 447.386 158.214C447.16 158.884 447.595 159.671 448.692 160.575Z" fill="#6a6865" fill-rule="evenodd" opacity="1" stroke="#6a6865" stroke-linecap="round" stroke-linejoin="round" stroke-width="1"/>
<path d="M453.408 106.551C455.169 107.236 456.595 108.255 457.689 109.606C458.235 110.282 458.782 110.958 459.329 111.634C460 110.408 460.672 109.182 461.343 107.956C462.015 106.73 462.686 105.504 463.358 104.278C461.261 104.262 459.164 104.245 457.068 104.229C454.971 104.212 452.874 104.196 450.778 104.18C450.776 104.403 450.774 104.627 450.773 104.851C450.769 105.299 451.648 105.865 453.408 106.551Z" fill="#ffffff" fill-rule="evenodd" opacity="1" stroke="#ffffff" stroke-linecap="round" stroke-linejoin="round" stroke-width="1"/>
<path d="M464.376 100.928C465.918 101.388 466.911 101.396 467.356 100.952C467.801 100.508 468.031 99.2782 468.046 97.2637C468.062 95.2491 467.298 94.1238 465.754 93.8879C464.211 93.6519 463.21 94.6514 462.752 96.8863C462.293 99.1213 462.835 100.469 464.376 100.928Z" fill="#ffffff" fill-rule="evenodd" opacity="1" stroke="#ffffff" stroke-linecap="round" stroke-linejoin="round" stroke-width="1"/>
<path d="M463.824 86.4855C464.485 86.7146 465.149 86.4959 465.816 85.8296C466.483 85.1633 466.933 84.0475 467.166 82.4824C467.282 81.6998 467.398 80.9172 467.515 80.1346C466.853 80.1294 466.19 80.1242 465.528 80.119C464.204 80.1086 463.424 81.1099 463.188 83.1227C462.952 85.1355 463.164 86.2565 463.824 86.4855Z" fill="#ffffff" fill-rule="evenodd" opacity="1" stroke="#ffffff" stroke-linecap="round" stroke-linejoin="round" stroke-width="1"/>
<path d="M478.586 451.596C481.238 451.169 486.551 449.084 494.525 445.341C502.499 441.598 509.142 438.852 514.452 437.103C519.763 435.354 522.423 433.808 522.433 432.465C522.444 431.122 520.925 427.64 517.878 422.02C514.831 416.4 508.396 406.388 498.574 391.984C493.663 384.782 488.752 377.58 483.841 370.378C483.727 370.825 483.613 371.272 483.499 371.719C483.272 372.612 484.108 378.775 486.007 390.206C487.906 401.638 489.392 409.372 490.465 413.41C491.538 417.448 493.159 421.938 495.328 426.88C496.413 429.351 497.498 431.822 498.582 434.292C497.147 434.393 495.711 434.494 494.276 434.594C491.405 434.796 487.545 434.542 482.694 433.832C480.269 433.477 477.844 433.122 475.419 432.768C475.284 436.012 475.149 439.257 475.014 442.502C474.878 445.747 474.743 448.992 474.608 452.237C475.934 452.023 477.26 451.81 478.586 451.596Z" fill="#6a6865" fill-rule="evenodd" opacity="1" stroke="#c2bbbb" stroke-linecap="round" stroke-linejoin="round" stroke-width="1"/>
<path d="M483.752 251.847C486.588 256.122 488.892 257.931 490.663 257.273C492.433 256.616 495.207 254.735 498.983 251.63C502.758 248.526 503.667 245.175 501.708 241.578C499.749 237.981 496.508 228.778 491.986 213.968C489.725 206.563 487.464 199.158 485.203 191.753C484.627 194.994 484.05 198.236 483.474 201.477C482.321 207.96 481.37 216.907 480.62 228.317C479.871 239.728 480.915 247.571 483.752 251.847Z" fill="#7c9ab6" fill-rule="evenodd" opacity="1" stroke="#8bb2d6" stroke-linecap="round" stroke-linejoin="round" stroke-width="1"/>
<path d="M484.455 463.395C485.733 469.449 486.359 474.266 486.331 477.848C486.304 481.429 486.614 484.23 487.261 486.25C487.907 488.27 488.741 494.768 489.76 505.745C490.78 516.722 491.507 522.659 491.942 523.558C492.377 524.457 494.359 525.032 497.888 525.284C501.418 525.535 503.847 525.331 505.176 524.669C506.506 524.008 507.839 522.9 509.175 521.343C509.843 520.565 510.511 519.787 511.179 519.008C510.408 518.778 509.637 518.548 508.867 518.319C507.325 517.859 506.008 516.953 504.915 515.601C503.821 514.25 502.951 512.564 502.305 510.544C501.658 508.524 501.258 503.037 501.106 494.081C500.953 485.126 500.257 475.159 499.016 464.18C498.396 458.691 497.776 453.202 497.156 447.712C494.721 448.589 492.287 449.465 489.852 450.341C484.983 452.094 482.547 453.194 482.543 453.642C482.54 454.09 483.177 457.34 484.455 463.395Z" fill="#ffffff" fill-rule="evenodd" opacity="1" stroke="#ffffff" stroke-linecap="round" stroke-linejoin="round" stroke-width="1"/>
<path d="M486.879 189.08C487.538 189.533 487.97 190.767 488.175 192.784C488.38 194.8 489.025 197.155 490.108 199.85C490.649 201.198 491.191 202.545 491.732 203.892C492.084 201.209 492.435 198.525 492.787 195.842C493.49 190.475 494.851 185.673 496.869 181.435C497.879 179.317 498.888 177.198 499.898 175.079C498.244 174.842 496.59 174.606 494.937 174.369C491.63 173.895 489.301 175.332 487.952 178.679C486.602 182.026 485.921 184.483 485.909 186.05C485.897 187.617 486.22 188.627 486.879 189.08Z" fill="#7c9ab6" fill-rule="evenodd" opacity="1" stroke="#8bb2d6" stroke-linecap="round" stroke-linejoin="round" stroke-width="1"/>
<path d="M491.959 260.977C492.179 260.979 492.4 260.981 492.621 260.982C492.617 261.542 492.612 262.101 492.608 262.661C492.599 263.78 493.573 266.362 495.529 270.407C497.484 274.452 499.448 277.377 501.421 279.184C503.394 280.99 506.037 281.682 509.351 281.26C512.665 280.839 515.873 279.857 518.974 278.314C522.076 276.771 524.953 275.786 527.605 275.36C530.257 274.933 535.242 272.397 535.242 272.397C535.242 272.397 542.132 266.184 548.592 258.399C555.052 250.615 561.272 245.403 567.251 242.764C573.23 240.125 578.205 239.045 582.174 239.523C586.143 240.002 588.792 239.911 590.122 239.25C591.451 238.589 592.449 237.925 593.117 237.259C593.784 236.592 594.233 235.589 594.464 234.247C594.695 232.906 594.152 231.782 592.834 230.877C592.176 230.424 591.517 229.971 590.858 229.518C591.747 228.742 592.636 227.965 593.525 227.189C595.302 225.635 596.194 224.411 596.201 223.516C596.208 222.621 595.994 221.723 595.559 220.825C595.125 219.926 594.247 219.247 592.926 218.789C591.606 218.331 590.281 218.433 588.951 219.094C587.622 219.755 586.952 220.757 586.942 222.1C586.932 223.443 586.593 224.448 585.926 225.114C585.258 225.781 584.262 226.22 582.936 226.434C581.61 226.647 580.069 226.188 578.311 225.054C576.554 223.921 575.788 223.132 576.012 222.686C576.124 222.463 576.236 222.24 576.348 222.017C577.008 222.358 577.667 222.699 578.327 223.04C579.646 223.722 580.969 223.844 582.297 223.407C582.961 223.188 583.625 222.97 584.288 222.751C583.747 221.403 583.205 220.056 582.664 218.709C581.581 216.014 579.719 214.097 577.079 212.957C574.44 211.817 571.795 211.348 569.144 211.551C566.494 211.754 563.944 213.301 561.494 216.192C559.044 219.083 557.363 222.54 556.449 226.562C555.536 230.584 554.19 233.372 552.413 234.925C550.635 236.478 545.425 239.571 536.781 244.204C528.138 248.837 521.817 252.929 517.817 256.479C513.817 260.029 511.268 261.464 510.169 260.784C509.071 260.104 507.539 258.413 505.573 255.711C504.59 254.361 503.607 253.01 502.624 251.659C500.736 253.211 498.848 254.763 496.96 256.315C495.072 257.868 493.185 259.42 491.297 260.972C491.517 260.974 491.738 260.975 491.959 260.977Z" fill="#f3d5c4" fill-rule="evenodd" opacity="1" stroke="#f3d5c4" stroke-linecap="round" stroke-linejoin="round" stroke-width="1"/>
<path d="M491.74 550.083C492.372 554.006 493.004 557.928 493.636 561.851C495.405 561.529 497.173 561.207 498.941 560.885C502.477 560.241 504.151 557.792 503.963 553.537C503.775 549.282 503.902 547.045 504.345 546.825C504.788 546.604 505.56 546.722 506.66 547.178C507.76 547.635 509.307 547.423 511.3 546.543C513.293 545.664 516.721 544.795 521.583 543.938C526.445 543.08 532.841 543.69 532.841 543.69C532.841 543.69 539.234 544.748 544.089 544.786C548.945 544.824 554.357 544.195 560.326 542.899C566.296 541.602 571.606 539.853 576.258 537.651C580.91 535.449 584.792 532.793 587.906 529.684C591.02 526.574 593.14 523.457 594.268 520.332C595.395 517.207 595.862 513.853 595.669 510.269C595.476 506.686 594.832 504.219 593.739 502.867C592.646 501.515 591.659 500.724 590.777 500.493C589.896 500.263 586.795 501.805 581.472 505.121C576.15 508.437 571.386 510.862 567.181 512.396C562.975 513.93 559.217 514.684 555.907 514.658C552.596 514.632 550.282 514.278 548.962 513.596C547.643 512.915 544.228 512.104 538.718 511.166C533.207 510.227 529.567 509.975 527.798 510.408C526.029 510.842 523.48 512.277 520.151 514.714C516.821 517.15 514.709 519.148 513.815 520.708C512.92 522.268 511.584 523.712 509.809 525.042C508.033 526.371 506.481 527.254 505.153 527.691C503.826 528.129 500.955 528.33 496.541 528.295C494.334 528.278 492.127 528.261 489.92 528.243C489.907 529.922 489.894 531.601 489.881 533.28C489.856 536.637 490.475 542.239 491.74 550.083Z" fill="#573304" fill-rule="evenodd" opacity="1" stroke="#824c04" stroke-linecap="round" stroke-linejoin="round" stroke-width="1"/>
<path d="M502.132 70.1529C503.088 70.0518 503.663 69.8934 503.855 69.6778C504.048 69.4622 505.007 69.0897 506.731 68.5604C508.455 68.031 510.178 67.6646 511.9 67.4609C513.622 67.2573 515.152 67.1607 516.49 67.1712C517.159 67.1765 517.828 67.1817 518.497 67.187C518.498 66.9699 518.5 66.7527 518.502 66.5356C518.503 66.3185 518.505 66.1013 518.507 65.8842C517.359 65.9295 516.212 65.9748 515.065 66.0201C512.771 66.1106 510.762 66.2849 509.04 66.5428C507.318 66.8007 505.594 67.2757 503.868 67.9679C502.143 68.6601 501.183 69.2226 500.989 69.6553C500.891 69.8717 500.794 70.0881 500.697 70.3045C501.175 70.2539 501.653 70.2034 502.132 70.1529Z" fill="#000000" fill-rule="evenodd" opacity="1" stroke="#000000" stroke-linecap="round" stroke-linejoin="round" stroke-width="1"/>
<path d="M512.143 88.8794C515.451 89.1292 517.215 89.4788 517.432 89.9282C517.649 90.3776 518.311 90.3828 519.418 89.9438C520.525 89.5048 521.197 88.1669 521.435 85.9303C521.673 83.6936 521.253 80.8921 520.175 77.5258C519.636 75.8427 519.097 74.1595 518.558 72.4764C517.783 72.8061 517.008 73.1358 516.233 73.4655C514.683 74.1249 513.24 75.2329 511.904 76.7894C510.568 78.3458 509.446 80.6875 508.54 83.8144C508.086 85.3778 507.633 86.9412 507.179 88.5046C508.834 88.6296 510.488 88.7545 512.143 88.8794Z" fill="#000000" fill-rule="evenodd" opacity="1" stroke="#000000" stroke-linecap="round" stroke-linejoin="round" stroke-width="1"/>
<path d="M510.836 86.5186C511.495 86.9715 512.487 87.0912 513.813 86.8778C515.139 86.6643 515.807 85.8861 515.818 84.543C515.828 83.2 516.277 82.1962 517.165 81.5316C518.053 80.867 518.171 79.8606 517.519 78.5123C517.193 77.8382 516.867 77.1641 516.541 76.49C515.764 77.1554 514.986 77.8209 514.208 78.4863C512.653 79.8173 511.538 81.3755 510.862 83.161C510.186 84.9466 510.178 86.0658 510.836 86.5186Z" fill="#ffffff" fill-rule="evenodd" opacity="1" stroke="#ffffff" stroke-linecap="round" stroke-linejoin="round" stroke-width="1"/>
<path d="M577.765 209.94C578.865 210.396 579.965 210.853 581.065 211.309C581.292 210.527 581.518 209.746 581.745 208.964C582.198 207.4 582.207 206.281 581.771 205.606C581.334 204.931 580.675 204.59 579.792 204.583C578.909 204.576 577.8 205.239 576.466 206.572C575.799 207.238 575.132 207.905 574.464 208.571C575.564 209.027 576.665 209.484 577.765 209.94Z" fill="#f3d5c4" fill-rule="evenodd" opacity="1" stroke="#f3d5c4" stroke-linecap="round" stroke-linejoin="round" stroke-width="1"/>
<path d="M584.021 214.354C584.678 215.031 585.003 215.817 584.997 216.712C584.993 217.16 584.99 217.608 584.986 218.055C585.428 218.059 585.869 218.062 586.311 218.066C587.193 218.073 588.192 217.409 589.305 216.075C590.419 214.74 590.54 213.398 589.667 212.048C588.795 210.698 587.695 210.13 586.369 210.343C585.044 210.557 584.156 211.109 583.708 212.001C583.26 212.893 583.364 213.678 584.021 214.354Z" fill="#f3d5c4" fill-rule="evenodd" opacity="1" stroke="#f3d5c4" stroke-linecap="round" stroke-linejoin="round" stroke-width="1"/>
</g>
</svg>
