<?xml version="1.0" encoding="UTF-8" standalone="no"?>
<!DOCTYPE svg PUBLIC "-//W3C//DTD SVG 1.1//EN" "http://www.w3.org/Graphics/SVG/1.1/DTD/svg11.dtd"
[
<!ATTLIST g
  xmlns:vectornator CDATA #FIXED "http://vectornator.io"
  vectornator:layerName CDATA #IMPLIED >
<!ATTLIST g
  xmlns:vectornator CDATA #FIXED "http://vectornator.io"
  vectornator:mask CDATA #IMPLIED >
<!ATTLIST text
  xmlns:vectornator CDATA #FIXED "http://vectornator.io"
  vectornator:width CDATA #IMPLIED >
<!ATTLIST text
  xmlns:vectornator CDATA #FIXED "http://vectornator.io"
  vectornator:text CDATA #IMPLIED >

<!ATTLIST path
  xmlns:vectornator CDATA #FIXED "http://vectornator.io"
  vectornator:blendMode CDATA #IMPLIED >
<!ATTLIST path
  xmlns:vectornator CDATA #FIXED "http://vectornator.io"
  vectornator:shadowColor CDATA #IMPLIED >
<!ATTLIST path
  xmlns:vectornator CDATA #FIXED "http://vectornator.io"
  vectornator:shadowOpacity CDATA #IMPLIED >
<!ATTLIST path
  xmlns:vectornator CDATA #FIXED "http://vectornator.io"
  vectornator:shadowRadius CDATA #IMPLIED >
<!ATTLIST path
  xmlns:vectornator CDATA #FIXED "http://vectornator.io"
  vectornator:shadowOffset CDATA #IMPLIED >
<!ATTLIST path
  xmlns:vectornator CDATA #FIXED "http://vectornator.io"
  vectornator:shadowAngle CDATA #IMPLIED >

<!ATTLIST image
  xmlns:vectornator CDATA #FIXED "http://vectornator.io"
  vectornator:blendMode CDATA #IMPLIED >
<!ATTLIST image
  xmlns:vectornator CDATA #FIXED "http://vectornator.io"
  vectornator:shadowColor CDATA #IMPLIED >
<!ATTLIST image
  xmlns:vectornator CDATA #FIXED "http://vectornator.io"
  vectornator:shadowOpacity CDATA #IMPLIED >
<!ATTLIST image
  xmlns:vectornator CDATA #FIXED "http://vectornator.io"
  vectornator:shadowRadius CDATA #IMPLIED >
<!ATTLIST image
  xmlns:vectornator CDATA #FIXED "http://vectornator.io"
  vectornator:shadowOffset CDATA #IMPLIED >
<!ATTLIST image
  xmlns:vectornator CDATA #FIXED "http://vectornator.io"
  vectornator:shadowAngle CDATA #IMPLIED >

<!ATTLIST g
  xmlns:vectornator CDATA #FIXED "http://vectornator.io"
  vectornator:blendMode CDATA #IMPLIED >
<!ATTLIST g
  xmlns:vectornator CDATA #FIXED "http://vectornator.io"
  vectornator:shadowColor CDATA #IMPLIED >
<!ATTLIST g
  xmlns:vectornator CDATA #FIXED "http://vectornator.io"
  vectornator:shadowOpacity CDATA #IMPLIED >
<!ATTLIST g
  xmlns:vectornator CDATA #FIXED "http://vectornator.io"
  vectornator:shadowRadius CDATA #IMPLIED >
<!ATTLIST g
  xmlns:vectornator CDATA #FIXED "http://vectornator.io"
  vectornator:shadowOffset CDATA #IMPLIED >
<!ATTLIST g
  xmlns:vectornator CDATA #FIXED "http://vectornator.io"
  vectornator:shadowAngle CDATA #IMPLIED >

<!ENTITY % SVG.filter.extra.content  "| feDropShadow" >
<!ELEMENT feDropShadow EMPTY>
<!ATTLIST feDropShadow
  xmlns:svg CDATA #FIXED "http://www.w3.org/Graphics/SVG/1.1/DTD/svg11.dtd"
  dx CDATA #IMPLIED>
<!ATTLIST feDropShadow
  xmlns:svg CDATA #FIXED "http://www.w3.org/Graphics/SVG/1.1/DTD/svg11.dtd"
  dy CDATA #IMPLIED>
<!ATTLIST feDropShadow
  xmlns:svg CDATA #FIXED "http://www.w3.org/Graphics/SVG/1.1/DTD/svg11.dtd"
  stdDeviation CDATA #IMPLIED>
<!ATTLIST feDropShadow
  xmlns:svg CDATA #FIXED "http://www.w3.org/Graphics/SVG/1.1/DTD/svg11.dtd"
  flood-opacity CDATA #IMPLIED>
<!ATTLIST feDropShadow
  xmlns:svg CDATA #FIXED "http://www.w3.org/Graphics/SVG/1.1/DTD/svg11.dtd"
  in CDATA #IMPLIED>
<!ATTLIST feDropShadow
  xmlns:svg CDATA #FIXED "http://www.w3.org/Graphics/SVG/1.1/DTD/svg11.dtd"
  result CDATA #IMPLIED>
<!ATTLIST feDropShadow
  xmlns:svg CDATA #FIXED "http://www.w3.org/Graphics/SVG/1.1/DTD/svg11.dtd"
  flood-color CDATA #IMPLIED>
]
>
<!-- Created with Vectornator (http://vectornator.io/) -->
<svg height="100%" stroke-miterlimit="10" style="fill-rule:nonzero;clip-rule:evenodd;stroke-linecap:round;stroke-linejoin:round;" version="1.1" viewBox="0 0 841.995 595.35" width="100%" xml:space="preserve" xmlns="http://www.w3.org/2000/svg" xmlns:vectornator="http://vectornator.io" xmlns:xlink="http://www.w3.org/1999/xlink">
<defs/>
<g id="Ebene-1" vectornator:layerName="Ebene 1">
<path d="M183.363 486.435C186.084 489.414 188.564 490.786 190.805 490.551C193.046 490.317 195.668 488.85 198.669 486.15C201.671 483.45 203.55 481.238 204.306 479.513C205.062 477.789 207.316 475.332 211.067 472.142C214.818 468.952 221.806 465.41 232.031 461.516C242.256 457.621 248.621 454.199 251.126 451.249C253.631 448.3 255.271 444.358 256.046 439.422C256.82 434.487 258.701 432.028 261.687 432.045C264.673 432.062 267.902 433.067 271.375 435.063C274.848 437.058 278.933 440.785 283.63 446.244C288.327 451.704 293.631 459.883 299.542 470.783C305.453 481.683 308.282 487.502 308.029 488.242C307.776 488.981 308.02 489.723 308.763 490.468C309.505 491.213 309.995 492.574 310.233 494.552C310.47 496.529 311.327 499.003 312.804 501.975C314.28 504.947 316.258 507.181 318.738 508.676C321.218 510.172 322.457 511.167 322.454 511.66C322.453 511.907 322.451 512.154 322.45 512.401C324.192 512.411 325.934 512.421 327.676 512.431C331.16 512.45 335.647 510.993 341.139 508.06C346.63 505.127 350.627 502.433 353.129 499.977C355.632 497.521 357.135 495.678 357.64 494.445C357.892 493.829 358.145 493.213 358.397 492.597C360.63 493.845 362.862 495.092 365.095 496.339C369.56 498.834 373.411 499.967 376.647 499.738C379.884 499.509 382.128 498.781 383.379 497.553C384.63 496.325 386.015 493.492 387.533 489.055C389.051 484.618 390.942 480.307 393.206 476.121C395.469 471.935 396.875 465.275 397.425 456.14C397.974 447.006 399.497 441.704 401.994 440.236C404.491 438.769 406.486 438.039 407.979 438.047C409.472 438.055 411.093 437.57 412.84 436.592C414.588 435.614 425.048 434.067 444.222 431.951C463.396 429.836 473.003 425.197 473.043 418.035C473.084 410.873 474.353 406.435 476.852 404.72C479.35 403.005 481.719 402.154 483.958 402.166C486.198 402.179 488.93 403.182 492.154 405.176C495.377 407.17 503.301 414.252 515.923 426.424C528.546 438.596 536.097 445.553 538.575 447.296C541.054 449.038 543.282 451.15 545.258 453.631C547.235 456.111 550.07 460.82 553.764 467.755C557.457 474.691 559.801 478.285 560.795 478.538C561.789 478.79 563.786 477.69 566.786 475.237C569.787 472.784 571.909 471.561 573.153 471.568C573.775 471.571 574.397 471.575 575.019 471.578C575.023 470.961 575.026 470.344 575.03 469.726C575.037 468.491 574.174 467.005 572.442 465.266C570.71 463.528 569.972 462.042 570.228 460.809C570.483 459.575 576.229 455.656 587.465 449.05C598.701 442.445 606.57 437.179 611.071 433.252C615.573 429.326 619.578 425.15 623.087 420.724C626.596 416.298 629.108 412.237 630.622 408.541C632.136 404.845 632.905 400.898 632.929 396.7C632.952 392.501 632.721 389.413 632.235 387.434C631.748 385.456 630.514 383.597 628.533 381.857C626.552 380.117 624.068 379.362 621.081 379.593C618.093 379.823 613.466 383.872 607.2 391.74C600.934 399.608 593.814 404.631 585.838 406.81C577.862 408.988 572.373 411.55 569.37 414.497C566.367 417.444 564.61 420.151 564.098 422.618C563.586 425.085 562.458 426.56 560.714 427.044C558.969 427.529 556.359 426.897 552.885 425.148C549.411 423.4 543.223 417.562 534.32 407.634C525.418 397.705 517.624 389.759 510.939 383.794C504.253 377.83 498.927 373.602 494.959 371.11C490.992 368.618 487.642 366.994 484.908 366.238C482.175 365.482 478.812 366.08 474.82 368.034C470.827 369.987 468.212 370.343 466.975 369.102C465.737 367.86 463.627 366.984 460.644 366.473C457.66 365.963 453.674 366.805 448.685 369C443.695 371.194 438.833 372.896 434.098 374.105C429.363 375.313 425.53 370.97 422.6 361.075C419.669 351.18 417.603 342.648 416.399 335.479C415.195 328.31 416.216 323.87 419.461 322.16C422.705 320.449 427.297 322.574 433.236 328.534C436.205 331.514 439.175 334.494 442.144 337.475C442.645 336.86 443.146 336.245 443.648 335.631C444.65 334.402 448.395 332.2 454.883 329.025C461.372 325.851 465.993 322.666 468.749 319.471C471.504 316.276 473.137 313.692 473.645 311.719C474.154 309.746 475.665 306.667 478.177 302.483C480.689 298.298 482.201 294.973 482.713 292.506C483.225 290.039 484.735 286.96 487.245 283.27C489.754 279.579 491.883 277.121 493.632 275.896C495.381 274.671 497.999 273.821 501.486 273.347C504.972 272.872 508.212 272.026 511.205 270.808C514.198 269.59 517.702 266.152 521.715 260.494C525.729 254.836 527.244 251.017 526.26 249.035C525.276 247.054 524.789 245.076 524.8 243.1C524.811 241.124 523.824 239.637 521.839 238.638C519.854 237.639 518.99 236.399 519.247 234.919C519.505 233.439 519.012 232.448 517.771 231.947C516.53 231.446 515.91 230.949 515.913 230.455C515.914 230.208 515.916 229.961 515.917 229.714C515.295 229.711 514.673 229.707 514.051 229.704C512.807 229.697 512.064 229.075 511.822 227.839C511.58 226.603 511.087 225.736 510.343 225.238C509.6 224.74 507.984 224.484 505.495 224.47C503.007 224.456 501.012 225.062 499.512 226.289C498.012 227.515 497.384 228.623 497.627 229.612C497.87 230.601 497.742 231.342 497.241 231.833C496.741 232.324 495.243 233.056 492.749 234.03C490.255 235.004 488.007 236.474 486.005 238.438C484.003 240.403 482.354 246.074 481.056 255.451C479.759 264.829 474.86 272.951 466.36 279.819C457.86 286.687 452.106 292.212 449.096 296.393C446.086 300.575 444.453 303.282 444.197 304.516C443.941 305.749 443.191 306.363 441.947 306.356C440.703 306.349 439.212 305.846 437.476 304.849C435.74 303.851 435.878 301.382 437.891 297.442C439.904 293.502 440.915 290.791 440.924 289.309C440.928 288.568 440.932 287.827 440.936 287.086C440.438 287.084 439.941 287.081 439.443 287.078C438.448 287.073 437.455 286.573 436.465 285.58C435.476 284.586 433.375 281.981 430.164 277.765C426.953 273.549 424.98 270.327 424.246 268.1C423.512 265.874 422.896 264.759 422.399 264.756C422.15 264.755 421.901 264.753 421.652 264.752C421.92 261.419 422.187 258.087 422.455 254.754C422.991 248.089 423.894 242.29 425.167 237.358C425.803 234.892 426.439 232.426 427.075 229.96C425.706 230.075 424.336 230.191 422.967 230.307C420.228 230.539 418.239 230.281 416.999 229.533C415.759 228.785 414.764 228.656 414.015 229.146C413.64 229.391 413.265 229.636 412.891 229.88C413.019 229.14 413.148 228.4 413.277 227.66C413.534 226.179 414.041 224.577 414.797 222.852C415.553 221.128 417.809 218.3 421.564 214.37C425.319 210.439 431.068 205.902 438.812 200.759C446.556 195.616 451.433 191.321 453.443 187.875C455.453 184.429 457.092 180.733 458.358 176.789C459.625 172.844 461.506 170.262 464.001 169.041C466.497 167.82 468.367 167.213 469.611 167.22C470.855 167.227 472.602 166.372 474.851 164.656C477.101 162.94 479.107 160.234 480.87 156.54C482.633 152.845 483.648 149.27 483.917 145.813C484.185 142.357 484.076 139.64 483.59 137.662C483.103 135.683 482.24 134.32 481 133.572C479.76 132.824 478.518 132.447 477.274 132.44C476.029 132.433 474.782 132.92 473.532 133.901C472.283 134.882 470.413 135.366 467.925 135.352C465.437 135.338 463.326 134.462 461.594 132.723C459.862 130.985 458.892 126.41 458.686 119C458.479 111.59 458.878 107.023 459.883 105.3C460.888 103.577 461.152 100.862 460.676 97.1547C460.199 93.4475 459.097 90.3542 457.369 87.8749C455.641 85.3956 454.533 83.2902 454.045 81.5587C453.557 79.8272 452.201 77.5969 449.977 74.8679C447.752 72.1388 444.41 69.1566 439.949 65.9211C435.488 62.6856 431.148 60.0683 426.928 58.069C422.709 56.0697 417.865 54.5609 412.396 53.5425C406.927 52.5242 401.329 52.246 395.603 52.708C389.877 53.17 383.772 54.4943 377.29 56.6808C370.807 58.8674 366.193 60.6939 363.447 62.1604C360.702 63.6269 356.078 67.1821 349.576 72.8261C343.073 78.4701 338.069 83.3816 334.561 87.5605C331.053 91.7394 328.416 96.0466 326.649 100.482C324.882 104.918 322.258 106.755 318.779 105.995C315.299 105.235 312.932 105.715 311.678 107.437C310.424 109.159 309.041 111.745 307.528 115.194C306.016 118.643 305.504 121.11 305.993 122.594C306.482 124.079 305.728 125.433 303.73 126.656C301.733 127.88 299.98 129.846 298.471 132.554C296.963 135.263 295.948 138.714 295.426 142.91C294.905 147.106 298.124 149.84 305.085 151.114C312.046 152.388 316.754 155.995 319.209 161.936C321.663 167.877 324.249 172.707 326.965 176.427C329.682 180.146 332.897 183.622 336.612 186.853C340.326 190.084 342.68 191.826 343.674 192.079C344.668 192.331 346.154 193.574 348.133 195.808C350.111 198.042 352.836 200.28 356.307 202.522C358.042 203.643 359.778 204.764 361.514 205.885C359.765 207.11 358.016 208.335 356.267 209.56C352.769 212.01 349.518 214.832 346.514 218.026C343.509 221.22 340.124 225.77 336.358 231.676C332.592 237.583 330.706 241.03 330.7 242.017C330.694 243.005 328.699 243.859 324.713 244.577C320.727 245.296 317.487 246.142 314.993 247.116C312.499 248.09 311.25 248.948 311.246 249.688C311.242 250.429 310.741 251.044 309.742 251.532C308.744 252.021 302.886 253.84 292.167 256.991C281.449 260.142 274.093 262.694 270.1 264.648C266.108 266.601 262.991 267.695 260.75 267.929C258.509 268.164 256.373 271.733 254.343 278.637C252.313 285.541 251.038 290.967 250.518 294.915C249.998 298.864 249.95 307.384 250.374 320.476C250.797 333.567 250.489 344.062 249.449 351.959C248.409 359.856 249.108 368.134 251.548 376.791C253.987 385.448 256.077 389.906 257.818 390.162C259.558 390.419 261.428 389.935 263.425 388.712C264.424 388.1 265.423 387.488 266.422 386.876C266.792 387.496 267.162 388.115 267.531 388.735C267.901 389.354 268.271 389.974 268.641 390.593C266.523 391.075 264.405 391.557 262.287 392.039C260.169 392.522 258.051 393.004 255.933 393.486C256.671 394.972 257.409 396.458 258.147 397.944C259.623 400.915 259.984 403.14 259.229 404.618C258.474 406.095 256.351 407.565 252.858 409.028C249.366 410.49 245.247 412.813 240.501 415.997C235.754 419.181 231.386 421.503 227.396 422.963C223.406 424.422 219.289 426.375 215.045 428.821C210.801 431.267 208.181 432.487 207.185 432.482C206.19 432.476 204.194 433.453 201.196 435.412C198.199 437.371 194.823 440.192 191.07 443.876C187.316 447.56 184.684 451.002 183.172 454.205C181.661 457.407 180.635 462.834 180.094 470.487C179.553 478.14 180.643 483.456 183.363 486.435Z" fill="#000000" fill-rule="evenodd" opacity="1" stroke="#000000" stroke-linecap="round" stroke-linejoin="round" stroke-width="1"/>
<path d="M183.019 481.247C183.508 482.731 184.372 484.094 185.609 485.336C186.846 486.578 188.211 487.326 189.702 487.582C191.194 487.837 192.814 487.352 194.563 486.127C196.312 484.902 198.566 482.321 201.326 478.385C204.086 474.449 206.716 471.377 209.217 469.168C211.718 466.959 214.591 464.999 217.836 463.289C221.081 461.578 225.195 460.119 230.179 458.912C235.163 457.705 239.028 456.368 241.774 454.902C244.519 453.435 246.769 451.596 248.524 449.383C250.278 447.17 251.669 443.226 252.697 437.552C253.724 431.877 254.742 428.055 255.748 426.085C256.755 424.114 259.01 421.41 262.513 417.972C266.017 414.534 269.389 412.207 272.631 410.99C274.252 410.382 275.873 409.773 277.494 409.165C276.627 408.543 275.759 407.92 274.892 407.298C273.157 406.054 271.802 403.7 270.826 400.237C269.85 396.774 267.744 395.157 264.507 395.386C262.889 395.5 261.271 395.615 259.653 395.729C260.513 397.586 261.374 399.443 262.234 401.3C263.955 405.015 264.689 407.241 264.436 407.981C264.183 408.72 263.311 408.962 261.819 408.707C260.327 408.452 255.586 410.772 247.595 415.666C239.604 420.561 233.863 423.616 230.372 424.832C226.881 426.047 212.407 433.252 212.407 433.252C212.407 433.252 197.299 442.552 192.54 447.959C187.781 453.366 184.882 459.894 183.843 467.545C182.805 475.195 182.53 479.762 183.019 481.247Z" fill="#573304" fill-rule="evenodd" opacity="1" stroke="#824c04" stroke-linecap="round" stroke-linejoin="round" stroke-width="1"/>
<path d="M251.978 366.791C252.713 368.771 252.954 370.131 252.701 370.87C252.448 371.61 253.304 374.331 255.268 379.034C257.232 383.738 258.711 386.216 259.705 386.468C260.699 386.721 261.449 386.231 261.953 384.999C262.458 383.767 263.459 382.785 264.956 382.052C265.705 381.686 266.453 381.32 267.202 380.953C267.57 381.943 267.937 382.933 268.305 383.923C269.04 385.903 270.03 387.02 271.272 387.274C272.515 387.528 273.388 387.285 273.889 386.547C274.391 385.809 275.016 385.442 275.762 385.446C276.509 385.451 277.127 386.071 277.618 387.309C278.109 388.547 278.976 389.169 280.22 389.176C281.465 389.183 282.213 388.94 282.464 388.447C282.716 387.955 283.836 387.838 285.826 388.096C286.82 388.225 287.815 388.354 288.81 388.483C288.941 387.249 289.073 386.015 289.204 384.78C289.467 382.312 289.108 379.841 288.126 377.365C287.145 374.89 286.294 371.305 285.574 366.608C284.854 361.912 284.126 358.697 283.389 356.964C282.652 355.231 280.676 352.751 277.459 349.522C274.242 346.294 272.388 344.06 271.897 342.823C271.407 341.585 271.168 339.732 271.182 337.262C271.196 334.793 272.087 331.34 273.854 326.904C275.621 322.469 278.421 311.371 278.421 311.371C278.421 311.371 280.356 299.28 280.392 292.859C280.429 286.438 280.201 282.732 279.709 281.742C279.217 280.751 279.97 279.521 281.969 278.05C283.969 276.579 289.082 274.509 297.309 271.838C305.536 269.167 309.912 265.61 310.434 261.168C310.696 258.947 310.957 256.725 311.219 254.504C306.109 255.957 300.999 257.411 295.89 258.864C285.67 261.771 277.691 264.566 271.952 267.251C266.213 269.936 262.722 271.151 261.48 270.897C260.237 270.643 258.598 274.339 256.564 281.983C254.53 289.628 253.59 301.724 253.746 318.272C253.901 334.82 253.599 344.079 252.842 346.051C252.084 348.022 251.567 351.477 251.29 356.415C251.013 361.353 251.242 364.811 251.978 366.791Z" fill="#f3d5c4" fill-rule="evenodd" opacity="1" stroke="#f3d5c4" stroke-linecap="round" stroke-linejoin="round" stroke-width="1"/>
<path d="M262.45 429.086C264.939 429.099 267.176 429.482 269.163 430.234C271.149 430.986 274.619 433.475 279.572 437.701C284.525 441.927 288.36 445.9 291.077 449.62C293.793 453.34 296.875 458.42 300.322 464.86C303.77 471.301 307.457 479.348 311.384 489.001C315.311 498.655 318.018 504.103 319.504 505.346C320.99 506.589 322.479 507.215 323.972 507.224C324.719 507.228 325.466 507.232 326.212 507.236C326.209 507.73 326.206 508.224 326.204 508.718C326.201 509.212 326.198 509.706 326.195 510.2C327.191 510.082 328.187 509.964 329.184 509.846C331.176 509.61 333.793 508.76 337.037 507.296C340.28 505.833 344.279 502.768 349.034 498.102C353.789 493.436 355.796 490.484 355.057 489.245C354.317 488.006 352.088 486.141 348.369 483.651C344.65 481.16 342.05 478.923 340.568 476.939C339.086 474.955 337.349 474.204 335.355 474.687C333.362 475.17 331.499 474.542 329.767 472.804C328.034 471.065 324.708 465.243 319.787 455.337C314.866 445.431 310.302 438.367 306.095 434.145C301.889 429.923 299.289 427.686 298.295 427.433C297.301 427.181 294.451 425.066 289.745 421.088C285.039 417.11 281.693 414.745 279.707 413.993C277.72 413.241 275.854 413.107 274.11 413.592C272.365 414.076 270.118 415.422 267.368 417.629C264.618 419.836 262.489 422.294 260.98 425.002C260.226 426.356 259.472 427.711 258.717 429.065C259.962 429.072 261.206 429.079 262.45 429.086Z" fill="#ffffff" fill-rule="evenodd" opacity="1" stroke="#ffffff" stroke-linecap="round" stroke-linejoin="round" stroke-width="1"/>
<path d="M271.962 397.28C272.695 399.753 274.422 402.356 277.144 405.088C279.866 407.82 281.225 409.556 281.221 410.297C281.216 411.038 283.694 413.028 288.652 416.266C293.611 419.504 296.337 421.618 296.829 422.609C297.321 423.6 298.931 424.844 301.66 426.341C304.389 427.838 306.991 429.828 309.465 432.311C311.94 434.795 314.164 437.524 316.138 440.498C318.112 443.473 320.326 448.054 322.779 454.242C325.233 460.43 327.201 464.516 328.682 466.5C330.164 468.484 331.65 469.851 333.139 470.6C333.883 470.975 334.627 471.349 335.372 471.724C335.254 470.612 335.136 469.5 335.018 468.388C334.781 466.164 335.29 464.191 336.544 462.469C337.798 460.747 338.683 458.282 339.199 455.075C339.457 453.471 339.715 451.867 339.973 450.263C338.724 450.997 337.476 451.731 336.228 452.465C333.731 453.933 332.48 455.037 332.476 455.778C332.474 456.149 332.472 456.519 332.47 456.889C331.723 456.885 330.977 456.881 330.23 456.877C328.737 456.869 327.628 455.01 326.902 451.302C326.176 447.593 325.846 440.059 325.91 428.699C325.975 417.338 325.64 410.545 324.906 408.318C324.172 406.091 323.504 392.257 322.901 366.816C322.299 341.375 322.53 322.483 323.595 310.141C324.661 297.799 323.829 290.755 321.102 289.011C318.374 287.267 316.025 284.661 314.054 281.193C312.083 277.724 311.102 275.125 311.112 273.397C311.117 272.532 311.122 271.668 311.126 270.804C308.759 271.408 306.391 272.012 304.024 272.616C299.289 273.825 294.551 275.527 289.81 277.723C285.07 279.92 282.545 286.327 282.236 296.945C281.927 307.562 280.503 317.31 277.964 326.186C275.425 335.063 274.525 340.244 275.263 341.73C276.001 343.216 277.608 345.077 280.084 347.314C282.56 349.55 284.536 352.155 286.012 355.127C287.489 358.098 288.463 361.808 288.936 366.256C289.408 370.704 290.137 373.919 291.121 375.9C292.105 377.882 292.588 380.477 292.57 383.688C292.552 386.898 292.166 388.995 291.414 389.979C290.662 390.963 289.041 391.571 286.551 391.804C284.061 392.037 281.821 392.148 279.83 392.137C277.84 392.126 276.597 391.749 276.104 391.005C275.61 390.261 274.866 389.887 273.871 389.881C272.875 389.876 272.125 390.489 271.621 391.721C271.116 392.953 271.23 394.806 271.962 397.28Z" fill="#ffffff" fill-rule="evenodd" opacity="1" stroke="#ffffff" stroke-linecap="round" stroke-linejoin="round" stroke-width="1"/>
<path d="M298.781 143.67C300.03 142.936 301.538 140.351 303.305 135.915C304.188 133.698 305.072 131.48 305.955 129.262C304.955 130.121 303.955 130.98 302.955 131.838C300.954 133.556 299.446 136.141 298.431 139.593C297.924 141.319 297.416 143.045 296.909 144.771C297.533 144.404 298.157 144.037 298.781 143.67Z" fill="#ffffff" fill-rule="evenodd" opacity="1" stroke="#ffffff" stroke-linecap="round" stroke-linejoin="round" stroke-width="1"/>
<path d="M323.371 151.957C339.03 155.255 351.704 158.412 361.392 161.43C366.236 162.939 371.08 164.448 375.925 165.957C375.678 165.461 375.432 164.966 375.186 164.471C374.694 163.48 374.705 161.504 375.22 158.544C375.734 155.583 376.368 153.487 377.122 152.256C377.875 151.026 379.376 149.799 381.622 148.577C382.745 147.966 383.869 147.355 384.992 146.744C374.928 144.094 364.865 141.445 354.801 138.796C334.674 133.497 321.875 130.462 316.405 129.691C313.67 129.305 310.934 128.919 308.199 128.534C308.068 129.768 307.936 131.002 307.805 132.236C307.542 134.704 306.156 137.784 303.647 141.474C302.392 143.319 301.137 145.165 299.882 147.01C307.712 148.659 315.542 150.308 323.371 151.957Z" fill="#ffffff" fill-rule="evenodd" opacity="1" stroke="#ffffff" stroke-linecap="round" stroke-linejoin="round" stroke-width="1"/>
<path d="M309.73 121.874C310.225 122.371 310.847 122.374 311.596 121.884C312.346 121.395 313.226 119.794 314.237 117.083C314.742 115.728 315.247 114.372 315.753 113.017C314.88 113.382 314.007 113.748 313.134 114.114C311.387 114.845 310.26 116.197 309.751 118.17C309.242 120.143 309.235 121.377 309.73 121.874Z" fill="#ffffff" fill-rule="evenodd" opacity="1" stroke="#ffffff" stroke-linecap="round" stroke-linejoin="round" stroke-width="1"/>
<path d="M319.777 127.487C325.496 128.26 329.473 129.146 331.707 130.147C333.941 131.147 336.178 131.653 338.417 131.666C340.657 131.678 347.616 133.322 359.293 136.598C365.132 138.236 370.971 139.874 376.81 141.512C376.942 140.154 377.074 138.796 377.206 137.439C377.47 134.724 378.855 131.891 381.36 128.942C382.613 127.467 383.865 125.992 385.118 124.517C378.408 122.874 371.698 121.232 364.989 119.589C351.569 116.304 340.632 114.143 332.177 113.108C323.721 112.073 318.862 113.281 317.598 116.732C316.334 120.182 314.952 122.644 313.45 124.118C312.699 124.854 311.949 125.591 311.198 126.328C314.058 126.714 316.917 127.1 319.777 127.487Z" fill="#ffffff" fill-rule="evenodd" opacity="1" stroke="#ffffff" stroke-linecap="round" stroke-linejoin="round" stroke-width="1"/>
<path d="M315.941 277.499C317.664 280.966 319.391 283.568 321.123 285.307C322.855 287.045 324.343 288.042 325.585 288.295C326.207 288.422 326.828 288.549 327.45 288.676C327.323 289.046 327.197 289.416 327.07 289.785C326.817 290.525 326.939 291.02 327.435 291.269C327.683 291.394 327.931 291.519 328.179 291.644C327.928 292.136 327.676 292.629 327.424 293.122C326.921 294.107 326.395 299.167 325.845 308.301C325.296 317.436 325.259 323.98 325.734 327.935C326.21 331.889 326.394 343.25 326.288 362.019C326.181 380.788 326.242 392.149 326.468 396.102C326.695 400.055 327.175 403.144 327.909 405.371C328.643 407.598 328.974 415.009 328.903 427.604C328.831 440.199 329.288 447.487 330.272 449.468C330.764 450.459 331.256 451.449 331.748 452.44C332.872 451.705 333.996 450.971 335.12 450.236C337.368 448.767 338.869 447.417 339.623 446.186C340.376 444.956 341.126 444.342 341.873 444.347C342.619 444.351 347.365 441.167 356.111 434.794C364.857 428.422 370.603 424.626 373.347 423.406C376.091 422.187 379.339 419.982 383.09 416.792C386.841 413.603 392.584 410.054 400.321 406.145C408.058 402.237 414.923 398.324 420.918 394.406C426.913 390.488 428.559 385.434 425.856 379.245C423.154 373.056 420.582 365.879 418.139 357.716C415.697 349.552 414.362 343.617 414.134 339.912C413.906 336.206 412.942 330.644 411.242 323.225C409.542 315.807 408.592 307.775 408.392 299.13C408.193 290.485 408.343 285.917 408.843 285.426C409.344 284.935 409.967 284.815 410.712 285.066C411.457 285.317 412.045 291.371 412.475 303.228C412.691 309.156 412.906 315.084 413.121 321.013C414.118 320.771 415.115 320.53 416.112 320.289C418.105 319.806 420.103 318.582 422.105 316.618C424.107 314.653 425.986 312.441 427.742 309.981C429.498 307.521 431.511 303.581 433.781 298.16C436.051 292.739 436.567 289.655 435.327 288.907C434.087 288.16 432.974 286.795 431.99 284.814C431.006 282.833 429.277 280.6 426.802 278.117C424.328 275.633 422.97 273.65 422.73 272.167C422.489 270.684 421.015 267.341 418.307 262.14C415.599 256.939 414.248 253.844 414.254 252.856C414.257 252.362 414.259 251.868 414.262 251.374C414.76 251.377 415.257 251.38 415.755 251.383C416.751 251.388 417.617 252.134 418.355 253.62C418.725 254.363 419.094 255.106 419.463 255.849C419.981 252.147 420.5 248.445 421.019 244.744C421.537 241.042 422.056 237.341 422.575 233.639C421.704 233.634 420.833 233.629 419.962 233.624C418.22 233.615 416.605 233.235 415.116 232.486C413.627 231.737 412.632 231.608 412.132 232.099C411.631 232.59 411.248 234.317 410.982 237.279C410.717 240.241 409.835 242.212 408.336 243.191C406.837 244.171 402.129 240.687 394.21 232.74C386.292 224.793 382.084 220.818 381.586 220.815C381.089 220.812 380.454 223.031 379.682 227.473C378.911 231.914 377.641 236.352 375.874 240.788C374.107 245.223 370.491 246.561 365.026 244.802C359.561 243.043 355.211 242.154 351.976 242.136C348.741 242.118 341.89 243.438 331.424 246.096C320.957 248.755 315.344 251.07 314.587 253.041C313.829 255.013 313.435 258.715 313.404 264.148C313.373 269.581 314.219 274.031 315.941 277.499Z" fill="#7c9ab6" fill-rule="evenodd" opacity="1" stroke="#8bb2d6" stroke-linecap="round" stroke-linejoin="round" stroke-width="1"/>
<path d="M324.784 166.042C328.479 172.731 334.289 179.555 342.213 186.514C350.137 193.473 355.834 198.074 359.306 200.316C362.777 202.558 365.882 203.563 368.621 203.331C371.359 203.1 373.846 203.361 376.082 204.114C378.317 204.867 380.308 204.878 382.054 204.147C383.8 203.416 384.062 201.195 382.838 197.484C381.615 193.772 380.141 190.43 378.416 187.457C376.691 184.483 374.087 182.864 370.604 182.597C367.122 182.331 364.266 181.327 362.036 179.586C359.806 177.845 358.198 176.23 357.211 174.743C356.224 173.256 355.738 171.154 355.753 168.437C355.769 165.721 355.405 163.99 354.663 163.245C353.92 162.5 349.325 160.992 340.877 158.722C332.429 156.453 326.712 155.186 323.728 154.922C322.235 154.791 320.743 154.659 319.25 154.527C319.249 154.774 319.248 155.021 319.246 155.268C319.243 155.762 321.09 159.353 324.784 166.042Z" fill="#ffffff" fill-rule="evenodd" opacity="1" stroke="#ffffff" stroke-linecap="round" stroke-linejoin="round" stroke-width="1"/>
<path d="M339.283 110.555C347.488 111.835 357.555 113.991 369.483 117.021C381.41 120.051 388.507 119.35 390.771 114.917C393.036 110.484 395.668 107.165 398.667 104.959C401.666 102.753 404.412 101.163 406.906 100.189C409.4 99.2149 412.392 98.2437 415.881 97.2753C419.371 96.3069 423.853 95.7145 429.329 95.498C434.805 95.2816 439.655 95.8026 443.879 97.061C448.102 98.3194 451.454 99.6964 453.934 101.192C455.174 101.94 456.414 102.688 457.654 103.435C457.659 102.571 457.664 101.707 457.669 100.842C457.678 99.1137 457.441 97.1366 456.956 94.9112C456.47 92.6858 455.366 89.963 453.642 86.7428C451.919 83.5226 449.698 80.1761 446.98 76.7034C444.262 73.2307 441.292 70.374 438.07 68.1333C434.847 65.8927 431.499 63.8982 428.025 62.1501C424.551 60.4019 420.95 59.0235 417.223 58.0149C413.496 57.0062 408.398 56.3604 401.93 56.0773C395.461 55.7943 389.859 56.257 385.124 57.4654C380.389 58.6738 374.778 60.8653 368.289 64.0397C361.801 67.2141 354.302 73.0995 345.793 81.6959C337.283 90.2923 332.019 96.9311 330.002 101.612C328.993 103.953 327.985 106.293 326.976 108.634C331.078 109.274 335.181 109.915 339.283 110.555Z" fill="#ffffff" fill-rule="evenodd" opacity="1" stroke="#ffffff" stroke-linecap="round" stroke-linejoin="round" stroke-width="1"/>
<path d="M340.411 240.96C344.4 239.748 348.385 239.152 352.366 239.175C356.348 239.197 359.954 239.711 363.183 240.717C366.412 241.723 368.779 241.242 370.283 239.275C371.788 237.307 372.668 235.583 372.926 234.103C373.183 232.623 373.811 231.638 374.809 231.15C375.807 230.661 376.814 228.568 377.831 224.869C378.847 221.17 379.111 218.578 378.621 217.094C378.132 215.609 376.273 214.241 373.045 212.988C369.817 211.735 367.709 210.488 366.721 209.248C365.732 208.008 364.74 207.508 363.743 207.75C362.746 207.991 359.12 211.058 352.866 216.95C346.611 222.843 341.974 228.621 338.956 234.284C337.447 237.116 335.938 239.947 334.429 242.779C336.423 242.173 338.417 241.567 340.411 240.96Z" fill="#ffffff" fill-rule="evenodd" opacity="1" stroke="#ffffff" stroke-linecap="round" stroke-linejoin="round" stroke-width="1"/>
<path d="M342.451 473.986C345.667 477.461 350.372 481.563 356.566 486.29C362.761 491.016 366.851 493.879 368.836 494.878C370.821 495.877 373.183 496.384 375.92 496.4C378.657 496.415 380.778 495.439 382.282 493.472C383.786 491.504 385.047 488.671 386.063 484.972C387.079 481.273 388.466 478.071 390.224 475.364C391.981 472.657 393.378 467.725 394.414 460.569C395.449 453.413 395.853 447.982 395.626 444.276C395.512 442.423 395.398 440.57 395.284 438.717C395.906 438.721 396.528 438.724 397.15 438.728C398.394 438.735 399.517 438.247 400.518 437.265C401.519 436.282 404.886 434.943 410.619 433.246C416.353 431.549 427.561 429.759 444.245 427.877C460.929 425.994 469.417 421.225 469.709 413.571C470.001 405.917 469.553 397.147 468.365 387.261C467.177 377.376 466.211 372.184 465.467 371.686C464.723 371.188 463.355 371.057 461.363 371.293C459.371 371.529 457.879 371.274 456.888 370.527C455.897 369.781 452.034 370.747 445.3 373.426C438.566 376.105 434.202 377.563 432.21 377.799C431.214 377.916 430.218 378.034 429.222 378.152C429.957 380.132 430.693 382.112 431.428 384.092C432.899 388.052 430.013 392.357 422.77 397.009C415.526 401.661 409.66 404.963 405.169 406.913C400.679 408.864 394.81 412.536 387.563 417.929C380.315 423.322 374.695 426.995 370.703 428.948C366.71 430.902 361.715 433.961 355.719 438.126C349.723 442.291 346.1 444.988 344.848 446.215C343.597 447.443 342.838 449.662 342.571 452.871C342.304 456.08 341.413 459.533 339.899 463.229C338.385 466.925 339.236 470.51 342.451 473.986Z" fill="#6a6865" fill-rule="evenodd" opacity="1" stroke="#c2bbbb" stroke-linecap="round" stroke-linejoin="round" stroke-width="1"/>
<path d="M359.469 171.422C360.455 173.156 361.938 174.893 363.919 176.633C365.9 178.373 368.634 179.005 372.121 178.531C373.864 178.293 375.607 178.056 377.35 177.819C377.347 178.436 377.343 179.054 377.34 179.671C377.333 180.906 378.071 182.392 379.554 184.129C381.038 185.866 382.884 189.334 385.095 194.532C387.305 199.731 388.646 204.554 389.119 209.003C389.591 213.451 389.448 216.784 388.689 219.002C387.93 221.221 390.769 225.312 397.205 231.275C400.423 234.256 403.641 237.238 406.86 240.219C407.369 238.123 407.879 236.027 408.388 233.93C409.408 229.738 410.799 225.67 412.564 221.729C414.328 217.787 416.962 214.097 420.465 210.659C423.969 207.221 428.217 204.034 433.211 201.099C438.205 198.163 442.077 195.468 444.828 193.013C447.58 190.559 450.214 186.869 452.73 181.944C455.246 177.019 456.633 173.816 456.89 172.335C457.019 171.595 457.148 170.855 457.276 170.115C456.779 170.112 456.281 170.109 455.783 170.106C454.788 170.101 453.179 168.487 450.958 165.264C448.737 162.041 446.88 160.302 445.388 160.046C443.897 159.791 442.782 158.797 442.046 157.064C441.677 156.198 441.309 155.331 440.941 154.465C441.438 154.467 441.936 154.47 442.434 154.473C443.429 154.479 444.422 154.978 445.411 155.971C445.906 156.468 446.401 156.965 446.896 157.461C446.774 156.967 446.653 156.472 446.531 155.978C446.41 155.483 446.288 154.988 446.166 154.494C446.665 154.373 447.163 154.252 447.661 154.132C448.658 153.89 449.646 155.254 450.625 158.223C451.603 161.192 452.959 163.546 454.691 165.284C456.423 167.023 459.034 167.408 462.523 166.439C466.012 165.471 469.131 164.13 471.878 162.417C474.625 160.703 476.755 158.122 478.267 154.673C479.78 151.224 480.669 148.018 480.935 145.056C481.201 142.094 480.964 139.993 480.224 138.754C479.484 137.515 476.624 137.252 471.643 137.966C466.662 138.679 463.056 138.165 460.827 136.423C458.597 134.682 457.113 132.945 456.377 131.212C455.64 129.479 455.418 124.786 455.71 117.131C456.002 109.477 454.908 104.902 452.428 103.406C449.948 101.911 447.093 100.66 443.864 99.6541C440.634 98.6482 435.784 98.2507 429.313 98.4616C422.841 98.6724 417.611 99.5077 413.621 100.967C409.631 102.427 406.262 104.013 403.515 105.727C400.768 107.44 397.764 110.634 394.502 115.308C391.241 119.982 389.854 123.062 390.344 124.546C390.833 126.031 391.574 127.023 392.567 127.522C393.559 128.022 394.047 129.753 394.03 132.717C394.013 135.68 393.252 138.269 391.747 140.484C390.241 142.698 388.989 144.049 387.991 144.538C387.492 144.782 386.993 145.026 386.494 145.27C387.359 146.263 388.224 147.256 389.09 148.248C390.82 150.234 391.679 152.338 391.667 154.56C391.654 156.783 391.143 159.126 390.134 161.59C389.125 164.054 387.994 165.9 386.743 167.128C385.492 168.356 384.493 168.968 383.746 168.964C383.373 168.962 383 168.96 382.627 168.958C382.625 169.204 382.624 169.451 382.622 169.698C382.621 169.945 382.62 170.192 382.618 170.439C380.753 170.182 378.888 169.925 377.023 169.667C373.293 169.152 369.815 168.145 366.589 166.645C363.362 165.146 361.127 164.392 359.882 164.385C359.26 164.382 358.638 164.378 358.016 164.375C358.012 165.116 358.008 165.857 358.003 166.597C357.995 168.079 358.484 169.687 359.469 171.422Z" fill="#f3d5c4" fill-rule="evenodd" opacity="1" stroke="#f3d5c4" stroke-linecap="round" stroke-linejoin="round" stroke-width="1"/>
<path d="M370.084 208.526C372.317 209.773 374.801 210.528 377.537 210.79C378.905 210.921 380.273 211.052 381.641 211.184C380.277 210.312 378.913 209.44 377.55 208.568C374.822 206.824 372.338 206.069 370.097 206.303C368.976 206.421 367.856 206.538 366.735 206.655C367.852 207.279 368.968 207.902 370.084 208.526Z" fill="#6a6865" fill-rule="evenodd" opacity="1" stroke="#6a6865" stroke-linecap="round" stroke-linejoin="round" stroke-width="1"/>
<path d="M378.917 164.862C379.905 166.102 381.398 166.111 383.396 164.887C385.394 163.663 386.77 162.313 387.525 160.835C388.28 159.357 388.665 157.26 388.681 154.544C388.696 151.827 388.456 150.22 387.961 149.724C387.467 149.227 386.471 149.222 384.975 149.707C383.479 150.193 382.106 151.049 380.855 152.277C379.603 153.505 378.721 155.599 378.206 158.56C377.692 161.521 377.929 163.622 378.917 164.862Z" fill="#ffffff" fill-rule="evenodd" opacity="1" stroke="#ffffff" stroke-linecap="round" stroke-linejoin="round" stroke-width="1"/>
<path d="M383.524 142.29C386.013 142.304 388.01 141.204 389.515 138.989C391.021 136.775 391.656 134.556 391.419 132.332C391.183 130.108 390.194 128.991 388.452 128.981C386.71 128.971 384.965 129.579 383.216 130.804C381.467 132.029 380.459 134.246 380.192 137.456C380.058 139.06 379.925 140.665 379.791 142.269C381.036 142.276 382.28 142.283 383.524 142.29Z" fill="#ffffff" fill-rule="evenodd" opacity="1" stroke="#ffffff" stroke-linecap="round" stroke-linejoin="round" stroke-width="1"/>
<path d="M383.098 217.489C383.841 218.111 384.584 218.732 385.327 219.354C385.34 217.131 385.353 214.909 385.365 212.686C385.378 210.463 385.39 208.241 385.403 206.018C384.905 206.139 384.406 206.26 383.908 206.38C383.409 206.501 382.911 206.622 382.413 206.742C382.656 207.732 382.899 208.721 383.142 209.71C383.629 211.689 383.372 213.169 382.371 214.151C381.87 214.642 381.37 215.134 380.869 215.625C381.612 216.246 382.355 216.868 383.098 217.489Z" fill="#ffffff" fill-rule="evenodd" opacity="1" stroke="#ffffff" stroke-linecap="round" stroke-linejoin="round" stroke-width="1"/>
<path d="M400.105 180.539C400.339 183.257 400.946 185.854 401.928 188.329C402.909 190.804 404.884 193.531 407.854 196.512C410.823 199.492 412.681 200.984 413.428 200.988C414.174 200.992 416.175 199.275 419.429 195.835C422.684 192.396 427.055 189.457 432.544 187.018C438.033 184.579 440.655 182.864 440.412 181.875C440.169 180.886 439.176 180.386 437.434 180.377C435.692 180.367 431.473 178.368 424.777 174.379C418.08 170.39 413 166.657 409.536 163.18C406.071 159.703 403.717 157.962 402.473 157.955C401.229 157.948 400.465 161.031 400.181 167.203C399.897 173.376 399.872 177.821 400.105 180.539Z" fill="#000000" fill-rule="evenodd" opacity="1" stroke="#000000" stroke-linecap="round" stroke-linejoin="round" stroke-width="1"/>
<path d="M407.558 182.803C410.783 184.55 413.136 186.539 414.617 188.77C416.097 191.001 419.583 190.65 425.074 187.717C427.82 186.25 430.566 184.784 433.312 183.317C432.815 183.068 432.319 182.818 431.823 182.568C431.326 182.318 430.83 182.069 430.334 181.819C430.208 182.065 430.082 182.311 429.956 182.558C429.705 183.05 427.71 183.78 423.971 184.747C420.233 185.714 415.888 183.961 410.936 179.488C408.46 177.252 405.985 175.015 403.509 172.779C403.377 174.013 403.246 175.247 403.114 176.481C402.852 178.949 404.333 181.057 407.558 182.803Z" fill="#ffb2b2" fill-rule="evenodd" opacity="1" stroke="#ffb2b2" stroke-linecap="round" stroke-linejoin="round" stroke-width="1"/>
<path d="M404.27 170.19C405.264 170.442 407.989 172.557 412.446 176.533C416.903 180.509 420.627 182.012 423.619 181.041C425.115 180.555 426.611 180.069 428.107 179.584C424.759 177.466 421.412 175.348 418.064 173.23C411.369 168.994 407.404 166.132 406.168 164.643C404.932 163.155 404.065 162.409 403.567 162.406C403.319 162.405 403.07 162.403 402.821 162.402C402.814 163.637 402.807 164.872 402.8 166.106C402.786 168.576 403.276 169.937 404.27 170.19Z" fill="#ffffff" fill-rule="evenodd" opacity="1" stroke="#ffffff" stroke-linecap="round" stroke-linejoin="round" stroke-width="1"/>
<path d="M407.885 190.955C410.355 194.179 412.088 195.918 413.082 196.17C414.076 196.423 414.823 196.304 415.323 195.812C415.824 195.321 415.209 193.96 413.48 191.727C411.751 189.495 410.39 188.005 409.399 187.259C408.408 186.513 407.29 186.136 406.046 186.129C405.424 186.125 404.802 186.122 404.18 186.119C405.415 187.731 406.65 189.343 407.885 190.955Z" fill="#b13e3e" fill-rule="evenodd" opacity="1" stroke="#b13e3e" stroke-linecap="round" stroke-linejoin="round" stroke-width="1"/>
<path d="M430.294 320.738C433.267 322.978 435.742 325.461 437.717 328.189C439.693 330.916 444.423 330.449 451.91 326.786C459.396 323.123 464.141 320.186 466.144 317.975C468.148 315.763 470.659 311.702 473.679 305.792C476.699 299.881 478.591 295.323 479.356 292.117C480.12 288.91 481.632 285.585 483.892 282.14C486.151 278.695 488.281 276.113 490.281 274.396C492.282 272.678 495.025 271.582 498.512 271.108C501.999 270.633 505.363 269.788 508.605 268.571C511.847 267.354 514.47 265.64 516.473 263.428C518.476 261.217 519.609 259 519.87 256.779C520.132 254.558 521.01 253.204 522.506 252.719C523.254 252.476 524.002 252.233 524.75 251.99C524.131 251.493 523.511 250.996 522.892 250.498C521.653 249.504 520.917 247.647 520.684 244.929C520.567 243.57 520.45 242.211 520.334 240.852C519.213 240.97 518.093 241.087 516.972 241.204C515.852 241.321 514.731 241.438 513.611 241.556C514.239 240.448 514.867 239.34 515.496 238.232C516.753 236.016 516.885 234.535 515.894 233.789C514.903 233.043 513.536 232.788 511.792 233.025C510.921 233.144 510.049 233.262 509.177 233.381C509.182 232.517 509.187 231.652 509.192 230.788C509.202 229.059 508.835 227.946 508.091 227.448C507.347 226.95 506.478 226.698 505.483 226.692C504.487 226.687 503.365 227.174 502.115 228.155C500.865 229.136 500.362 229.998 500.607 230.74C500.852 231.482 501.969 231.859 503.96 231.87C505.951 231.881 507.566 232.384 508.804 233.379C510.043 234.374 511.028 236.108 511.761 238.582C512.494 241.056 513.478 243.037 514.714 244.525C515.949 246.014 516.563 247.499 516.555 248.981C516.546 250.463 516.042 251.571 515.043 252.307C514.043 253.042 512.921 253.406 511.677 253.399C511.055 253.396 510.433 253.392 509.811 253.389C509.813 253.019 509.815 252.648 509.817 252.278C509.821 251.537 510.448 250.676 511.698 249.695C512.948 248.714 512.709 246.984 510.981 244.505C509.253 242.025 508.515 240.539 508.766 240.047C509.018 239.554 508.774 238.689 508.035 237.45C507.295 236.211 505.931 235.339 503.943 234.834C501.955 234.329 499.091 234.807 495.35 236.268C491.609 237.728 488.986 239.443 487.482 241.41C485.977 243.377 484.702 248.927 483.655 258.059C482.607 267.191 479.711 273.349 474.965 276.533C470.218 279.717 465.969 283.028 462.217 286.464C458.464 289.901 455.209 293.464 452.451 297.153C449.693 300.842 447.932 304.043 447.171 306.755C446.409 309.468 445.406 310.82 444.161 310.813C442.917 310.806 440.806 310.054 437.828 308.555C434.851 307.057 432.107 308.153 429.598 311.843C427.088 315.534 427.32 318.499 430.294 320.738Z" fill="#f3d5c4" fill-rule="evenodd" opacity="1" stroke="#f3d5c4" stroke-linecap="round" stroke-linejoin="round" stroke-width="1"/>
<path d="M429.219 115.95C429.762 116.045 430.487 115.775 431.396 115.142C432.304 114.508 434.209 113.743 437.11 112.847C440.011 111.951 442.096 111.461 443.363 111.377C444.631 111.293 445.446 111.115 445.81 110.843C446.173 110.571 446.177 109.933 445.82 108.927C445.464 107.922 444.471 107.46 442.842 107.542C441.212 107.625 439.4 107.979 437.406 108.607C435.411 109.234 433.687 110 432.234 110.904C430.781 111.808 429.78 112.852 429.23 114.035C428.68 115.218 428.677 115.856 429.219 115.95Z" fill="#000000" fill-rule="evenodd" opacity="1" stroke="#000000" stroke-linecap="round" stroke-linejoin="round" stroke-width="1"/>
<path d="M440.672 135.941C443.033 136.448 445.395 136.955 447.756 137.462C447.513 136.473 447.269 135.483 447.026 134.494C446.54 132.516 446.432 129.552 446.703 125.602C446.839 123.627 446.974 121.652 447.11 119.677C446.363 119.796 445.616 119.915 444.868 120.035C443.374 120.273 441.626 121.375 439.624 123.339C437.622 125.304 436.115 127.642 435.105 130.353C434.599 131.708 434.094 133.064 433.588 134.419C435.95 134.926 438.311 135.433 440.672 135.941Z" fill="#000000" fill-rule="evenodd" opacity="1" stroke="#000000" stroke-linecap="round" stroke-linejoin="round" stroke-width="1"/>
<path d="M440.318 132.605C441.312 132.857 442.316 131.381 443.329 128.176C443.836 126.573 444.343 124.971 444.849 123.368C443.85 124.104 442.85 124.839 441.851 125.574C439.852 127.045 438.848 128.521 438.839 130.003C438.831 131.485 439.324 132.352 440.318 132.605Z" fill="#ffffff" fill-rule="evenodd" opacity="1" stroke="#ffffff" stroke-linecap="round" stroke-linejoin="round" stroke-width="1"/>
<path d="M472.07 392.098C472.422 395.928 472.774 399.758 473.125 403.588C474.374 402.73 475.623 401.873 476.873 401.016C479.371 399.301 481.988 398.574 484.724 398.837C487.46 399.099 492.173 401.718 498.864 406.695C505.555 411.672 509.641 415.152 511.123 417.136C512.605 419.12 518.669 424.958 529.315 434.649C539.961 444.34 546.402 449.439 548.639 449.945C550.876 450.451 553.119 449.847 555.368 448.13C557.618 446.414 559.497 444.078 561.007 441.123C562.517 438.168 563.279 435.456 563.293 432.986C563.3 431.751 563.307 430.516 563.314 429.282C563.064 429.527 562.813 429.773 562.563 430.018C562.063 430.509 560.941 430.75 559.199 430.74C557.458 430.731 555.221 430.224 552.489 429.221C549.757 428.218 545.546 424.861 539.854 419.149C534.163 413.437 530.331 409.093 528.357 406.119C526.383 403.144 520.444 397.184 510.54 388.238C500.637 379.291 493.824 373.82 490.103 371.824C486.381 369.827 483.774 368.825 482.281 368.816C480.788 368.808 478.543 369.66 475.547 371.372C472.551 373.084 471.047 375.051 471.035 377.274C471.022 379.497 471.367 384.438 472.07 392.098Z" fill="#ffffff" fill-rule="evenodd" opacity="1" stroke="#ffffff" stroke-linecap="round" stroke-linejoin="round" stroke-width="1"/>
<path d="M492.588 262.554C495.578 261.83 497.691 262.336 498.925 264.071C500.16 265.807 502.02 266.805 504.507 267.066C506.994 267.327 509.612 266.477 512.361 264.517C515.109 262.556 516.987 260.591 517.993 258.621C518.497 257.636 519 256.651 519.503 255.666C519.005 255.663 518.508 255.66 518.01 255.657C517.015 255.652 515.264 257.124 512.759 260.074C510.254 263.023 508.254 264.617 506.76 264.856C505.265 265.095 503.898 264.84 502.658 264.092C501.418 263.344 500.8 262.6 500.804 261.859C500.808 261.118 501.061 260.502 501.561 260.011C502.062 259.52 502.318 258.163 502.331 255.94C502.337 254.829 502.343 253.718 502.35 252.606C502.722 252.732 503.095 252.858 503.467 252.983C503.84 253.109 504.212 253.234 504.585 253.36C504.712 252.867 504.839 252.373 504.967 251.88C505.221 250.894 504.357 249.654 502.375 248.161C500.392 246.668 498.407 245.669 496.419 245.164C494.431 244.659 493.186 244.776 492.684 245.514C492.433 245.883 492.182 246.252 491.932 246.621C492.925 246.997 493.918 247.373 494.911 247.749C496.898 248.501 498.257 250.237 498.988 252.958C499.719 255.679 499.958 257.409 499.705 258.148C499.452 258.888 497.832 259.373 494.844 259.603C491.857 259.833 489.988 260.194 489.239 260.683C488.49 261.173 488.113 261.788 488.109 262.529C488.107 262.9 488.104 263.27 488.102 263.641C489.598 263.278 491.093 262.916 492.588 262.554Z" fill="#000000" fill-rule="evenodd" opacity="1" stroke="#000000" stroke-linecap="round" stroke-linejoin="round" stroke-width="1"/>
<path d="M555.276 464.43C559.469 471.121 562.813 473.733 565.31 472.265C567.807 470.797 569.182 469.694 569.435 468.954C569.688 468.215 569.197 466.977 567.963 465.241C566.728 463.506 566.24 461.898 566.497 460.417C566.754 458.937 568.258 457.093 571.008 454.886C573.758 452.678 577.003 450.844 580.744 449.383C584.485 447.922 588.479 445.845 592.725 443.152C596.97 440.459 603.222 435.061 611.48 426.957C619.738 418.853 624.878 412.09 626.9 406.668C628.921 401.246 629.571 396.31 628.85 391.861C628.129 387.412 627.272 384.814 626.281 384.067C625.29 383.321 623.799 382.942 621.808 382.931C619.817 382.92 616.941 385.497 613.179 390.662C609.417 395.828 606.285 399.638 603.782 402.094C601.28 404.55 595.79 407.112 587.314 409.781C578.838 412.451 573.474 414.891 571.222 417.101C568.969 419.311 567.578 423.255 567.049 428.932C566.519 434.609 565.875 438.434 565.117 440.405C564.36 442.377 562.853 444.715 560.598 447.419C558.343 450.123 555.844 451.961 553.101 452.934C551.73 453.42 550.358 453.906 548.987 454.392C551.083 457.738 553.18 461.084 555.276 464.43Z" fill="#573304" fill-rule="evenodd" opacity="1" stroke="#824c04" stroke-linecap="round" stroke-linejoin="round" stroke-width="1"/>
</g>
</svg>
